<?xml version="1.0" encoding="UTF-8" standalone="no"?>
<!DOCTYPE svg PUBLIC "-//W3C//DTD SVG 1.1//EN" "http://www.w3.org/Graphics/SVG/1.1/DTD/svg11.dtd">
<svg width="100%" height="100%" viewBox="0 0 2048 1366" version="1.1" xmlns="http://www.w3.org/2000/svg" xmlns:xlink="http://www.w3.org/1999/xlink" xml:space="preserve" xmlns:serif="http://www.serif.com/" style="fill-rule:evenodd;clip-rule:evenodd;stroke-linejoin:round;stroke-miterlimit:2;">
    <g transform="matrix(1,0,0,1,0,-341.333)">
        <g id="Intersex" transform="matrix(10.4759,0,0,6.98392,-5997.47,-6655.72)">
            <rect x="572.503" y="1001.88" width="195.497" height="195.497" style="fill:rgb(255,214,1);"/>
            <g transform="matrix(0.29366,0,0,0.44049,539.664,468.71)">
                <path d="M444.691,1285.31C525.822,1285.31 591.691,1351.18 591.691,1432.31C591.691,1513.44 525.822,1579.31 444.691,1579.31C363.559,1579.31 297.691,1513.44 297.691,1432.31C297.691,1351.18 363.559,1285.31 444.691,1285.31ZM444.691,1320.59C506.351,1320.59 556.411,1370.65 556.411,1432.31C556.411,1493.97 506.351,1544.03 444.691,1544.03C383.031,1544.03 332.971,1493.97 332.971,1432.31C332.971,1370.65 383.031,1320.59 444.691,1320.59Z" style="fill:rgb(112,30,132);"/>
            </g>
        </g>
    </g>
</svg>
