<?xml version="1.0" encoding="UTF-8" standalone="no"?>
<!DOCTYPE svg PUBLIC "-//W3C//DTD SVG 1.1//EN" "http://www.w3.org/Graphics/SVG/1.1/DTD/svg11.dtd">
<svg width="100%" height="100%" viewBox="0 0 2048 1366" version="1.1" xmlns="http://www.w3.org/2000/svg" xmlns:xlink="http://www.w3.org/1999/xlink" xml:space="preserve" xmlns:serif="http://www.serif.com/" style="fill-rule:evenodd;clip-rule:evenodd;stroke-linejoin:round;stroke-miterlimit:2;">
    <g transform="matrix(1,0,0,1,0,-341.333)">
        <g id="Maedic" transform="matrix(10.4759,0,0,6.98392,-5997.47,-6655.72)">
            <rect x="572.503" y="1001.88" width="195.497" height="195.497" style="fill:rgb(255,192,202);"/>
            <clipPath id="_clip1">
                <rect x="572.503" y="1001.88" width="195.497" height="195.497"/>
            </clipPath>
            <g clip-path="url(#_clip1)">
                <g transform="matrix(1,0,0,0.333333,9.09495e-13,733.086)">
                    <rect x="572.503" y="1001.88" width="195.497" height="195.497" style="fill:white;"/>
                </g>
                <g id="flower" transform="matrix(0.0954574,0,0,0.143186,572.503,950.341)">
                    <g transform="matrix(1,0,0,1,0,18.6137)">
                        <path d="M928.59,898.61C933.503,859.122 951.769,825.657 976.954,806.827C1003.19,812.657 1016.48,817.568 1024,817.568C1031.52,817.568 1041.48,814.657 1071.05,806.827C1096.23,825.657 1114.5,859.122 1119.41,898.61C1160.21,892.015 1198.84,900.94 1224.33,921.008C1225.49,947.859 1224.19,961.97 1226.13,969.231C1228.08,976.492 1233.47,985.36 1248.68,1011.89C1237.93,1038.79 1213.67,1063.23 1181.1,1078.62C1200.03,1115 1203.76,1154.15 1192.93,1184.51C1167.85,1194.16 1154.06,1197.42 1147.79,1201.58C1141.53,1205.74 1134.84,1213.67 1114.54,1236.55C1083.35,1234.8 1049.86,1217.24 1024,1187.43C998.141,1217.24 964.651,1234.8 933.462,1236.55C913.158,1213.67 906.47,1205.74 900.207,1201.58C893.944,1197.42 880.153,1194.16 855.071,1184.51C844.238,1154.15 847.967,1115 866.901,1078.62C834.331,1063.23 810.065,1038.79 799.315,1011.89C814.532,985.36 819.921,976.492 821.866,969.231C823.812,961.97 822.509,947.859 823.668,921.008C849.156,900.94 887.785,892.015 928.59,898.61Z" style="fill:rgb(252,243,116);"/>
                    </g>
                    <g transform="matrix(1.54877,0,0,1.54877,-557.902,-594.84)">
                        <circle cx="1021.39" cy="1056.61" r="32.614" style="fill:white;"/>
                    </g>
                    <g transform="matrix(1,0,0,1,0,18.6137)">
                        <path d="M1042.58,965.675C1040.32,964.238 1038.82,961.71 1038.82,958.833C1038.82,954.363 1042.45,950.733 1046.92,950.733C1051.39,950.733 1055.02,954.363 1055.02,958.833C1055.02,963.304 1051.39,966.933 1046.92,966.933C1046.59,966.933 1046.27,966.914 1045.95,966.875L1027.36,1017.95L1073.73,991.177C1073.4,990.292 1073.22,989.334 1073.22,988.333C1073.22,983.863 1076.85,980.233 1081.32,980.233C1085.79,980.233 1089.42,983.863 1089.42,988.333C1089.42,992.804 1085.79,996.433 1081.32,996.433C1079.14,996.433 1077.16,995.57 1075.7,994.167L1029.14,1021.05L1082.75,1030.5C1083.83,1027.3 1086.86,1025 1090.42,1025C1094.89,1025 1098.52,1028.63 1098.52,1033.1C1098.52,1037.57 1094.89,1041.2 1090.42,1041.2C1086.27,1041.2 1082.85,1038.08 1082.37,1034.06L1028.53,1024.57L1063.06,1065.72C1064,1065.34 1065.04,1065.12 1066.12,1065.12C1070.59,1065.12 1074.22,1068.75 1074.22,1073.22C1074.22,1077.69 1070.59,1081.32 1066.12,1081.32C1061.65,1081.32 1058.02,1077.69 1058.02,1073.22C1058.02,1071.13 1058.81,1069.22 1060.12,1067.78L1025.79,1026.86L1025.79,1080.52C1029.4,1081.34 1032.1,1084.57 1032.1,1088.42C1032.1,1092.89 1028.47,1096.52 1024,1096.52C1019.53,1096.52 1015.9,1092.89 1015.9,1088.42C1015.9,1084.57 1018.6,1081.34 1022.21,1080.52L1022.21,1026.86L987.774,1067.9C989.015,1069.33 989.767,1071.19 989.767,1073.22C989.767,1077.69 986.137,1081.32 981.667,1081.32C977.196,1081.32 973.567,1077.69 973.567,1073.22C973.567,1068.75 977.196,1065.12 981.667,1065.12C982.81,1065.12 983.898,1065.36 984.885,1065.79L1019.48,1024.57L965.405,1034.1C964.912,1038.1 961.499,1041.2 957.367,1041.2C952.896,1041.2 949.267,1037.57 949.267,1033.1C949.267,1028.63 952.896,1025 957.367,1025C960.94,1025 963.976,1027.32 965.05,1030.53L1018.86,1021.05L972.164,994.089C970.7,995.538 968.687,996.433 966.467,996.433C961.996,996.433 958.367,992.804 958.367,988.333C958.367,983.863 961.996,980.233 966.467,980.233C970.937,980.233 974.567,983.863 974.567,988.333C974.567,989.295 974.399,990.218 974.09,991.074L1020.64,1017.95L1002.24,967.392C1001.97,967.419 1001.7,967.433 1001.42,967.433C996.946,967.433 993.317,963.804 993.317,959.333C993.317,954.863 996.946,951.233 1001.42,951.233C1005.89,951.233 1009.52,954.863 1009.52,959.333C1009.52,962.262 1007.96,964.83 1005.63,966.252L1024,1016.73L1042.58,965.675ZM1024,1084.59C1026.12,1084.59 1027.84,1086.31 1027.84,1088.42C1027.84,1090.54 1026.12,1092.26 1024,1092.26C1021.88,1092.26 1020.17,1090.54 1020.17,1088.42C1020.17,1086.31 1021.88,1084.59 1024,1084.59ZM981.667,1069.39C983.783,1069.39 985.501,1071.11 985.501,1073.22C985.501,1075.34 983.783,1077.06 981.667,1077.06C979.55,1077.06 977.832,1075.34 977.832,1073.22C977.832,1071.11 979.55,1069.39 981.667,1069.39ZM1066.12,1069.39C1068.23,1069.39 1069.95,1071.11 1069.95,1073.22C1069.95,1075.34 1068.23,1077.06 1066.12,1077.06C1064,1077.06 1062.28,1075.34 1062.28,1073.22C1062.28,1071.11 1064,1069.39 1066.12,1069.39ZM1090.42,1029.27C1092.53,1029.27 1094.25,1030.98 1094.25,1033.1C1094.25,1035.22 1092.53,1036.93 1090.42,1036.93C1088.3,1036.93 1086.58,1035.22 1086.58,1033.1C1086.58,1030.98 1088.3,1029.27 1090.42,1029.27ZM957.367,1029.27C959.483,1029.27 961.201,1030.98 961.201,1033.1C961.201,1035.22 959.483,1036.93 957.367,1036.93C955.25,1036.93 953.532,1035.22 953.532,1033.1C953.532,1030.98 955.25,1029.27 957.367,1029.27ZM966.467,984.499C968.583,984.499 970.301,986.217 970.301,988.333C970.301,990.45 968.583,992.168 966.467,992.168C964.35,992.168 962.632,990.45 962.632,988.333C962.632,986.217 964.35,984.499 966.467,984.499ZM1081.32,984.499C1083.43,984.499 1085.15,986.217 1085.15,988.333C1085.15,990.45 1083.43,992.168 1081.32,992.168C1079.2,992.168 1077.48,990.45 1077.48,988.333C1077.48,986.217 1079.2,984.499 1081.32,984.499ZM1001.42,955.499C1003.53,955.499 1005.25,957.217 1005.25,959.333C1005.25,961.45 1003.53,963.168 1001.42,963.168C999.3,963.168 997.582,961.45 997.582,959.333C997.582,957.217 999.3,955.499 1001.42,955.499ZM1046.92,954.999C1049.03,954.999 1050.75,956.717 1050.75,958.833C1050.75,960.95 1049.03,962.668 1046.92,962.668C1044.8,962.668 1043.08,960.95 1043.08,958.833C1043.08,956.717 1044.8,954.999 1046.92,954.999Z" style="fill:rgb(239,139,23);"/>
                    </g>
                    <g transform="matrix(1.19616,0,0,1.19616,-197.747,-222.264)">
                        <circle cx="1021.39" cy="1056.61" r="32.614" style="fill:rgb(239,139,23);"/>
                    </g>
                    <g transform="matrix(0.817306,0,0,0.817306,189.211,178.037)">
                        <circle cx="1021.39" cy="1056.61" r="32.614" style="fill:rgb(252,243,116);"/>
                    </g>
                </g>
            </g>
        </g>
    </g>
</svg>
