<?xml version="1.0" encoding="UTF-8" standalone="no"?>
<!DOCTYPE svg PUBLIC "-//W3C//DTD SVG 1.1//EN" "http://www.w3.org/Graphics/SVG/1.1/DTD/svg11.dtd">
<svg width="100%" height="100%" viewBox="0 0 2048 1366" version="1.1" xmlns="http://www.w3.org/2000/svg" xmlns:xlink="http://www.w3.org/1999/xlink" xml:space="preserve" xmlns:serif="http://www.serif.com/" style="fill-rule:evenodd;clip-rule:evenodd;stroke-linejoin:round;stroke-miterlimit:2;">
    <g transform="matrix(1,0,0,1,0,-341.333)">
        <g id="Diamoric" transform="matrix(10.4759,0,0,6.98392,-5997.47,-6655.72)">
            <g transform="matrix(1,0,0,0.333333,9.09495e-13,733.086)">
                <rect x="572.503" y="1001.88" width="195.497" height="195.497" style="fill:rgb(249,253,234);"/>
            </g>
            <g transform="matrix(1,0,0,0.333333,0,667.92)">
                <rect x="572.503" y="1001.88" width="195.497" height="195.497" style="fill:rgb(152,238,157);"/>
            </g>
            <g transform="matrix(1,0,0,0.333333,0,798.252)">
                <rect x="572.503" y="1001.88" width="195.497" height="195.497" style="fill:rgb(152,238,157);"/>
            </g>
            <g id="myrtle" transform="matrix(0.0954574,0,0,0.143186,572.503,953.006)">
                <path d="M1110.15,907.55C1144.5,883.344 1181.35,875.327 1205.17,887.661C1231.61,901.354 1242,940.126 1217.45,967.484C1252.39,978.899 1262.78,1017.67 1246.73,1042.75C1234.18,1062.35 1205.5,1073.58 1170.81,1073.75L1170.29,1073.75C1169,1073.75 1167.7,1073.74 1166.4,1073.71C1202.5,1101.34 1222.29,1137.35 1216.2,1165.13C1211.43,1186.83 1190.88,1203.51 1167.13,1203.68L1166.75,1203.68C1158.91,1203.67 1150.73,1201.87 1142.65,1197.84L1142.27,1197.65C1140.62,1228.33 1116.05,1247.39 1091.46,1247.56L1091.11,1247.56C1086.4,1247.55 1081.69,1246.86 1077.15,1245.41C1051.55,1237.28 1031.15,1205.5 1024,1164.03C1016.85,1205.5 996.446,1237.28 970.854,1245.41C942.473,1254.43 907.71,1234.36 905.729,1197.65C872.948,1214.29 838.185,1194.22 831.804,1165.13C825.709,1137.35 845.504,1101.34 881.602,1073.71C844.943,1074.51 814.345,1063.17 801.274,1042.75C785.218,1017.67 795.607,978.899 830.552,967.484C805.996,940.126 816.386,901.354 842.83,887.661C866.652,875.327 903.502,883.344 937.845,907.549C923.89,868.602 925.849,831.571 943.719,811.983C952.891,801.929 966.255,796.469 979.982,796.445L980.334,796.445C996.527,796.525 1013.18,804.178 1024,820.783L1024.24,820.423C1035.14,803.949 1051.83,796.416 1068.02,796.445L1068.37,796.446C1081.97,796.563 1095.19,802.014 1104.28,811.983C1122.15,831.571 1124.11,868.602 1110.15,907.55Z" style="fill:rgb(102,2,60);"/>
                <path d="M1016.77,917.856C1012.28,915.325 1009.25,910.514 1009.25,905C1009.25,896.859 1015.86,890.25 1024,890.25C1032.14,890.25 1038.75,896.859 1038.75,905C1038.75,910.514 1035.72,915.325 1031.23,917.856L1034.62,998.349L1093.94,943.832C1092.56,938.869 1093.82,933.323 1097.72,929.424C1103.47,923.668 1112.82,923.668 1118.58,929.424C1124.33,935.181 1124.33,944.528 1118.58,950.284C1114.68,954.183 1109.13,955.441 1104.17,954.058L1049.65,1013.38L1130.14,1016.77C1132.67,1012.28 1137.49,1009.25 1143,1009.25C1151.14,1009.25 1157.75,1015.86 1157.75,1024C1157.75,1032.14 1151.14,1038.75 1143,1038.75C1137.49,1038.75 1132.67,1035.72 1130.14,1031.23L1049.65,1034.62L1104.17,1093.94C1109.13,1092.56 1114.68,1093.82 1118.58,1097.72C1124.33,1103.47 1124.33,1112.82 1118.58,1118.58C1112.82,1124.33 1103.47,1124.33 1097.72,1118.58C1093.82,1114.68 1092.56,1109.13 1093.94,1104.17L1034.62,1049.65L1031.23,1130.14C1035.72,1132.67 1038.75,1137.49 1038.75,1143C1038.75,1151.14 1032.14,1157.75 1024,1157.75C1015.86,1157.75 1009.25,1151.14 1009.25,1143C1009.25,1137.49 1012.28,1132.67 1016.77,1130.14L1013.38,1049.65L954.058,1104.17C955.441,1109.13 954.183,1114.68 950.284,1118.58C944.528,1124.33 935.181,1124.33 929.424,1118.58C923.668,1112.82 923.668,1103.47 929.424,1097.72C933.323,1093.82 938.869,1092.56 943.832,1093.94L998.349,1034.62L917.856,1031.23C915.325,1035.72 910.514,1038.75 905,1038.75C896.859,1038.75 890.25,1032.14 890.25,1024C890.25,1015.86 896.859,1009.25 905,1009.25C910.514,1009.25 915.325,1012.28 917.856,1016.77L998.349,1013.38L943.832,954.058C938.869,955.441 933.323,954.183 929.424,950.284C923.668,944.528 923.668,935.181 929.424,929.424C935.181,923.668 944.528,923.668 950.284,929.424C954.183,933.323 955.441,938.869 954.058,943.832L1013.38,998.349L1016.77,917.856ZM1024.62,919.737L1028.55,1013.01L1097.29,949.835C1097.42,949.987 1097.57,950.137 1097.72,950.284C1097.86,950.431 1098.01,950.575 1098.16,950.714L1034.99,1019.45L1128.26,1023.38C1128.25,1023.58 1128.25,1023.79 1128.25,1024C1128.25,1024.21 1128.25,1024.42 1128.26,1024.62L1034.99,1028.55L1098.16,1097.29C1098.01,1097.42 1097.86,1097.57 1097.72,1097.72C1097.57,1097.86 1097.42,1098.01 1097.29,1098.16L1028.55,1034.99L1024.62,1128.26C1024.42,1128.25 1024.21,1128.25 1024,1128.25C1023.79,1128.25 1023.58,1128.25 1023.38,1128.26L1019.45,1034.99L950.714,1098.16C950.575,1098.01 950.431,1097.86 950.284,1097.72C950.137,1097.57 949.987,1097.42 949.835,1097.29L1013.01,1028.55L919.737,1024.62C919.746,1024.42 919.75,1024.21 919.75,1024C919.75,1023.79 919.746,1023.58 919.737,1023.38L1013.01,1019.45L949.835,950.714C949.987,950.575 950.137,950.431 950.284,950.284C950.431,950.137 950.575,949.987 950.714,949.835L1019.45,1013.01L1023.38,919.737C1023.58,919.746 1023.79,919.75 1024,919.75C1024.21,919.75 1024.42,919.746 1024.62,919.737Z" style="fill:rgb(255,214,2);"/>
            </g>
        </g>
    </g>
</svg>
