<?xml version="1.0" encoding="UTF-8" standalone="no"?>
<!DOCTYPE svg PUBLIC "-//W3C//DTD SVG 1.1//EN" "http://www.w3.org/Graphics/SVG/1.1/DTD/svg11.dtd">
<svg width="100%" height="100%" viewBox="0 0 2048 1366" version="1.1" xmlns="http://www.w3.org/2000/svg" xmlns:xlink="http://www.w3.org/1999/xlink" xml:space="preserve" xmlns:serif="http://www.serif.com/" style="fill-rule:evenodd;clip-rule:evenodd;stroke-linejoin:round;stroke-miterlimit:2;">
    <g transform="matrix(1,0,0,1,0,-341.333)">
        <g id="Xenogender" transform="matrix(10.4759,0,0,6.98392,-5997.47,-6655.72)">
            <rect x="572.503" y="1001.88" width="195.497" height="195.497" style="fill:rgb(255,102,142);"/>
            <clipPath id="_clip1">
                <rect x="572.503" y="1001.88" width="195.497" height="195.497"/>
            </clipPath>
            <g clip-path="url(#_clip1)">
                <g transform="matrix(1,0,0,0.142857,9.09495e-13,886.683)">
                    <rect x="572.503" y="1001.88" width="195.497" height="195.497" style="fill:rgb(255,153,143);"/>
                </g>
                <g transform="matrix(1,0,0,0.142857,9.09495e-13,914.611)">
                    <rect x="572.503" y="1001.88" width="195.497" height="195.497" style="fill:rgb(253,177,141);"/>
                </g>
                <g transform="matrix(1,0,0,0.142857,0,942.539)">
                    <rect x="572.503" y="1001.88" width="195.497" height="195.497" style="fill:rgb(255,245,144);"/>
                </g>
                <g transform="matrix(1,0,0,0.142857,-2.84217e-12,970.467)">
                    <rect x="572.503" y="1001.88" width="195.497" height="195.497" style="fill:rgb(134,194,252);"/>
                </g>
                <g transform="matrix(1,0,0,0.142857,-2.89901e-12,998.395)">
                    <rect x="572.503" y="1001.88" width="195.497" height="195.497" style="fill:rgb(157,133,255);"/>
                </g>
                <g transform="matrix(1,0,0,0.142857,0,1026.32)">
                    <rect x="572.503" y="1001.88" width="195.497" height="195.497" style="fill:rgb(164,47,254);"/>
                </g>
                <g transform="matrix(0.0954574,0,0,0.143186,572.503,953.006)">
                    <path d="M402.278,1303.76L401.454,1282.16C414.1,982.614 688.203,742.946 1024,742.946C1359.8,742.946 1633.9,982.614 1646.55,1282.16L1645.28,1303.16L402.278,1303.76ZM1606.82,1260.57L1572.77,1260.57C1548.09,1011.04 1311.64,815.053 1024,815.053C736.356,815.053 499.906,1011.04 475.229,1260.57L441.185,1260.57C465.806,991.336 718.461,781.164 1024,781.164C1329.54,781.164 1582.19,991.336 1606.82,1260.57ZM1534.36,1260.57L1512.64,1260.57C1487.22,1050.12 1277.99,885.723 1024,885.723C770.008,885.723 560.78,1050.12 535.363,1260.57L513.642,1260.57C538.429,1031.08 758.658,853.271 1024,853.271C1289.34,853.271 1509.57,1031.08 1534.36,1260.57ZM1474.14,1260.57L1448.29,1260.57C1422.95,1082.07 1242.52,943.499 1024,943.499C805.479,943.499 625.047,1082.07 599.707,1260.57L573.864,1260.57C599.487,1069.82 792.704,923.941 1024,923.941C1255.3,923.941 1448.51,1069.82 1474.14,1260.57ZM1029.35,1260.57L1065.16,1180.22L1165.71,1169.61L1090.6,1101.93L1111.58,1003.02L1024,1053.54L936.42,1003.02L957.398,1101.93L882.293,1169.61L982.837,1180.22L1018.65,1260.57L638.318,1260.57C663.833,1101.8 828.245,981.717 1024,981.717C1219.76,981.717 1384.17,1101.8 1409.68,1260.57L1029.35,1260.57Z" style="fill:white;"/>
                </g>
            </g>
        </g>
    </g>
</svg>
