<?xml version="1.0" encoding="UTF-8" standalone="no"?>
<!DOCTYPE svg PUBLIC "-//W3C//DTD SVG 1.1//EN" "http://www.w3.org/Graphics/SVG/1.1/DTD/svg11.dtd">
<svg width="100%" height="100%" viewBox="0 0 2048 1366" version="1.1" xmlns="http://www.w3.org/2000/svg" xmlns:xlink="http://www.w3.org/1999/xlink" xml:space="preserve" xmlns:serif="http://www.serif.com/" style="fill-rule:evenodd;clip-rule:evenodd;stroke-linejoin:round;stroke-miterlimit:2;">
    <g transform="matrix(1,0,0,1,0,-341.333)">
        <g id="Archillean" transform="matrix(10.4759,0,0,6.98392,-5997.47,-6655.72)">
            <rect x="572.503" y="1001.88" width="195.497" height="195.497" style="fill:rgb(153,198,234);"/>
            <clipPath id="_clip1">
                <rect x="572.503" y="1001.88" width="195.497" height="195.497"/>
            </clipPath>
            <g clip-path="url(#_clip1)">
                <g transform="matrix(1,0,0,0.333333,9.09495e-13,733.086)">
                    <rect x="572.503" y="1001.88" width="195.497" height="195.497" style="fill:rgb(249,253,234);"/>
                </g>
                <g id="carnation-" serif:id="carnation " transform="matrix(0.0954574,0,0,0.143186,572.503,953.006)">
                    <path d="M688.778,1024C688.778,1024 686.198,1090.56 811.778,1109.95C878.078,1120.19 900.931,1218.42 900.931,1218.42C873.597,1189.08 794.541,1233.87 724.111,1188.95C626.413,1126.65 688.778,1024 688.778,1024Z" style="fill:rgb(101,149,51);"/>
                    <g transform="matrix(-1.03236,0,0,1,2072.42,5.5)">
                        <path d="M675.943,1037.25C693.518,1051.99 670.683,1083.03 796.764,1108.45C900.637,1129.4 900.931,1218.42 900.931,1218.42C873.597,1189.08 762.74,1216.29 728.954,1188.45C656.466,1128.74 675.943,1037.25 675.943,1037.25Z" style="fill:rgb(101,149,51);"/>
                    </g>
                    <path d="M900.339,1126.57C937.643,1139.7 948.982,1171.17 1026.22,1173.44C1096.9,1175.53 1094.25,1151.14 1132.23,1133.33C1137.05,1153.17 1124.49,1176.29 1108.41,1188.87C1087.18,1205.48 1073.54,1202 1061.67,1207.92C1041.46,1217.99 1038.28,1235.95 1017.62,1235.95C996.958,1235.95 987.06,1221.35 972.85,1208.65C963.404,1200.2 956.981,1200.39 924.104,1182.79C891.259,1165.21 900.339,1126.57 900.339,1126.57ZM1099.08,974.621C1124.92,1033.5 1110.8,1100.15 1024,1116.37C1024,1116.37 1030.09,1137.49 1075.08,1134.35C1104,1132.33 1110.72,1113.31 1120.75,1107.6C1130.84,1101.85 1145.18,1111.38 1153.42,1101.66C1161.39,1092.25 1150.83,1084.8 1150.75,1068.14C1150.7,1057.25 1158.02,1033.01 1149.42,1011.38C1135.26,975.811 1099.08,974.621 1099.08,974.621ZM934.778,962.621C910.279,1032.26 939.152,1097.45 1003.28,1109.95C1003.28,1109.95 996.403,1137.93 958.778,1130.62C938.143,1126.61 929.477,1111.3 919.444,1105.29C909.359,1099.25 894.686,1107.52 886.444,1097.29C878.469,1087.39 888.702,1071.85 884.778,1053.62C882.372,1042.45 875.84,1024.03 884.444,1001.29C898.6,963.873 934.778,962.621 934.778,962.621ZM1000.61,978.121C988.683,1019.17 1001.32,1053.41 1037.61,1057.45C1038.25,1064.66 1002.23,1077.4 993.278,1068.12C982.538,1057 988.763,1049.42 983.944,1041.12C980.223,1034.71 969.052,1031.02 968.944,1016.46C968.76,991.6 987.12,978.121 1000.61,978.121ZM1081.11,832.713C1113.05,856.031 1138.66,856.793 1172.38,927.189C1204.18,993.582 1179.9,1024.2 1177.59,1047.63C1188.47,1043.49 1234.76,1045.38 1243.89,998.011C1250.2,965.268 1234.75,943.208 1233.69,929.993C1232.62,916.709 1248.79,904.922 1242.15,890.15C1235.52,875.379 1220.44,884.841 1204.17,872.103C1194.19,864.294 1192.36,824.944 1140.91,820.476C1096.62,816.631 1081.11,832.713 1081.11,832.713ZM996.665,949.189C1049.51,956.718 1054.51,983.294 1046.2,1024.75C1052.13,1028.91 1079.83,1009.9 1078.27,987.839C1077.18,972.413 1068.01,973.247 1063.22,964.922C1059.53,958.492 1061.92,948.309 1049.36,940.932C1027.93,928.345 1008.08,943.506 996.665,949.189ZM992.119,832.194C958.01,852.206 951.255,829.263 882.871,906.632C836.041,959.614 863.271,976.533 841.229,1024C830.818,1018.8 809.845,1014.57 805.489,966.526C802.477,933.316 817.767,915.694 820.144,902.652C822.532,889.541 805.235,879.978 815.702,862.163C826.169,844.348 843.062,857.061 860.522,846.011C871.226,839.237 906.832,813.313 933.841,814.046C978.275,815.253 992.119,832.194 992.119,832.194ZM948.628,950.534C978.691,883.829 1109.25,882.905 1101.81,966.526C1108.71,964.225 1135.6,951.061 1124.79,914.651C1117.3,889.435 1091.23,882.938 1081,877.254C1070.73,871.542 1070.83,851.853 1054.09,847.676C1032.86,842.381 1026.75,861.218 1008.1,861.399C990.555,861.57 963.292,865.915 946.281,887.277C920.49,919.664 941.702,948.644 948.628,950.534Z" style="fill:rgb(172,221,77);"/>
                </g>
            </g>
        </g>
    </g>
</svg>
