<?xml version="1.0" encoding="UTF-8" standalone="no"?>
<!DOCTYPE svg PUBLIC "-//W3C//DTD SVG 1.1//EN" "http://www.w3.org/Graphics/SVG/1.1/DTD/svg11.dtd">
<svg width="100%" height="100%" viewBox="0 0 2048 1366" version="1.1" xmlns="http://www.w3.org/2000/svg" xmlns:xlink="http://www.w3.org/1999/xlink" xml:space="preserve" xmlns:serif="http://www.serif.com/" style="fill-rule:evenodd;clip-rule:evenodd;stroke-linejoin:round;stroke-miterlimit:2;">
    <g transform="matrix(1,0,0,1,0,-341.333)">
        <g id="LeatherBDSM" transform="matrix(10.4759,0,0,6.98392,-5997.47,-6655.72)">
            <rect x="572.503" y="1001.88" width="195.497" height="195.497"/>
            <clipPath id="_clip1">
                <rect x="572.503" y="1001.88" width="195.497" height="195.497"/>
            </clipPath>
            <g clip-path="url(#_clip1)">
                <g transform="matrix(1,0,0,0.112532,9.09495e-13,974.635)">
                    <rect x="572.503" y="1001.88" width="195.497" height="195.497" style="fill:white;"/>
                </g>
                <g transform="matrix(1,0,0,0.112532,-1.25056e-12,952.635)">
                    <rect x="572.503" y="1001.88" width="195.497" height="195.497" style="fill:rgb(24,25,106);"/>
                </g>
                <g transform="matrix(1,0,0,0.109031,9.09495e-13,913.513)">
                    <rect x="572.503" y="1001.88" width="195.497" height="195.497" style="fill:rgb(24,25,106);"/>
                </g>
                <g transform="matrix(1,0,0,0.112532,9.09495e-13,996.634)">
                    <rect x="572.503" y="1001.88" width="195.497" height="195.497" style="fill:rgb(24,25,106);"/>
                </g>
                <g transform="matrix(1,0,0,0.112532,-1.3074e-12,1040.63)">
                    <rect x="572.503" y="1001.88" width="195.497" height="195.497" style="fill:rgb(24,25,106);"/>
                </g>
                <g transform="matrix(0.0834472,-0.125171,0.0946631,0.141995,487.443,1011.29)">
                    <path d="M602,721.311C649.158,635.937 743.473,635.938 790.632,674.744C865.876,736.66 845.799,792.171 790.632,868.775C751.065,923.717 663.108,962.38 602,1024C537.682,956.676 457.016,921.26 413.368,868.775C351.339,794.188 339.183,740.139 413.368,674.744C458.985,634.531 554.842,635.937 602,721.311Z" style="fill:rgb(192,34,37);"/>
                </g>
            </g>
        </g>
    </g>
</svg>
