<?xml version="1.0" encoding="UTF-8" standalone="no"?>
<!DOCTYPE svg PUBLIC "-//W3C//DTD SVG 1.1//EN" "http://www.w3.org/Graphics/SVG/1.1/DTD/svg11.dtd">
<svg width="100%" height="100%" viewBox="0 0 2048 1366" version="1.1" xmlns="http://www.w3.org/2000/svg" xmlns:xlink="http://www.w3.org/1999/xlink" xml:space="preserve" xmlns:serif="http://www.serif.com/" style="fill-rule:evenodd;clip-rule:evenodd;stroke-linejoin:round;stroke-miterlimit:2;">
    <g transform="matrix(1,0,0,1,0,-341.333)">
        <g id="StraightAlly" transform="matrix(10.4759,0,0,6.98392,-5997.47,-6655.72)">
            <rect x="572.503" y="1001.88" width="195.497" height="195.497"/>
            <clipPath id="_clip1">
                <rect x="572.503" y="1001.88" width="195.497" height="195.497"/>
            </clipPath>
            <g clip-path="url(#_clip1)">
                <g transform="matrix(1,0,0,0.166667,9.09495e-13,867.483)">
                    <rect x="572.503" y="1001.88" width="195.497" height="195.497" style="fill:white;"/>
                </g>
                <g transform="matrix(1,0,0,0.166667,0,932.649)">
                    <rect x="572.503" y="1001.88" width="195.497" height="195.497" style="fill:white;"/>
                </g>
                <g transform="matrix(1,0,0,0.166667,1.59162e-12,997.814)">
                    <rect x="572.503" y="1001.88" width="195.497" height="195.497" style="fill:white;"/>
                </g>
                <g transform="matrix(0.318191,0,0,0.477287,394.952,610.887)">
                    <path d="M763.033,1228.8L558,1228.8L865.2,819.2L1172.4,1228.8L967.367,1228.8L865.2,1092.27L763.033,1228.8Z" style="fill:white;"/>
                    <clipPath id="_clip2">
                        <path d="M763.033,1228.8L558,1228.8L865.2,819.2L1172.4,1228.8L967.367,1228.8L865.2,1092.27L763.033,1228.8Z"/>
                    </clipPath>
                    <g clip-path="url(#_clip2)">
                        <g id="Rainbow" transform="matrix(3.14276,0,0,2.09517,-1241.24,-1279.91)">
                            <rect x="572.503" y="1001.88" width="195.497" height="195.497" style="fill:rgb(192,34,37);"/>
                            <clipPath id="_clip3">
                                <rect x="572.503" y="1001.88" width="195.497" height="195.497"/>
                            </clipPath>
                            <g clip-path="url(#_clip3)">
                                <g transform="matrix(1,0,0,0.166667,9.09495e-13,867.483)">
                                    <rect x="572.503" y="1001.88" width="195.497" height="195.497" style="fill:rgb(242,134,35);"/>
                                </g>
                                <g transform="matrix(1,0,0,0.166667,9.09495e-13,900.066)">
                                    <rect x="572.503" y="1001.88" width="195.497" height="195.497" style="fill:rgb(255,214,2);"/>
                                </g>
                                <g transform="matrix(1,0,0,0.166667,0,932.649)">
                                    <rect x="572.503" y="1001.88" width="195.497" height="195.497" style="fill:rgb(90,156,59);"/>
                                </g>
                                <g transform="matrix(1,0,0,0.166667,1.59162e-12,965.232)">
                                    <rect x="572.503" y="1001.88" width="195.497" height="195.497" style="fill:rgb(52,83,171);"/>
                                </g>
                                <g transform="matrix(1,0,0,0.166667,-1.3074e-12,997.814)">
                                    <rect x="572.503" y="1001.88" width="195.497" height="195.497" style="fill:rgb(112,30,132);"/>
                                </g>
                            </g>
                        </g>
                    </g>
                </g>
            </g>
        </g>
    </g>
</svg>
