<?xml version="1.0" encoding="UTF-8" standalone="no"?>
<!DOCTYPE svg PUBLIC "-//W3C//DTD SVG 1.1//EN" "http://www.w3.org/Graphics/SVG/1.1/DTD/svg11.dtd">
<svg width="100%" height="100%" viewBox="0 0 2048 1366" version="1.1" xmlns="http://www.w3.org/2000/svg" xmlns:xlink="http://www.w3.org/1999/xlink" xml:space="preserve" xmlns:serif="http://www.serif.com/" style="fill-rule:evenodd;clip-rule:evenodd;stroke-linecap:round;stroke-linejoin:round;stroke-miterlimit:1.5;">
    <g transform="matrix(1,0,0,1,1.27329e-11,-341.333)">
        <g id="Otter" transform="matrix(10.4759,0,0,6.98392,-5997.47,-6655.72)">
            <g transform="matrix(0.328566,0,0,0.766654,572.503,1001.88)">
                <rect x="0" y="51" width="595" height="51" style="fill:rgb(154,215,252);fill-rule:nonzero;"/>
            </g>
            <g transform="matrix(0.328566,0,0,0.766654,572.503,962.781)">
                <rect x="0" y="51" width="595" height="51" style="fill:rgb(109,197,252);fill-rule:nonzero;"/>
            </g>
            <g transform="matrix(0.328566,0,0,0.766654,572.503,1001.88)">
                <rect x="0" y="102" width="595" height="51" style="fill:white;fill-rule:nonzero;"/>
            </g>
            <g transform="matrix(0.328566,0,0,0.766654,572.503,962.781)">
                <rect x="0" y="204" width="595" height="51" style="fill:rgb(169,169,171);fill-rule:nonzero;"/>
            </g>
            <g transform="matrix(0.328566,0,0,0.766654,572.503,962.781)">
                <rect x="0" y="255" width="595" height="51" style="fill:rgb(42,42,42);fill-rule:nonzero;"/>
            </g>
            <g transform="matrix(0.0954574,0,0,0.143186,572.503,953.006)">
                <path d="M536.58,649.288C528.537,643.758 521.153,585.064 440.819,610.843C397.494,624.745 381.226,641.893 373.674,677.422C369.739,695.931 338.452,700.941 332.667,737.002C310.218,876.939 415.887,844.63 422.161,874.136C426.195,893.109 412.721,887.161 412.855,927.981C413.01,975.025 456.16,1024.6 520.83,1031.57C580.095,1037.95 624.149,976.578 626.861,937.029C630.337,886.335 588.362,848.27 591.546,817.483C594.73,786.695 648.657,763.93 593.954,681.952C576.743,656.159 549.375,658.086 536.58,649.288ZM293.429,677.984C287.403,661.991 240.706,611.202 212.999,635.801C201.573,645.946 194.758,691.664 242.462,726.925C247.754,730.836 271.459,741.234 289.818,725.857C300.495,716.912 301.305,698.888 293.429,677.984ZM204.969,626.076C199.139,630.032 200.074,640.369 194.634,636.649C193.018,635.544 191.069,612.688 194.81,610.149C198.551,607.611 218.475,617.835 217.079,621.418C215.951,624.313 210.799,622.12 204.969,626.076ZM603.877,591.092C603.771,576.161 627.412,517.79 656.733,530.846C668.825,536.231 686.205,572.173 659.297,614.316C656.312,618.991 640.777,634.001 621.629,626.117C610.492,621.531 604.016,610.608 603.877,591.092ZM362.959,563.106C358.618,544.236 311.132,477.511 277.851,502.571C264.126,512.907 252.852,563.346 299.619,608.638C304.806,613.662 329.013,628.051 350.94,612.496C363.693,603.449 368.633,587.77 362.959,563.106ZM528.577,514.199C548.668,477.98 539.187,423.535 505.18,415.075C490.689,411.469 461.333,449.875 465.04,504.412C465.451,510.462 472.327,533.261 494.208,536.773C506.935,538.816 518.531,532.308 528.577,514.199ZM651.099,520.224C654.995,520.663 659.968,524.497 661.04,522.859C662.111,521.221 656.205,506.137 651.779,505.218C647.352,504.3 634.841,521.351 637.498,524.129C639.647,526.375 644.098,519.435 651.099,520.224ZM421.27,469.465C420.782,442.294 393.604,391.127 361.933,404.293C342.62,412.322 330.855,447.454 361.37,492.807C364.755,497.838 382.123,514.131 402.823,506.214C414.862,501.61 421.642,490.171 421.27,469.465ZM272.807,489.005C267.545,492.541 267.471,504.541 262.796,500.461C261.407,499.249 260.412,476.357 263.788,474.089C267.165,471.82 284.399,483.38 283.055,486.85C281.97,489.655 278.07,485.47 272.807,489.005ZM507.754,406.229C511.649,406.679 516.609,411.526 517.685,409.89C518.761,408.255 512.895,393.155 508.471,392.225C504.047,391.295 491.49,408.313 494.14,411.098C496.283,413.35 500.755,405.422 507.754,406.229ZM354.635,393.521C348.357,396.719 349.811,409.351 344.877,404.982C343.412,403.684 344.33,380.763 348.359,378.711C352.387,376.659 370.879,389.29 369.047,392.67C367.566,395.402 360.913,390.323 354.635,393.521Z" style="stroke:black;stroke-width:1px;"/>
            </g>
        </g>
    </g>
</svg>
