<?xml version="1.0" encoding="UTF-8" standalone="no"?>
<!DOCTYPE svg PUBLIC "-//W3C//DTD SVG 1.1//EN" "http://www.w3.org/Graphics/SVG/1.1/DTD/svg11.dtd">
<svg width="100%" height="100%" viewBox="0 0 2048 1366" version="1.1" xmlns="http://www.w3.org/2000/svg" xmlns:xlink="http://www.w3.org/1999/xlink" xml:space="preserve" xmlns:serif="http://www.serif.com/" style="fill-rule:evenodd;clip-rule:evenodd;stroke-linejoin:round;stroke-miterlimit:2;">
    <g transform="matrix(1,0,0,1,-1,-341.333)">
        <g id="DisabiltyPride" transform="matrix(10.4759,0,0,6.98392,-5996.47,-6655.72)">
            <rect x="572.503" y="1001.88" width="195.497" height="195.497" style="fill:rgb(89,89,89);"/>
            <clipPath id="_clip1">
                <rect x="572.503" y="1001.88" width="195.497" height="195.497"/>
            </clipPath>
            <g clip-path="url(#_clip1)">
                <g transform="matrix(0.0954574,0,0,0.143186,572.408,953.006)">
                    <path d="M207.119,341.333L1,341.333L1,363.267L1780.25,1706.67L2015.42,1706.67L207.119,341.333Z" style="fill:rgb(232,232,232);"/>
                </g>
                <g transform="matrix(0.0954574,0,0,0.143186,572.408,953.006)">
                    <path d="M1,713.15L1,535.589L1552.02,1706.67L1316.85,1706.67L1,713.15Z" style="fill:rgb(207,114,128);"/>
                </g>
                <g transform="matrix(0.0954574,0,0,0.143186,572.408,953.006)">
                    <path d="M1,536.152L1,358.591L1786.44,1706.67L1551.27,1706.67L1,536.152Z" style="fill:rgb(238,222,119);"/>
                </g>
                <g transform="matrix(0.0954574,0,0,0.143186,572.408,953.006)">
                    <path d="M439.95,341.333L675.119,341.333L2049,1378.67L2049,1556.23C2049,1556.23 439.95,341.333 439.95,341.333Z" style="fill:rgb(59,176,125);"/>
                </g>
                <g transform="matrix(0.0954574,0,0,0.143186,572.408,953.006)">
                    <path d="M2049,1554.49L441.119,341.333L205.95,341.333L2014.25,1706.67L2049,1706.67L2049,1554.49Z" style="fill:rgb(123,194,224);"/>
                </g>
            </g>
        </g>
    </g>
</svg>
