<?xml version="1.0" encoding="UTF-8" standalone="no"?>
<!DOCTYPE svg PUBLIC "-//W3C//DTD SVG 1.1//EN" "http://www.w3.org/Graphics/SVG/1.1/DTD/svg11.dtd">
<svg width="100%" height="100%" viewBox="0 0 2048 1366" version="1.1" xmlns="http://www.w3.org/2000/svg" xmlns:xlink="http://www.w3.org/1999/xlink" xml:space="preserve" xmlns:serif="http://www.serif.com/" style="fill-rule:evenodd;clip-rule:evenodd;stroke-linejoin:round;stroke-miterlimit:2;">
    <g transform="matrix(1,0,0,1,3.00133e-11,-341.333)">
        <g id="GayMen">
            <g transform="matrix(10.4759,0,0,0.997702,-5997.47,-658.245)">
                <rect x="572.503" y="1001.88" width="195.497" height="195.497" style="fill:rgb(4,144,109);"/>
            </g>
            <g transform="matrix(10.4759,0,0,0.997702,-5997.47,-463.198)">
                <rect x="572.503" y="1001.88" width="195.497" height="195.497" style="fill:rgb(36,206,169);"/>
            </g>
            <g transform="matrix(10.4759,0,0,0.997702,-5997.47,-268.15)">
                <rect x="572.503" y="1001.88" width="195.497" height="195.497" style="fill:rgb(151,234,188);"/>
            </g>
            <g transform="matrix(10.4759,0,0,0.997702,-5997.47,-73.1023)">
                <rect x="572.503" y="1001.88" width="195.497" height="195.497" style="fill:white;"/>
            </g>
            <g transform="matrix(10.4759,0,0,0.997702,-5997.47,512.041)">
                <rect x="572.503" y="1001.88" width="195.497" height="195.497" style="fill:rgb(59,26,117);"/>
            </g>
            <g transform="matrix(10.4759,0,0,0.997702,-5997.47,316.993)">
                <rect x="572.503" y="1001.88" width="195.497" height="195.497" style="fill:rgb(77,75,202);"/>
            </g>
            <g transform="matrix(10.4759,0,0,0.997702,-5997.47,121.945)">
                <rect x="572.503" y="1001.88" width="195.497" height="195.497" style="fill:rgb(96,199,242);"/>
            </g>
        </g>
    </g>
</svg>
