<?xml version="1.0" encoding="UTF-8" standalone="no"?>
<!DOCTYPE svg PUBLIC "-//W3C//DTD SVG 1.1//EN" "http://www.w3.org/Graphics/SVG/1.1/DTD/svg11.dtd">
<svg width="100%" height="100%" viewBox="0 0 2048 1366" version="1.1" xmlns="http://www.w3.org/2000/svg" xmlns:xlink="http://www.w3.org/1999/xlink" xml:space="preserve" xmlns:serif="http://www.serif.com/" style="fill-rule:evenodd;clip-rule:evenodd;stroke-linejoin:round;stroke-miterlimit:2;">
    <g transform="matrix(1,0,0,1,1.36424e-11,-341.333)">
        <g id="Heteroqueer" transform="matrix(10.4759,0,0,6.98392,-5997.47,-6655.72)">
            <g transform="matrix(1,0,0,0.142857,-1.25056e-12,858.755)">
                <rect x="572.503" y="1001.88" width="195.497" height="195.497" style="fill:rgb(144,72,140);"/>
            </g>
            <g transform="matrix(1,0,0,0.142857,9.09495e-13,914.611)">
                <rect x="572.503" y="1001.88" width="195.497" height="195.497" style="fill:rgb(255,200,247);"/>
            </g>
            <g transform="matrix(1,0,0,0.142857,-1.3074e-12,886.683)">
                <rect x="572.503" y="1001.88" width="195.497" height="195.497" style="fill:rgb(243,126,225);"/>
            </g>
            <g transform="matrix(1,0,0,0.142857,9.09495e-13,942.539)">
                <rect x="572.503" y="1001.88" width="195.497" height="195.497" style="fill:white;"/>
            </g>
            <g transform="matrix(1,0,0,0.142857,0,970.467)">
                <rect x="572.503" y="1001.88" width="195.497" height="195.497" style="fill:rgb(206,206,206);"/>
            </g>
            <g transform="matrix(1,0,0,0.142857,-1.3074e-12,998.395)">
                <rect x="572.503" y="1001.88" width="195.497" height="195.497" style="fill:rgb(169,169,171);"/>
            </g>
            <g transform="matrix(1,0,0,0.142857,1.59162e-12,1026.32)">
                <rect x="572.503" y="1001.88" width="195.497" height="195.497"/>
            </g>
        </g>
    </g>
</svg>
