<?xml version="1.0" encoding="UTF-8" standalone="no"?>
<!DOCTYPE svg PUBLIC "-//W3C//DTD SVG 1.1//EN" "http://www.w3.org/Graphics/SVG/1.1/DTD/svg11.dtd">
<svg width="100%" height="100%" viewBox="0 0 2048 1366" version="1.1" xmlns="http://www.w3.org/2000/svg" xmlns:xlink="http://www.w3.org/1999/xlink" xml:space="preserve" xmlns:serif="http://www.serif.com/" style="fill-rule:evenodd;clip-rule:evenodd;stroke-linejoin:round;stroke-miterlimit:2;">
    <g transform="matrix(1,0,0,1,0,-341.333)">
        <g id="Sapphic" transform="matrix(10.4759,0,0,6.98392,-5997.47,-6655.72)">
            <rect x="572.503" y="1001.88" width="195.497" height="195.497" style="fill:rgb(255,141,166);"/>
            <clipPath id="_clip1">
                <rect x="572.503" y="1001.88" width="195.497" height="195.497"/>
            </clipPath>
            <g clip-path="url(#_clip1)">
                <g transform="matrix(1,0,0,0.333333,9.09495e-13,733.086)">
                    <rect x="572.503" y="1001.88" width="195.497" height="195.497" style="fill:white;"/>
                </g>
                <g id="violet" transform="matrix(0.0954574,0,0,0.143186,572.503,953.006)">
                    <g transform="matrix(0.919512,0,0,0.919512,85.943,75.1694)">
                        <circle cx="1021.39" cy="1056.61" r="32.614" style="fill:rgb(255,141,166);"/>
                    </g>
                    <g transform="matrix(0.570481,0,0,0.570481,442.44,443.96)">
                        <circle cx="1021.39" cy="1056.61" r="32.614" style="fill:rgb(255,214,1);"/>
                    </g>
                    <path d="M1164.58,1119.82C1151.33,1100.71 1070.46,1069.13 1056.36,1072.06C1048.79,1073.63 1036.14,1086.54 1030.89,1092.84C1026.29,1098.37 1038.03,1174.6 1044.36,1191.09C1053.2,1214.1 1082.82,1232.12 1104.47,1234.98C1131.25,1238.52 1171.82,1225.79 1177.61,1193.67C1183.14,1163.03 1180.62,1142.96 1164.58,1119.82ZM884.121,1119.82C897.366,1100.71 978.24,1069.13 992.337,1072.06C999.906,1073.63 1012.56,1086.54 1017.81,1092.84C1022.41,1098.37 1010.67,1174.6 1004.34,1191.09C995.498,1214.1 965.878,1232.12 944.234,1234.98C917.454,1238.52 876.882,1225.79 871.088,1193.67C865.562,1163.03 868.085,1142.96 884.121,1119.82ZM1155.11,934.113C1110.27,945.482 1061.14,1002.7 1057.18,1017.74C1055.06,1025.82 1058.81,1048.7 1071.56,1062.52C1076.6,1067.98 1138.58,1082.36 1188.31,1071.87C1229.85,1063.11 1233.5,1018.22 1226.56,986.262C1214.42,930.32 1181.68,927.375 1155.11,934.113ZM893.588,934.113C938.428,945.482 987.564,1002.7 991.516,1017.74C993.638,1025.82 989.886,1048.7 977.139,1062.52C972.102,1067.98 910.117,1082.36 860.393,1071.87C818.855,1063.11 815.202,1018.22 822.139,986.262C834.285,930.32 867.015,927.375 893.588,934.113ZM1001.59,814.037C1008.16,812.529 1039.03,812.528 1045.62,814.037C1089.64,821.681 1120.49,848.942 1117.78,885.789C1113.52,943.688 1050.78,997.264 1047.86,999.079C1043.5,1001.8 1034.12,1004.42 1023.6,1004.15C1013.08,1004.42 1003.71,1001.8 999.341,999.079C996.425,997.264 933.608,942.73 929.424,885.789C926.716,848.942 957.56,821.681 1001.59,814.037Z" style="fill:rgb(199,107,197);"/>
                </g>
            </g>
        </g>
    </g>
</svg>
