<?xml version="1.0" encoding="UTF-8" standalone="no"?>
<!DOCTYPE svg PUBLIC "-//W3C//DTD SVG 1.1//EN" "http://www.w3.org/Graphics/SVG/1.1/DTD/svg11.dtd">
<svg width="100%" height="100%" viewBox="0 0 2048 1366" version="1.1" xmlns="http://www.w3.org/2000/svg" xmlns:xlink="http://www.w3.org/1999/xlink" xml:space="preserve" xmlns:serif="http://www.serif.com/" style="fill-rule:evenodd;clip-rule:evenodd;stroke-linejoin:round;stroke-miterlimit:2;">
    <g transform="matrix(1,0,0,1,0,-341.333)">
        <g id="Genderflux" transform="matrix(10.4759,0,0,6.98392,-5997.47,-6655.72)">
            <rect x="572.503" y="1001.88" width="195.497" height="195.497"/>
            <clipPath id="_clip1">
                <rect x="572.503" y="1001.88" width="195.497" height="195.497"/>
            </clipPath>
            <g clip-path="url(#_clip1)">
                <g transform="matrix(1,0,0,0.166667,0,834.9)">
                    <rect x="572.503" y="1001.88" width="195.497" height="195.497" style="fill:rgb(244,119,147);"/>
                </g>
                <g transform="matrix(1,0,0,0.166667,9.09495e-13,867.483)">
                    <rect x="572.503" y="1001.88" width="195.497" height="195.497" style="fill:rgb(242,164,186);"/>
                </g>
                <g transform="matrix(1,0,0,0.166667,9.09495e-13,900.066)">
                    <rect x="572.503" y="1001.88" width="195.497" height="195.497" style="fill:rgb(206,206,206);"/>
                </g>
                <g transform="matrix(1,0,0,0.166667,0,932.649)">
                    <rect x="572.503" y="1001.88" width="195.497" height="195.497" style="fill:rgb(123,224,247);"/>
                </g>
                <g transform="matrix(1,0,0,0.166667,-1.3074e-12,965.232)">
                    <rect x="572.503" y="1001.88" width="195.497" height="195.497" style="fill:rgb(96,199,242);"/>
                </g>
                <g transform="matrix(1,0,0,0.166667,1.59162e-12,997.814)">
                    <rect x="572.503" y="1001.88" width="195.497" height="195.497" style="fill:rgb(255,245,144);"/>
                </g>
            </g>
        </g>
    </g>
</svg>
