<?xml version="1.0" encoding="UTF-8" standalone="no"?>
<!DOCTYPE svg PUBLIC "-//W3C//DTD SVG 1.1//EN" "http://www.w3.org/Graphics/SVG/1.1/DTD/svg11.dtd">
<svg width="100%" height="100%" viewBox="0 0 2048 1366" version="1.1" xmlns="http://www.w3.org/2000/svg" xmlns:xlink="http://www.w3.org/1999/xlink" xml:space="preserve" xmlns:serif="http://www.serif.com/" style="fill-rule:evenodd;clip-rule:evenodd;stroke-linejoin:round;stroke-miterlimit:2;">
    <g transform="matrix(1,0,0,1,-1.81899e-12,-341.333)">
        <g id="Genderfuck">
            <g id="Genderfuck1" serif:id="Genderfuck" transform="matrix(10.1406,0,0,6.76042,-5772.78,-6409.96)">
                <rect x="572.503" y="1001.88" width="195.497" height="195.497" style="fill:rgb(157,105,161);"/>
                <g transform="matrix(0.0986132,0,0,0.14792,569.272,948.159)">
                    <path d="M868.278,1471.79C683.058,1407.29 550,1231.06 550,1024C550,997.682 552.149,971.863 556.284,946.698C594.151,999.539 656.083,1034 726,1034C841.166,1034 934.667,940.5 934.667,825.333C934.667,726.302 865.53,643.291 772.927,621.974C845.731,576.376 931.809,550 1024,550C1116.19,550 1202.27,576.376 1275.07,621.974C1182.47,643.291 1113.33,726.302 1113.33,825.333C1113.33,940.5 1206.83,1034 1322,1034C1391.92,1034 1453.85,999.539 1491.72,946.698C1495.85,971.863 1498,997.682 1498,1024C1498,1231.06 1364.94,1407.29 1179.72,1471.79C1179.74,1470.64 1179.75,1469.49 1179.75,1468.33C1179.75,1426.61 1169.33,1392.73 1156.5,1392.73C1143.67,1392.73 1133.25,1426.61 1133.25,1468.33C1133.25,1474.12 1133.45,1479.77 1133.83,1485.19C1105.12,1492.01 1075.41,1496.22 1044.94,1497.54C1046.11,1488.56 1046.75,1478.69 1046.75,1468.33C1046.75,1426.61 1036.33,1392.73 1023.5,1392.73C1010.67,1392.73 1000.25,1426.61 1000.25,1468.33C1000.25,1478.67 1000.89,1488.52 1002.05,1497.5C971.928,1496.12 942.537,1491.93 914.166,1485.19C914.546,1479.77 914.747,1474.12 914.747,1468.33C914.747,1426.61 904.33,1392.73 891.5,1392.73C878.67,1392.73 868.253,1426.61 868.253,1468.33C868.253,1469.49 868.261,1470.64 868.278,1471.79Z" style="fill:rgb(255,248,198);"/>
                </g>
            </g>
            <g transform="matrix(10.4759,0,0,6.98392,-5997.47,-6655.72)">
                <path d="M768,1001.88L572.503,1001.88L572.503,1197.38L768,1197.38L768,1001.88ZM758.454,1016.2L758.454,1183.06C758.454,1183.06 582.049,1183.06 582.049,1183.06C582.049,1183.06 582.049,1016.2 582.049,1016.2C582.049,1016.2 758.454,1016.2 758.454,1016.2L758.454,1016.2Z" style="fill:rgb(255,248,198);"/>
            </g>
        </g>
    </g>
</svg>
