<?xml version="1.0" encoding="UTF-8" standalone="no"?>
<!DOCTYPE svg PUBLIC "-//W3C//DTD SVG 1.1//EN" "http://www.w3.org/Graphics/SVG/1.1/DTD/svg11.dtd">
<svg width="100%" height="100%" viewBox="0 0 2048 1366" version="1.1" xmlns="http://www.w3.org/2000/svg" xmlns:xlink="http://www.w3.org/1999/xlink" xml:space="preserve" xmlns:serif="http://www.serif.com/" style="fill-rule:evenodd;clip-rule:evenodd;stroke-linejoin:round;stroke-miterlimit:2;">
    <g transform="matrix(1,0,0,1,0,-341.333)">
        <g id="Polyarmory" transform="matrix(10.4759,0,0,6.98392,-5997.47,-6655.72)">
            <rect x="572.503" y="1001.88" width="195.497" height="195.497"/>
            <clipPath id="_clip1">
                <rect x="572.503" y="1001.88" width="195.497" height="195.497"/>
            </clipPath>
            <g clip-path="url(#_clip1)">
                <g transform="matrix(1,0,0,0.333333,9.09495e-13,733.086)">
                    <rect x="572.503" y="1001.88" width="195.497" height="195.497" style="fill:rgb(212,27,31);"/>
                </g>
                <g transform="matrix(1,0,0,0.333333,9.09495e-13,667.92)">
                    <rect x="572.503" y="1001.88" width="195.497" height="195.497" style="fill:rgb(38,83,211);"/>
                </g>
                <g transform="matrix(0.220881,0,0,0.331322,487.861,758.527)">
                    <g transform="matrix(288,0,0,288,737.778,1103.07)">
                        <path d="M0.584,-0.509C0.573,-0.484 0.561,-0.46 0.548,-0.438C0.536,-0.415 0.527,-0.403 0.521,-0.401L0.414,-0.401C0.411,-0.378 0.408,-0.348 0.406,-0.311C0.404,-0.273 0.403,-0.237 0.403,-0.202C0.403,-0.159 0.408,-0.127 0.417,-0.104C0.427,-0.08 0.442,-0.069 0.462,-0.069C0.479,-0.069 0.492,-0.076 0.502,-0.09C0.512,-0.104 0.518,-0.128 0.52,-0.16L0.554,-0.16C0.552,-0.126 0.548,-0.099 0.541,-0.077C0.534,-0.055 0.525,-0.038 0.514,-0.025C0.504,-0.013 0.493,-0.004 0.48,0.001C0.467,0.007 0.454,0.01 0.44,0.01C0.419,0.01 0.402,0.005 0.389,-0.004C0.376,-0.013 0.366,-0.025 0.357,-0.04C0.35,-0.055 0.344,-0.072 0.341,-0.09C0.338,-0.108 0.337,-0.127 0.337,-0.145C0.337,-0.181 0.339,-0.222 0.343,-0.269C0.347,-0.317 0.351,-0.361 0.355,-0.401L0.241,-0.401C0.237,-0.346 0.233,-0.298 0.228,-0.256C0.224,-0.214 0.217,-0.176 0.21,-0.142C0.196,-0.079 0.184,-0.038 0.172,-0.019C0.161,0.001 0.143,0.011 0.121,0.011C0.107,0.011 0.096,0.007 0.088,-0.002C0.08,-0.01 0.076,-0.021 0.076,-0.033C0.076,-0.043 0.077,-0.052 0.081,-0.059C0.085,-0.067 0.09,-0.074 0.097,-0.08C0.103,-0.085 0.109,-0.09 0.117,-0.093C0.125,-0.096 0.131,-0.099 0.135,-0.102C0.152,-0.124 0.166,-0.163 0.176,-0.219C0.185,-0.275 0.193,-0.335 0.197,-0.401L0.19,-0.401C0.165,-0.401 0.144,-0.397 0.127,-0.389C0.111,-0.381 0.097,-0.37 0.087,-0.357C0.078,-0.344 0.071,-0.33 0.067,-0.314C0.063,-0.298 0.061,-0.283 0.06,-0.269L0.033,-0.269C0.031,-0.276 0.03,-0.285 0.029,-0.294C0.027,-0.303 0.026,-0.314 0.026,-0.327C0.026,-0.347 0.03,-0.367 0.037,-0.385C0.044,-0.403 0.056,-0.419 0.071,-0.434C0.085,-0.448 0.105,-0.459 0.129,-0.468C0.153,-0.477 0.181,-0.481 0.211,-0.481L0.453,-0.481C0.48,-0.481 0.502,-0.483 0.518,-0.487C0.535,-0.49 0.548,-0.502 0.559,-0.521L0.584,-0.509Z" style="fill:rgb(255,214,2);fill-rule:nonzero;"/>
                    </g>
                </g>
            </g>
        </g>
    </g>
</svg>
