<?xml version="1.0" encoding="UTF-8" standalone="no"?>
<!DOCTYPE svg PUBLIC "-//W3C//DTD SVG 1.1//EN" "http://www.w3.org/Graphics/SVG/1.1/DTD/svg11.dtd">
<svg width="100%" height="100%" viewBox="0 0 2048 1366" version="1.1" xmlns="http://www.w3.org/2000/svg" xmlns:xlink="http://www.w3.org/1999/xlink" xml:space="preserve" xmlns:serif="http://www.serif.com/" style="fill-rule:evenodd;clip-rule:evenodd;stroke-linejoin:round;stroke-miterlimit:2;">
    <g transform="matrix(1,0,0,1,9.09495e-12,-341.333)">
        <g id="Lesbian5" transform="matrix(10.4759,0,0,6.98392,-5997.47,-6655.72)">
            <g transform="matrix(1,0,0,0.2,0,840.604)">
                <rect x="572.503" y="1001.88" width="195.497" height="195.497" style="fill:rgb(243,150,83);"/>
            </g>
            <g transform="matrix(1,0,0,0.2,1.53477e-12,801.504)">
                <rect x="572.503" y="1001.88" width="195.497" height="195.497" style="fill:rgb(216,48,9);"/>
            </g>
            <g transform="matrix(1,0,0,0.2,0,879.703)">
                <rect x="572.503" y="1001.88" width="195.497" height="195.497" style="fill:white;"/>
            </g>
            <g transform="matrix(1,0,0,0.2,-9.09495e-13,918.803)">
                <rect x="572.503" y="1001.88" width="195.497" height="195.497" style="fill:rgb(208,99,164);"/>
            </g>
            <g transform="matrix(1,0,0,0.2,1.59162e-12,957.902)">
                <rect x="572.503" y="1001.88" width="195.497" height="195.497" style="fill:rgb(164,6,99);"/>
            </g>
        </g>
    </g>
</svg>
