<?xml version="1.0" encoding="UTF-8" standalone="no"?>
<!DOCTYPE svg PUBLIC "-//W3C//DTD SVG 1.1//EN" "http://www.w3.org/Graphics/SVG/1.1/DTD/svg11.dtd">
<svg width="100%" height="100%" viewBox="0 0 2048 1366" version="1.1" xmlns="http://www.w3.org/2000/svg" xmlns:xlink="http://www.w3.org/1999/xlink" xml:space="preserve" xmlns:serif="http://www.serif.com/" style="fill-rule:evenodd;clip-rule:evenodd;stroke-linejoin:round;stroke-miterlimit:2;">
    <g transform="matrix(1,0,0,1,0,-341.333)">
        <g id="Toric" transform="matrix(10.4759,0,0,6.98392,-5997.47,-6655.72)">
            <rect x="572.503" y="1001.88" width="195.497" height="195.497" style="fill:rgb(61,222,197);"/>
            <clipPath id="_clip1">
                <rect x="572.503" y="1001.88" width="195.497" height="195.497"/>
            </clipPath>
            <g clip-path="url(#_clip1)">
                <g transform="matrix(1,0,0,0.333333,9.09495e-13,733.086)">
                    <rect x="572.503" y="1001.88" width="195.497" height="195.497" style="fill:white;"/>
                </g>
                <g id="flower" transform="matrix(0.0954574,0,0,0.143186,572.503,953.006)">
                    <g transform="matrix(0.817306,0,0,0.817306,189.211,178.037)">
                        <circle cx="1021.39" cy="1056.61" r="32.614" style="fill:rgb(145,218,205);"/>
                    </g>
                    <g transform="matrix(0.577809,0,0,0.577809,433.831,431.093)">
                        <circle cx="1021.39" cy="1056.61" r="32.614" style="fill:rgb(172,255,249);"/>
                    </g>
                </g>
                <g id="Layer2" transform="matrix(0.0954574,0,0,0.143186,572.503,953.006)">
                    <path d="M1024.27,997.162C1023.31,997.113 1015.58,996.644 1012.7,994.167C1000.27,983.461 995.222,965.502 983.033,955.167C958.57,934.423 937.958,919.929 949.7,887.5C952.276,890.813 956.124,892.854 961.367,893.5C956.421,878.037 957.312,864.519 965.7,853.5C967.117,858.667 969.506,861.889 972.7,863.5C972.16,847.947 976.442,834.489 996.367,827.833C996.676,834.578 1001.06,841.977 1006.7,847.833C1005.79,834.013 1010.49,821.536 1024.37,815.167L1024.69,815.317C1038.32,821.731 1042.93,834.121 1042.03,847.833C1047.68,841.977 1052.06,834.578 1052.37,827.833C1072.29,834.489 1076.57,847.947 1076.03,863.5C1079.23,861.889 1081.62,858.667 1083.03,853.5C1091.42,864.519 1092.31,878.037 1087.37,893.5C1092.61,892.854 1096.46,890.813 1099.03,887.5C1110.78,919.929 1090.16,934.423 1065.7,955.167C1053.51,965.502 1048.47,983.461 1036.03,994.167C1032.96,996.809 1024.37,997.167 1024.37,997.167L1024.27,997.162Z" style="fill:rgb(237,176,190);"/>
                    <clipPath id="_clip2">
                        <path d="M1024.27,997.162C1023.31,997.113 1015.58,996.644 1012.7,994.167C1000.27,983.461 995.222,965.502 983.033,955.167C958.57,934.423 937.958,919.929 949.7,887.5C952.276,890.813 956.124,892.854 961.367,893.5C956.421,878.037 957.312,864.519 965.7,853.5C967.117,858.667 969.506,861.889 972.7,863.5C972.16,847.947 976.442,834.489 996.367,827.833C996.676,834.578 1001.06,841.977 1006.7,847.833C1005.79,834.013 1010.49,821.536 1024.37,815.167L1024.69,815.317C1038.32,821.731 1042.93,834.121 1042.03,847.833C1047.68,841.977 1052.06,834.578 1052.37,827.833C1072.29,834.489 1076.57,847.947 1076.03,863.5C1079.23,861.889 1081.62,858.667 1083.03,853.5C1091.42,864.519 1092.31,878.037 1087.37,893.5C1092.61,892.854 1096.46,890.813 1099.03,887.5C1110.78,919.929 1090.16,934.423 1065.7,955.167C1053.51,965.502 1048.47,983.461 1036.03,994.167C1032.96,996.809 1024.37,997.167 1024.37,997.167L1024.27,997.162Z"/>
                    </clipPath>
                    <g clip-path="url(#_clip2)">
                        <path d="M1024.28,998.163C1023.44,998.12 1014.68,996.682 1012.14,994.536C995.632,980.614 998.808,971.799 988.12,960.335C968.938,939.763 959.525,928.634 959.155,904.195C961.414,907.1 975.455,909.157 983.786,907.857C979.982,900.963 975.43,891.242 977.986,879.179C979.228,883.71 986.657,886.269 992.391,888.215C989.785,879.109 986.873,861.708 992.879,853.471C994.483,860.986 1006.79,868.208 1013.34,870.41C1012.54,858.29 1014.86,845.815 1024.37,837.563L1024.59,837.757C1033.91,846.01 1036.18,858.385 1035.39,870.41C1041.94,868.208 1054.25,860.986 1055.85,853.471C1061.86,861.708 1058.95,879.109 1056.34,888.215C1062.08,886.269 1069.51,883.71 1070.75,879.179C1073.3,891.242 1068.75,900.963 1064.95,907.857C1073.28,909.157 1087.32,907.1 1089.58,904.195C1089.21,928.634 1080.29,940.235 1060.61,960.335C1049.39,971.799 1051.77,984.347 1036.6,994.536C1033.65,996.516 1024.37,998.167 1024.37,998.167L1024.28,998.163Z" style="fill:rgb(216,94,144);"/>
                    </g>
                    <g transform="matrix(0.304823,0.952409,-0.952409,0.304823,1693.56,-251.895)">
                        <path d="M1024.27,997.162C1023.31,997.113 1015.58,996.644 1012.7,994.167C1000.27,983.461 995.222,965.502 983.033,955.167C958.57,934.423 937.958,919.929 949.7,887.5C952.276,890.813 956.124,892.854 961.367,893.5C956.421,878.037 957.312,864.519 965.7,853.5C967.117,858.667 969.506,861.889 972.7,863.5C972.16,847.947 976.442,834.489 996.367,827.833C996.676,834.578 1001.06,841.977 1006.7,847.833C1005.79,834.013 1010.49,821.536 1024.37,815.167L1024.69,815.317C1038.32,821.731 1042.93,834.121 1042.03,847.833C1047.68,841.977 1052.06,834.578 1052.37,827.833C1072.29,834.489 1076.57,847.947 1076.03,863.5C1079.23,861.889 1081.62,858.667 1083.03,853.5C1091.42,864.519 1092.31,878.037 1087.37,893.5C1092.61,892.854 1096.46,890.813 1099.03,887.5C1110.78,919.929 1090.16,934.423 1065.7,955.167C1053.51,965.502 1048.47,983.461 1036.03,994.167C1032.96,996.809 1024.37,997.167 1024.37,997.167L1024.27,997.162Z" style="fill:rgb(237,176,190);"/>
                        <clipPath id="_clip3">
                            <path d="M1024.27,997.162C1023.31,997.113 1015.58,996.644 1012.7,994.167C1000.27,983.461 995.222,965.502 983.033,955.167C958.57,934.423 937.958,919.929 949.7,887.5C952.276,890.813 956.124,892.854 961.367,893.5C956.421,878.037 957.312,864.519 965.7,853.5C967.117,858.667 969.506,861.889 972.7,863.5C972.16,847.947 976.442,834.489 996.367,827.833C996.676,834.578 1001.06,841.977 1006.7,847.833C1005.79,834.013 1010.49,821.536 1024.37,815.167L1024.69,815.317C1038.32,821.731 1042.93,834.121 1042.03,847.833C1047.68,841.977 1052.06,834.578 1052.37,827.833C1072.29,834.489 1076.57,847.947 1076.03,863.5C1079.23,861.889 1081.62,858.667 1083.03,853.5C1091.42,864.519 1092.31,878.037 1087.37,893.5C1092.61,892.854 1096.46,890.813 1099.03,887.5C1110.78,919.929 1090.16,934.423 1065.7,955.167C1053.51,965.502 1048.47,983.461 1036.03,994.167C1032.96,996.809 1024.37,997.167 1024.37,997.167L1024.27,997.162Z"/>
                        </clipPath>
                        <g clip-path="url(#_clip3)">
                            <path d="M1024.28,998.163C1023.44,998.12 1014.68,996.682 1012.14,994.536C995.632,980.614 998.808,971.799 988.12,960.335C968.938,939.763 959.525,928.634 959.155,904.195C961.414,907.1 975.455,909.157 983.786,907.857C979.982,900.963 975.43,891.242 977.986,879.179C979.228,883.71 986.657,886.269 992.391,888.215C989.785,879.109 986.873,861.708 992.879,853.471C994.483,860.986 1006.79,868.208 1013.34,870.41C1012.54,858.29 1014.86,845.815 1024.37,837.563L1024.59,837.757C1033.91,846.01 1036.18,858.385 1035.39,870.41C1041.94,868.208 1054.25,860.986 1055.85,853.471C1061.86,861.708 1058.95,879.109 1056.34,888.215C1062.08,886.269 1069.51,883.71 1070.75,879.179C1073.3,891.242 1068.75,900.963 1064.95,907.857C1073.28,909.157 1087.32,907.1 1089.58,904.195C1089.21,928.634 1080.29,940.235 1060.61,960.335C1049.39,971.799 1051.77,984.347 1036.6,994.536C1033.65,996.516 1024.37,998.167 1024.37,998.167L1024.28,998.163Z" style="fill:rgb(216,94,144);"/>
                        </g>
                    </g>
                    <g transform="matrix(-0.755395,0.655269,-0.655269,-0.755395,2471.58,1157)">
                        <path d="M1024.27,997.162C1023.31,997.113 1015.58,996.644 1012.7,994.167C1000.27,983.461 995.222,965.502 983.033,955.167C958.57,934.423 937.958,919.929 949.7,887.5C952.276,890.813 956.124,892.854 961.367,893.5C956.421,878.037 957.312,864.519 965.7,853.5C967.117,858.667 969.506,861.889 972.7,863.5C972.16,847.947 976.442,834.489 996.367,827.833C996.676,834.578 1001.06,841.977 1006.7,847.833C1005.79,834.013 1010.49,821.536 1024.37,815.167L1024.69,815.317C1038.32,821.731 1042.93,834.121 1042.03,847.833C1047.68,841.977 1052.06,834.578 1052.37,827.833C1072.29,834.489 1076.57,847.947 1076.03,863.5C1079.23,861.889 1081.62,858.667 1083.03,853.5C1091.42,864.519 1092.31,878.037 1087.37,893.5C1092.61,892.854 1096.46,890.813 1099.03,887.5C1110.78,919.929 1090.16,934.423 1065.7,955.167C1053.51,965.502 1048.47,983.461 1036.03,994.167C1032.96,996.809 1024.37,997.167 1024.37,997.167L1024.27,997.162Z" style="fill:rgb(237,176,190);"/>
                        <clipPath id="_clip4">
                            <path d="M1024.27,997.162C1023.31,997.113 1015.58,996.644 1012.7,994.167C1000.27,983.461 995.222,965.502 983.033,955.167C958.57,934.423 937.958,919.929 949.7,887.5C952.276,890.813 956.124,892.854 961.367,893.5C956.421,878.037 957.312,864.519 965.7,853.5C967.117,858.667 969.506,861.889 972.7,863.5C972.16,847.947 976.442,834.489 996.367,827.833C996.676,834.578 1001.06,841.977 1006.7,847.833C1005.79,834.013 1010.49,821.536 1024.37,815.167L1024.69,815.317C1038.32,821.731 1042.93,834.121 1042.03,847.833C1047.68,841.977 1052.06,834.578 1052.37,827.833C1072.29,834.489 1076.57,847.947 1076.03,863.5C1079.23,861.889 1081.62,858.667 1083.03,853.5C1091.42,864.519 1092.31,878.037 1087.37,893.5C1092.61,892.854 1096.46,890.813 1099.03,887.5C1110.78,919.929 1090.16,934.423 1065.7,955.167C1053.51,965.502 1048.47,983.461 1036.03,994.167C1032.96,996.809 1024.37,997.167 1024.37,997.167L1024.27,997.162Z"/>
                        </clipPath>
                        <g clip-path="url(#_clip4)">
                            <path d="M1024.28,998.163C1023.44,998.12 1014.68,996.682 1012.14,994.536C995.632,980.614 998.808,971.799 988.12,960.335C968.938,939.763 959.525,928.634 959.155,904.195C961.414,907.1 975.455,909.157 983.786,907.857C979.982,900.963 975.43,891.242 977.986,879.179C979.228,883.71 986.657,886.269 992.391,888.215C989.785,879.109 986.873,861.708 992.879,853.471C994.483,860.986 1006.79,868.208 1013.34,870.41C1012.54,858.29 1014.86,845.815 1024.37,837.563L1024.59,837.757C1033.91,846.01 1036.18,858.385 1035.39,870.41C1041.94,868.208 1054.25,860.986 1055.85,853.471C1061.86,861.708 1058.95,879.109 1056.34,888.215C1062.08,886.269 1069.51,883.71 1070.75,879.179C1073.3,891.242 1068.75,900.963 1064.95,907.857C1073.28,909.157 1087.32,907.1 1089.58,904.195C1089.21,928.634 1080.29,940.235 1060.61,960.335C1049.39,971.799 1051.77,984.347 1036.6,994.536C1033.65,996.516 1024.37,998.167 1024.37,998.167L1024.28,998.163Z" style="fill:rgb(216,94,144);"/>
                        </g>
                    </g>
                    <g transform="matrix(-0.304823,0.952409,0.952409,0.304823,355.17,-251.895)">
                        <path d="M1024.27,997.162C1023.31,997.113 1015.58,996.644 1012.7,994.167C1000.27,983.461 995.222,965.502 983.033,955.167C958.57,934.423 937.958,919.929 949.7,887.5C952.276,890.813 956.124,892.854 961.367,893.5C956.421,878.037 957.312,864.519 965.7,853.5C967.117,858.667 969.506,861.889 972.7,863.5C972.16,847.947 976.442,834.489 996.367,827.833C996.676,834.578 1001.06,841.977 1006.7,847.833C1005.79,834.013 1010.49,821.536 1024.37,815.167L1024.69,815.317C1038.32,821.731 1042.93,834.121 1042.03,847.833C1047.68,841.977 1052.06,834.578 1052.37,827.833C1072.29,834.489 1076.57,847.947 1076.03,863.5C1079.23,861.889 1081.62,858.667 1083.03,853.5C1091.42,864.519 1092.31,878.037 1087.37,893.5C1092.61,892.854 1096.46,890.813 1099.03,887.5C1110.78,919.929 1090.16,934.423 1065.7,955.167C1053.51,965.502 1048.47,983.461 1036.03,994.167C1032.96,996.809 1024.37,997.167 1024.37,997.167L1024.27,997.162Z" style="fill:rgb(237,176,190);"/>
                        <clipPath id="_clip5">
                            <path d="M1024.27,997.162C1023.31,997.113 1015.58,996.644 1012.7,994.167C1000.27,983.461 995.222,965.502 983.033,955.167C958.57,934.423 937.958,919.929 949.7,887.5C952.276,890.813 956.124,892.854 961.367,893.5C956.421,878.037 957.312,864.519 965.7,853.5C967.117,858.667 969.506,861.889 972.7,863.5C972.16,847.947 976.442,834.489 996.367,827.833C996.676,834.578 1001.06,841.977 1006.7,847.833C1005.79,834.013 1010.49,821.536 1024.37,815.167L1024.69,815.317C1038.32,821.731 1042.93,834.121 1042.03,847.833C1047.68,841.977 1052.06,834.578 1052.37,827.833C1072.29,834.489 1076.57,847.947 1076.03,863.5C1079.23,861.889 1081.62,858.667 1083.03,853.5C1091.42,864.519 1092.31,878.037 1087.37,893.5C1092.61,892.854 1096.46,890.813 1099.03,887.5C1110.78,919.929 1090.16,934.423 1065.7,955.167C1053.51,965.502 1048.47,983.461 1036.03,994.167C1032.96,996.809 1024.37,997.167 1024.37,997.167L1024.27,997.162Z"/>
                        </clipPath>
                        <g clip-path="url(#_clip5)">
                            <path d="M1024.28,998.163C1023.44,998.12 1014.68,996.682 1012.14,994.536C995.632,980.614 998.808,971.799 988.12,960.335C968.938,939.763 959.525,928.634 959.155,904.195C961.414,907.1 975.455,909.157 983.786,907.857C979.982,900.963 975.43,891.242 977.986,879.179C979.228,883.71 986.657,886.269 992.391,888.215C989.785,879.109 986.873,861.708 992.879,853.471C994.483,860.986 1006.79,868.208 1013.34,870.41C1012.54,858.29 1014.86,845.815 1024.37,837.563L1024.59,837.757C1033.91,846.01 1036.18,858.385 1035.39,870.41C1041.94,868.208 1054.25,860.986 1055.85,853.471C1061.86,861.708 1058.95,879.109 1056.34,888.215C1062.08,886.269 1069.51,883.71 1070.75,879.179C1073.3,891.242 1068.75,900.963 1064.95,907.857C1073.28,909.157 1087.32,907.1 1089.58,904.195C1089.21,928.634 1080.29,940.235 1060.61,960.335C1049.39,971.799 1051.77,984.347 1036.6,994.536C1033.65,996.516 1024.37,998.167 1024.37,998.167L1024.28,998.163Z" style="fill:rgb(216,94,144);"/>
                        </g>
                    </g>
                    <g transform="matrix(0.755395,0.655269,0.655269,-0.755395,-422.85,1157)">
                        <path d="M1024.27,997.162C1023.31,997.113 1015.58,996.644 1012.7,994.167C1000.27,983.461 995.222,965.502 983.033,955.167C958.57,934.423 937.958,919.929 949.7,887.5C952.276,890.813 956.124,892.854 961.367,893.5C956.421,878.037 957.312,864.519 965.7,853.5C967.117,858.667 969.506,861.889 972.7,863.5C972.16,847.947 976.442,834.489 996.367,827.833C996.676,834.578 1001.06,841.977 1006.7,847.833C1005.79,834.013 1010.49,821.536 1024.37,815.167L1024.69,815.317C1038.32,821.731 1042.93,834.121 1042.03,847.833C1047.68,841.977 1052.06,834.578 1052.37,827.833C1072.29,834.489 1076.57,847.947 1076.03,863.5C1079.23,861.889 1081.62,858.667 1083.03,853.5C1091.42,864.519 1092.31,878.037 1087.37,893.5C1092.61,892.854 1096.46,890.813 1099.03,887.5C1110.78,919.929 1090.16,934.423 1065.7,955.167C1053.51,965.502 1048.47,983.461 1036.03,994.167C1032.96,996.809 1024.37,997.167 1024.37,997.167L1024.27,997.162Z" style="fill:rgb(237,176,190);"/>
                        <clipPath id="_clip6">
                            <path d="M1024.27,997.162C1023.31,997.113 1015.58,996.644 1012.7,994.167C1000.27,983.461 995.222,965.502 983.033,955.167C958.57,934.423 937.958,919.929 949.7,887.5C952.276,890.813 956.124,892.854 961.367,893.5C956.421,878.037 957.312,864.519 965.7,853.5C967.117,858.667 969.506,861.889 972.7,863.5C972.16,847.947 976.442,834.489 996.367,827.833C996.676,834.578 1001.06,841.977 1006.7,847.833C1005.79,834.013 1010.49,821.536 1024.37,815.167L1024.69,815.317C1038.32,821.731 1042.93,834.121 1042.03,847.833C1047.68,841.977 1052.06,834.578 1052.37,827.833C1072.29,834.489 1076.57,847.947 1076.03,863.5C1079.23,861.889 1081.62,858.667 1083.03,853.5C1091.42,864.519 1092.31,878.037 1087.37,893.5C1092.61,892.854 1096.46,890.813 1099.03,887.5C1110.78,919.929 1090.16,934.423 1065.7,955.167C1053.51,965.502 1048.47,983.461 1036.03,994.167C1032.96,996.809 1024.37,997.167 1024.37,997.167L1024.27,997.162Z"/>
                        </clipPath>
                        <g clip-path="url(#_clip6)">
                            <path d="M1024.28,998.163C1023.44,998.12 1014.68,996.682 1012.14,994.536C995.632,980.614 998.808,971.799 988.12,960.335C968.938,939.763 959.525,928.634 959.155,904.195C961.414,907.1 975.455,909.157 983.786,907.857C979.982,900.963 975.43,891.242 977.986,879.179C979.228,883.71 986.657,886.269 992.391,888.215C989.785,879.109 986.873,861.708 992.879,853.471C994.483,860.986 1006.79,868.208 1013.34,870.41C1012.54,858.29 1014.86,845.815 1024.37,837.563L1024.59,837.757C1033.91,846.01 1036.18,858.385 1035.39,870.41C1041.94,868.208 1054.25,860.986 1055.85,853.471C1061.86,861.708 1058.95,879.109 1056.34,888.215C1062.08,886.269 1069.51,883.71 1070.75,879.179C1073.3,891.242 1068.75,900.963 1064.95,907.857C1073.28,909.157 1087.32,907.1 1089.58,904.195C1089.21,928.634 1080.29,940.235 1060.61,960.335C1049.39,971.799 1051.77,984.347 1036.6,994.536C1033.65,996.516 1024.37,998.167 1024.37,998.167L1024.28,998.163Z" style="fill:rgb(216,94,144);"/>
                        </g>
                    </g>
                </g>
            </g>
        </g>
    </g>
</svg>
