<?xml version="1.0" encoding="UTF-8" standalone="no"?>
<!DOCTYPE svg PUBLIC "-//W3C//DTD SVG 1.1//EN" "http://www.w3.org/Graphics/SVG/1.1/DTD/svg11.dtd">
<svg width="100%" height="100%" viewBox="0 0 2048 1366" version="1.1" xmlns="http://www.w3.org/2000/svg" xmlns:xlink="http://www.w3.org/1999/xlink" xml:space="preserve" xmlns:serif="http://www.serif.com/" style="fill-rule:evenodd;clip-rule:evenodd;stroke-linejoin:round;stroke-miterlimit:2;">
    <g transform="matrix(1,0,0,1,0,-341.333)">
        <g id="RainbowBIPOC" transform="matrix(10.4759,0,0,6.98392,-5997.47,-6655.72)">
            <rect x="572.503" y="1001.88" width="195.497" height="195.497" style="fill:rgb(192,34,37);"/>
            <clipPath id="_clip1">
                <rect x="572.503" y="1001.88" width="195.497" height="195.497"/>
            </clipPath>
            <g clip-path="url(#_clip1)">
                <g transform="matrix(1,0,0,0.12598,9.09495e-13,948.017)">
                    <rect x="572.503" y="1001.88" width="195.497" height="195.497" style="fill:rgb(242,134,35);"/>
                </g>
                <g transform="matrix(1,0,0,0.12598,-1.25056e-12,923.388)">
                    <rect x="572.503" y="1001.88" width="195.497" height="195.497" style="fill:rgb(192,34,37);"/>
                </g>
                <g transform="matrix(1,0,0,0.12206,9.09495e-13,903.453)">
                    <rect x="572.503" y="1001.88" width="195.497" height="195.497" style="fill:rgb(125,59,20);"/>
                </g>
                <g transform="matrix(1,0,0,0.12206,9.09495e-13,879.591)">
                    <rect x="572.503" y="1001.88" width="195.497" height="195.497"/>
                </g>
                <g transform="matrix(1,0,0,0.12598,9.09495e-13,972.646)">
                    <rect x="572.503" y="1001.88" width="195.497" height="195.497" style="fill:rgb(255,214,2);"/>
                </g>
                <g transform="matrix(1,0,0,0.12598,0,997.274)">
                    <rect x="572.503" y="1001.88" width="195.497" height="195.497" style="fill:rgb(90,156,59);"/>
                </g>
                <g transform="matrix(1,0,0,0.12598,-1.3074e-12,1021.9)">
                    <rect x="572.503" y="1001.88" width="195.497" height="195.497" style="fill:rgb(52,83,171);"/>
                </g>
                <g transform="matrix(1,0,0,0.12598,-1.3074e-12,1046.53)">
                    <rect x="572.503" y="1001.88" width="195.497" height="195.497" style="fill:rgb(112,30,132);"/>
                </g>
            </g>
        </g>
    </g>
</svg>
