<?xml version="1.0" encoding="UTF-8" standalone="no"?>
<!DOCTYPE svg PUBLIC "-//W3C//DTD SVG 1.1//EN" "http://www.w3.org/Graphics/SVG/1.1/DTD/svg11.dtd">
<svg width="100%" height="100%" viewBox="0 0 2048 1366" version="1.1" xmlns="http://www.w3.org/2000/svg" xmlns:xlink="http://www.w3.org/1999/xlink" xml:space="preserve" xmlns:serif="http://www.serif.com/" style="fill-rule:evenodd;clip-rule:evenodd;stroke-linejoin:round;stroke-miterlimit:2;">
    <g transform="matrix(1,0,0,1,0,-341.333)">
        <g id="Trixic" transform="matrix(10.4759,0,0,6.98392,-5997.47,-6655.72)">
            <rect x="572.503" y="1001.88" width="195.497" height="195.497" style="fill:rgb(220,160,221);"/>
            <clipPath id="_clip1">
                <rect x="572.503" y="1001.88" width="195.497" height="195.497"/>
            </clipPath>
            <g clip-path="url(#_clip1)">
                <g transform="matrix(1,0,0,0.333333,9.09495e-13,733.086)">
                    <rect x="572.503" y="1001.88" width="195.497" height="195.497" style="fill:white;"/>
                </g>
                <g id="violet" transform="matrix(0.0954574,0,0,0.143186,572.503,953.006)">
                    <g transform="matrix(-6.32138e-17,1.03236,-1,-6.12323e-17,2415.33,296.61)">
                        <path d="M679.818,1030.25C700.298,1091.12 728.087,1087.76 803.544,1127.45C867.99,1161.36 880.831,1256.87 886.401,1287.42C844.538,1212.08 759.438,1223.93 715.393,1183.45C639.132,1113.38 679.818,1030.25 679.818,1030.25Z" style="fill:rgb(130,206,130);"/>
                    </g>
                    <g transform="matrix(-6.32138e-17,1.03236,-1,-6.12323e-17,2475.33,128.61)">
                        <path d="M801.868,1179.25C727.42,1245.12 796.558,1322.87 886.401,1287.42C806.687,1269.42 814.382,1189.59 801.868,1179.25Z" style="fill:rgb(183,227,181);"/>
                    </g>
                    <g transform="matrix(6.32138e-17,1.03236,1,-6.12323e-17,-367.333,296.61)">
                        <path d="M679.818,1030.25C700.298,1091.12 728.087,1087.76 803.544,1127.45C867.99,1161.36 880.831,1256.87 886.401,1287.42C844.538,1212.08 759.438,1223.93 715.393,1183.45C639.132,1113.38 679.818,1030.25 679.818,1030.25Z" style="fill:rgb(130,206,130);"/>
                    </g>
                    <g transform="matrix(6.32138e-17,1.03236,1,-6.12323e-17,-427.333,128.61)">
                        <path d="M801.868,1179.25C727.42,1245.12 796.558,1322.87 886.401,1287.42C806.687,1269.42 814.382,1189.59 801.868,1179.25Z" style="fill:rgb(183,227,181);"/>
                    </g>
                    <g transform="matrix(1,0,0,1,-1.52927,0)">
                        <path d="M1025.78,831.074C1026.35,831.046 1026.94,831.137 1027.55,831.35C1073.54,847.416 1090.53,893.4 1087.26,913.715C1087.24,913.765 1087.23,913.81 1087.23,913.851L1087.26,913.715C1088.41,909.717 1135.76,876.08 1190.1,895.427C1179.89,920.446 1130.61,926.152 1145.14,987.235C1179.32,1130.82 1111.59,1175.14 1027.55,1189.7L1024,1189.7C939.96,1175.14 872.231,1130.82 906.405,987.235C920.944,926.152 871.661,920.446 861.446,895.427C915.792,876.08 963.137,909.717 964.293,913.715L964.315,913.851C964.315,913.81 964.308,913.765 964.293,913.715C961.015,893.4 978.008,847.416 1024,831.35C1024.61,831.137 1025.2,831.046 1025.78,831.074Z" style="fill:rgb(255,192,202);"/>
                    </g>
                </g>
            </g>
        </g>
    </g>
</svg>
