<?xml version="1.0" encoding="UTF-8" standalone="no"?>
<!DOCTYPE svg PUBLIC "-//W3C//DTD SVG 1.1//EN" "http://www.w3.org/Graphics/SVG/1.1/DTD/svg11.dtd">
<svg width="100%" height="100%" viewBox="0 0 2048 1366" version="1.1" xmlns="http://www.w3.org/2000/svg" xmlns:xlink="http://www.w3.org/1999/xlink" xml:space="preserve" xmlns:serif="http://www.serif.com/" style="fill-rule:evenodd;clip-rule:evenodd;stroke-linejoin:round;stroke-miterlimit:2;">
    <g transform="matrix(1,0,0,1,0,-341.333)">
        <g id="Twink" transform="matrix(10.4759,0,0,6.98392,-5997.47,-6655.72)">
            <rect x="572.503" y="1001.88" width="195.497" height="195.497" style="fill:rgb(255,178,254);"/>
            <clipPath id="_clip1">
                <rect x="572.503" y="1001.88" width="195.497" height="195.497"/>
            </clipPath>
            <g clip-path="url(#_clip1)">
                <g transform="matrix(1,0,0,0.333333,9.09495e-13,733.086)">
                    <rect x="572.503" y="1001.88" width="195.497" height="195.497" style="fill:white;"/>
                </g>
                <g transform="matrix(1,0,0,0.333333,9.09495e-13,798.252)">
                    <rect x="572.503" y="1001.88" width="195.497" height="195.497" style="fill:rgb(255,250,128);"/>
                </g>
                <g transform="matrix(0.0954574,0,0,0.143186,518.322,958.611)">
                    <path d="M1674.4,975.404L1746.88,902.923L1704.75,903.209L1675.96,874.243L1800.57,873.882L1800.57,998.856L1771.61,970.068L1771.89,927.934L1699.21,1000.62C1713.89,1020.66 1722.56,1045.38 1722.56,1072.11C1722.56,1139.02 1668.24,1193.33 1601.33,1193.33C1534.43,1193.33 1480.11,1139.02 1480.11,1072.11C1480.11,1005.21 1534.43,950.889 1601.33,950.889C1628.76,950.889 1654.08,960.02 1674.4,975.404ZM1601.33,983.982C1649.97,983.982 1689.46,1023.47 1689.46,1072.11C1689.46,1120.75 1649.97,1160.24 1601.33,1160.24C1552.69,1160.24 1513.2,1120.75 1513.2,1072.11C1513.2,1023.47 1552.69,983.982 1601.33,983.982Z"/>
                </g>
                <g transform="matrix(0.0954574,0,0,0.143186,509.015,944.65)">
                    <path d="M1674.4,975.404L1746.88,902.923L1704.75,903.209L1675.96,874.243L1800.57,873.882L1800.57,998.856L1771.61,970.068L1771.89,927.934L1699.21,1000.62C1713.89,1020.66 1722.56,1045.38 1722.56,1072.11C1722.56,1139.02 1668.24,1193.33 1601.33,1193.33C1534.43,1193.33 1480.11,1139.02 1480.11,1072.11C1480.11,1005.21 1534.43,950.889 1601.33,950.889C1628.76,950.889 1654.08,960.02 1674.4,975.404ZM1601.33,983.982C1649.97,983.982 1689.46,1023.47 1689.46,1072.11C1689.46,1120.75 1649.97,1160.24 1601.33,1160.24C1552.69,1160.24 1513.2,1120.75 1513.2,1072.11C1513.2,1023.47 1552.69,983.982 1601.33,983.982Z"/>
                </g>
            </g>
        </g>
    </g>
</svg>
