<?xml version="1.0" encoding="UTF-8" standalone="no"?>
<!DOCTYPE svg PUBLIC "-//W3C//DTD SVG 1.1//EN" "http://www.w3.org/Graphics/SVG/1.1/DTD/svg11.dtd">
<svg width="100%" height="100%" viewBox="0 0 2048 1366" version="1.1" xmlns="http://www.w3.org/2000/svg" xmlns:xlink="http://www.w3.org/1999/xlink" xml:space="preserve" xmlns:serif="http://www.serif.com/" style="fill-rule:evenodd;clip-rule:evenodd;stroke-linejoin:round;stroke-miterlimit:2;">
    <g transform="matrix(1,0,0,1,0,-341.333)">
        <g id="Adonic" transform="matrix(10.4759,0,0,6.98392,-5997.47,-6655.72)">
            <rect x="572.503" y="1001.88" width="195.497" height="195.497" style="fill:rgb(169,244,221);"/>
            <clipPath id="_clip1">
                <rect x="572.503" y="1001.88" width="195.497" height="195.497"/>
            </clipPath>
            <g clip-path="url(#_clip1)">
                <g transform="matrix(1,0,0,0.333333,9.09495e-13,733.086)">
                    <rect x="572.503" y="1001.88" width="195.497" height="195.497" style="fill:white;"/>
                </g>
                <g id="tulip" transform="matrix(0.113135,0,0,0.169702,544.498,912.787)">
                    <g transform="matrix(1,0,0,1,132.469,59.9062)">
                        <path d="M680.34,1066.75C721.319,1212.34 838.224,1221.47 904.306,1218.42C843.099,1116.07 764.276,1063.26 680.34,1066.75Z" style="fill:rgb(134,193,85);"/>
                    </g>
                    <g transform="matrix(-1,0,0,1,2090.61,59.9062)">
                        <path d="M680.34,1066.75C721.319,1212.34 838.224,1221.47 904.306,1218.42C843.099,1116.07 764.276,1063.26 680.34,1066.75Z" style="fill:rgb(134,193,85);"/>
                    </g>
                    <g transform="matrix(0.84375,0,0,0.84375,271.875,237)">
                        <path d="M1139.62,881.773C1156.04,915.746 1165.53,955.951 1165.53,999.022C1165.53,1120.76 1089.66,1219.6 996.2,1219.6C944.527,1219.6 898.229,1189.39 867.163,1141.8C897.501,1088.01 944.833,1030.01 1004.97,976.768C1049.39,937.443 1095.54,905.366 1139.62,881.773ZM854.122,879.034C899.752,902.848 947.79,935.892 993.959,976.768L994.337,977.104C937.503,1028.44 892.571,1083.88 863.217,1135.52C840.456,1097.96 826.867,1050.54 826.867,999.022C826.867,954.794 836.881,913.589 854.122,879.034ZM999.719,830.698C1028.08,860.324 1046.64,893.624 1062.76,921.91C1047.59,932.768 1032.41,944.505 1017.38,957.074C1011.47,961.934 1005.58,966.924 999.719,972.041C993.857,966.925 987.968,961.935 982.059,957.074C967.022,944.501 951.845,932.763 936.675,921.91C952.799,893.626 970.687,860.994 999.719,830.698Z" style="fill:rgb(255,185,15);"/>
                    </g>
                </g>
            </g>
        </g>
    </g>
</svg>
