<?xml version="1.0" encoding="UTF-8" standalone="no"?>
<!DOCTYPE svg PUBLIC "-//W3C//DTD SVG 1.1//EN" "http://www.w3.org/Graphics/SVG/1.1/DTD/svg11.dtd">
<svg width="100%" height="100%" viewBox="0 0 2048 1366" version="1.1" xmlns="http://www.w3.org/2000/svg" xmlns:xlink="http://www.w3.org/1999/xlink" xml:space="preserve" xmlns:serif="http://www.serif.com/" style="fill-rule:evenodd;clip-rule:evenodd;stroke-linejoin:round;stroke-miterlimit:2;">
    <g transform="matrix(1,0,0,1,0,-341.333)">
        <g id="Enbian" transform="matrix(10.4759,0,0,6.98392,-5997.47,-6655.72)">
            <rect x="572.503" y="1001.88" width="195.497" height="195.497" style="fill:rgb(38,31,79);"/>
            <clipPath id="_clip1">
                <rect x="572.503" y="1001.88" width="195.497" height="195.497"/>
            </clipPath>
            <g clip-path="url(#_clip1)">
                <g transform="matrix(1,0,0,0.142857,7.95808e-13,1026.32)">
                    <rect x="572.503" y="1001.88" width="195.497" height="195.497" style="fill:rgb(172,137,222);"/>
                </g>
                <g transform="matrix(1,0,0,0.142857,9.09495e-13,914.611)">
                    <rect x="572.503" y="1001.88" width="195.497" height="195.497" style="fill:rgb(61,48,123);"/>
                </g>
                <g transform="matrix(1,0,0,0.142857,-1.3074e-12,886.683)">
                    <rect x="572.503" y="1001.88" width="195.497" height="195.497" style="fill:rgb(54,41,107);"/>
                </g>
                <g transform="matrix(1,0,0,0.142857,9.09495e-13,942.539)">
                    <rect x="572.503" y="1001.88" width="195.497" height="195.497" style="fill:rgb(82,65,166);"/>
                </g>
                <g transform="matrix(1,0,0,0.142857,0,970.467)">
                    <rect x="572.503" y="1001.88" width="195.497" height="195.497" style="fill:rgb(102,81,182);"/>
                </g>
                <g transform="matrix(1,0,0,0.142857,-1.3074e-12,998.395)">
                    <rect x="572.503" y="1001.88" width="195.497" height="195.497" style="fill:rgb(134,112,208);"/>
                </g>
                <g transform="matrix(0.0729568,0,0,0.109435,593.698,977.035)">
                    <circle cx="1155.28" cy="1015.57" r="420" style="fill:white;"/>
                </g>
                <g transform="matrix(0.0954574,0,0,0.143186,572.503,953.006)">
                    <path d="M1441.91,981.85C1443.29,995.699 1444,1009.77 1444,1024C1444,1255.8 1255.8,1444 1024,1444C792.196,1444 604,1255.8 604,1024C604,792.196 792.196,604 1024,604C1040.02,604 1055.83,604.899 1071.38,606.649C900.048,623.54 766,768.239 766,944C766,1131.1 917.901,1283 1105,1283C1279.3,1283 1423.06,1151.17 1441.91,981.85Z" style="fill:rgb(255,245,144);"/>
                </g>
            </g>
        </g>
    </g>
</svg>
