<?xml version="1.0" encoding="UTF-8" standalone="no"?>
<!DOCTYPE svg PUBLIC "-//W3C//DTD SVG 1.1//EN" "http://www.w3.org/Graphics/SVG/1.1/DTD/svg11.dtd">
<svg width="100%" height="100%" viewBox="0 0 2048 1366" version="1.1" xmlns="http://www.w3.org/2000/svg" xmlns:xlink="http://www.w3.org/1999/xlink" xml:space="preserve" xmlns:serif="http://www.serif.com/" style="fill-rule:evenodd;clip-rule:evenodd;stroke-linecap:round;stroke-miterlimit:2;">
    <g transform="matrix(1,0,0,1,0,-341.333)">
        <g id="TwoSpirit" transform="matrix(10.4759,0,0,6.98392,-5997.47,-6655.72)">
            <rect x="572.503" y="1001.88" width="195.497" height="195.497" style="fill:rgb(192,34,37);"/>
            <clipPath id="_clip1">
                <rect x="572.503" y="1001.88" width="195.497" height="195.497"/>
            </clipPath>
            <g clip-path="url(#_clip1)">
                <g transform="matrix(1,0,0,0.166667,9.09495e-13,867.483)">
                    <rect x="572.503" y="1001.88" width="195.497" height="195.497" style="fill:rgb(242,134,35);"/>
                </g>
                <g transform="matrix(1,0,0,0.166667,9.09495e-13,900.066)">
                    <rect x="572.503" y="1001.88" width="195.497" height="195.497" style="fill:rgb(255,214,2);"/>
                </g>
                <g transform="matrix(1,0,0,0.166667,0,932.649)">
                    <rect x="572.503" y="1001.88" width="195.497" height="195.497" style="fill:rgb(90,156,59);"/>
                </g>
                <g transform="matrix(1,0,0,0.166667,-1.3074e-12,965.232)">
                    <rect x="572.503" y="1001.88" width="195.497" height="195.497" style="fill:rgb(52,83,171);"/>
                </g>
                <g transform="matrix(1,0,0,0.166667,-1.3074e-12,997.814)">
                    <rect x="572.503" y="1001.88" width="195.497" height="195.497" style="fill:rgb(112,30,132);"/>
                </g>
                <g transform="matrix(0.0984782,0,0,0.147717,565.717,948.358)">
                    <circle cx="1061.5" cy="709.783" r="158" style="fill:white;"/>
                    <path d="M1061.5,551.783C1148.7,551.783 1219.5,622.581 1219.5,709.783C1219.5,796.986 1148.7,867.783 1061.5,867.783C974.297,867.783 903.5,796.986 903.5,709.783C903.5,622.581 974.297,551.783 1061.5,551.783ZM1061.5,564.385C1141.75,564.385 1206.9,629.536 1206.9,709.783C1206.9,790.031 1141.75,855.182 1061.5,855.182C981.252,855.182 916.101,790.031 916.101,709.783C916.101,629.536 981.252,564.385 1061.5,564.385Z"/>
                </g>
                <g transform="matrix(0.0954574,0,0,0.143186,572.503,953.006)">
                    <path d="M911.113,673.809C906.614,693.977 906.274,710.964 911.088,726.887C915.903,742.81 925.873,757.668 941.996,773.575C924.151,763.833 883.674,732.167 911.113,673.809ZM1079.18,607.579C1113.23,619.999 1129.41,647.417 1133.83,677.654C1138.26,707.891 1130.93,740.947 1117.98,764.643C1152.3,737.051 1166.21,626.434 1079.18,607.579ZM952.912,689.745C951.627,700.979 952.944,711.846 956.95,722.333C960.956,732.82 967.651,742.927 977.122,752.643C964.211,746.819 936.89,727.325 952.912,689.745ZM1060.67,626.617C1047.4,621.757 1033.49,619.479 1018.92,619.867C1004.34,620.255 989.098,623.309 973.167,629.117C985.765,618.793 1021.24,599.272 1060.67,626.617ZM1104.82,592.549C1092.76,585.194 1079.56,580.243 1065.19,577.777C1050.82,575.311 1035.27,575.331 1018.51,577.915C1032.89,570.251 1071.49,558.031 1104.82,592.549Z"/>
                </g>
                <g transform="matrix(-0.0953986,0.00502426,0.00334951,0.143098,763.505,945.636)">
                    <path d="M747.833,1073.78C767.3,1022.16 892.918,718.313 1004.83,756.783C1121.68,796.948 1022.41,1053.96 991.833,1144.78C865.72,1519.32 760.071,1534.02 737.833,1511.78C702.436,1476.39 643.962,1349.24 747.833,1073.78Z" style="fill:white;"/>
                    <clipPath id="_clip2">
                        <path d="M747.833,1073.78C767.3,1022.16 892.918,718.313 1004.83,756.783C1121.68,796.948 1022.41,1053.96 991.833,1144.78C865.72,1519.32 760.071,1534.02 737.833,1511.78C702.436,1476.39 643.962,1349.24 747.833,1073.78Z"/>
                    </clipPath>
                    <g clip-path="url(#_clip2)">
                        <path d="M716.129,1170.24C753.768,1217.38 806.386,1188.31 818.833,1189C832.978,1200.31 857.251,1249.42 971.71,1216.04C971.71,1216.04 918.825,1511.78 737.833,1511.78C602.861,1511.78 716.129,1170.24 716.129,1170.24Z"/>
                        <g transform="matrix(1,0,0,1,-105,356.217)">
                            <path d="M925.833,823.567C908.141,873.897 887.576,986.88 883.833,1032.78" style="fill:none;stroke:white;stroke-width:11px;"/>
                        </g>
                    </g>
                    <path d="M747.833,1073.78C767.3,1022.16 892.918,718.313 1004.83,756.783C1121.68,796.948 1022.41,1053.96 991.833,1144.78C865.72,1519.32 760.071,1534.02 737.833,1511.78C702.436,1476.39 643.962,1349.24 747.833,1073.78ZM758.126,1077.66C696.884,1240.08 692.659,1349.96 706.922,1419.44C715.984,1463.58 732.352,1490.75 745.612,1504.01C748.294,1506.69 753.154,1507.83 759.557,1507.17C768.753,1506.22 780.274,1501.48 793.941,1491.26C840.517,1456.45 906.956,1362.38 981.408,1141.27C999.565,1087.35 1042.35,974.261 1048.57,883.8C1050.54,855.077 1048.86,828.734 1040.98,807.698C1033.81,788.548 1021.31,774.079 1001.26,767.186C971.261,756.875 940.874,775.77 911.565,806.168C836.093,884.442 771.562,1042.03 758.126,1077.66L758.126,1077.66Z"/>
                </g>
                <g transform="matrix(-0.0953986,0.00502426,0.00334951,0.143098,763.505,945.636)">
                    <path d="M1066.83,657.783C964.141,813.113 857.007,993.352 820.833,1179.78" style="fill:none;stroke:black;stroke-width:11px;"/>
                </g>
                <g transform="matrix(0.0954574,0,0,0.143186,572.503,953.006)">
                    <path d="M747.833,1073.78C767.3,1022.16 892.918,718.313 1004.83,756.783C1121.68,796.948 1022.41,1053.96 991.833,1144.78C865.72,1519.32 760.071,1534.02 737.833,1511.78C702.436,1476.39 643.962,1349.24 747.833,1073.78Z" style="fill:white;"/>
                    <clipPath id="_clip3">
                        <path d="M747.833,1073.78C767.3,1022.16 892.918,718.313 1004.83,756.783C1121.68,796.948 1022.41,1053.96 991.833,1144.78C865.72,1519.32 760.071,1534.02 737.833,1511.78C702.436,1476.39 643.962,1349.24 747.833,1073.78Z"/>
                    </clipPath>
                    <g clip-path="url(#_clip3)">
                        <path d="M716.129,1170.24C753.768,1217.38 806.386,1188.31 818.833,1189C832.978,1200.31 857.251,1249.42 971.71,1216.04C971.71,1216.04 918.825,1511.78 737.833,1511.78C602.861,1511.78 716.129,1170.24 716.129,1170.24Z"/>
                        <g transform="matrix(1,0,0,1,-105,356.217)">
                            <path d="M925.833,823.567C908.141,873.897 887.576,986.88 883.833,1032.78" style="fill:none;stroke:white;stroke-width:11px;"/>
                        </g>
                    </g>
                    <path d="M747.833,1073.78C767.3,1022.16 892.918,718.313 1004.83,756.783C1121.68,796.948 1022.41,1053.96 991.833,1144.78C865.72,1519.32 760.071,1534.02 737.833,1511.78C702.436,1476.39 643.962,1349.24 747.833,1073.78ZM758.126,1077.66C771.562,1042.03 836.093,884.442 911.565,806.168C940.874,775.77 971.261,756.875 1001.26,767.186C1021.31,774.079 1033.81,788.548 1040.98,807.698C1048.86,828.734 1050.54,855.077 1048.57,883.8C1042.35,974.261 999.565,1087.35 981.408,1141.27C906.956,1362.38 840.517,1456.45 793.941,1491.26C780.274,1501.48 768.753,1506.22 759.557,1507.17C753.154,1507.83 748.294,1506.69 745.612,1504.01C732.352,1490.75 715.984,1463.58 706.922,1419.44C692.659,1349.96 696.884,1240.08 758.126,1077.66Z"/>
                </g>
                <g transform="matrix(0.0954574,0,0,0.143186,572.503,953.006)">
                    <path d="M1066.83,657.783C964.141,813.113 857.007,993.352 820.833,1179.78" style="fill:none;stroke:black;stroke-width:11px;"/>
                </g>
                <g transform="matrix(0.0954574,0,0,0.143186,572.503,953.006)">
                    <path d="M1016.66,728.147C1016.66,728.147 978.878,724.974 975.833,735.01C971.985,747.696 990.133,754.447 1003.14,757.331C1009.47,758.735 1012.28,750.06 1019.33,747.533C1042.6,739.195 1037.2,742.779 1050.33,742.033C1052.56,741.907 1059.54,723.388 1053.83,717.533C1043.35,706.784 1029.19,728.147 1016.66,728.147Z"/>
                </g>
            </g>
        </g>
    </g>
</svg>
