<?xml version="1.0" encoding="UTF-8" standalone="no"?>
<!DOCTYPE svg PUBLIC "-//W3C//DTD SVG 1.1//EN" "http://www.w3.org/Graphics/SVG/1.1/DTD/svg11.dtd">
<svg width="100%" height="100%" viewBox="0 0 2048 1366" version="1.1" xmlns="http://www.w3.org/2000/svg" xmlns:xlink="http://www.w3.org/1999/xlink" xml:space="preserve" xmlns:serif="http://www.serif.com/" style="fill-rule:evenodd;clip-rule:evenodd;stroke-linecap:round;stroke-linejoin:round;stroke-miterlimit:1.5;">
    <g transform="matrix(1,0,0,1,0,-341.333)">
        <g id="Bear" transform="matrix(10.4759,0,0,6.98392,-5997.47,-6655.72)">
            <rect x="572.503" y="1001.88" width="195.497" height="195.497"/>
            <clipPath id="_clip1">
                <rect x="572.503" y="1001.88" width="195.497" height="195.497"/>
            </clipPath>
            <g clip-path="url(#_clip1)">
                <g transform="matrix(0.328566,0,0,0.54761,572.503,1001.88)">
                    <rect x="0" y="0" width="595" height="51" style="fill:rgb(125,59,20);fill-rule:nonzero;"/>
                </g>
                <g transform="matrix(0.328566,0,0,0.54761,572.503,1001.88)">
                    <rect x="0" y="51" width="595" height="51" style="fill:rgb(238,117,38);fill-rule:nonzero;"/>
                </g>
                <g transform="matrix(0.328566,0,0,0.54761,572.503,1001.88)">
                    <rect x="0" y="102" width="595" height="51" style="fill:rgb(255,245,144);fill-rule:nonzero;"/>
                </g>
                <g transform="matrix(0.328566,0,0,0.54761,572.503,1001.88)">
                    <rect x="0" y="153" width="595" height="51" style="fill:rgb(254,228,184);fill-rule:nonzero;"/>
                </g>
                <g transform="matrix(0.328566,0,0,0.54761,572.503,1001.88)">
                    <rect x="0" y="204" width="595" height="51" style="fill:white;fill-rule:nonzero;"/>
                </g>
                <g transform="matrix(0.328566,0,0,0.54761,572.503,1001.88)">
                    <rect x="0" y="255" width="595" height="51" style="fill:rgb(169,169,171);fill-rule:nonzero;"/>
                </g>
                <g id="Layer1" transform="matrix(0.0954574,0,0,0.143186,567.921,946.963)">
                    <g>
                        <g transform="matrix(0.191245,0.981542,0.981542,-0.191245,-754.565,886.334)">
                            <path d="M159.111,900.348C143.392,912.68 157.733,942.817 173.962,960.26C193.972,981.767 226.518,1012.15 241.629,1019.93C253.332,1025.95 267.556,1027.24 279.111,1023.01C290.667,1018.79 304.686,1003.89 309.778,989.681C315.111,974.792 316,962.57 313.111,949.681C311.045,940.461 283.614,914.96 263.111,905.681C244.331,897.182 190.27,875.903 159.111,900.348Z" style="stroke:black;stroke-width:1px;"/>
                        </g>
                        <g transform="matrix(0.999842,0.0177713,-0.0203328,1.14396,199.828,-548.969)">
                            <path d="M172.73,897.915C157.011,910.247 177.858,950.163 183.778,958.348C212.62,998.228 241.488,1024.56 279.111,1023.01C297.615,1022.25 323.686,1001.55 328.777,987.333C334.11,972.444 332,960.268 325.076,945.694C320.954,937.017 296.211,910.557 275.708,901.278C256.928,892.779 203.889,873.471 172.73,897.915Z" style="stroke:black;stroke-width:0.93px;"/>
                        </g>
                        <g transform="matrix(0.921896,0.0938388,-0.107365,1.05478,476.543,-494.157)">
                            <path d="M166.626,899.679C150.907,912.011 176.003,951.307 183.778,958.348C195.556,969.015 222.913,1007.21 238.024,1014.98C249.727,1021.01 256.41,1026.47 279.111,1023.01C291.45,1021.14 316.651,999.908 321.743,985.694C327.076,970.805 328.757,956.755 325.076,945.694C322.074,936.672 306.16,909.672 275.708,901.278C255.539,895.718 197.785,875.235 166.626,899.679Z" style="stroke:black;stroke-width:1px;"/>
                        </g>
                        <g transform="matrix(1,0,0,1,13.6667,-10.6246)">
                            <path d="M280.444,769.681C267.119,747.111 173.095,678.623 137.59,723.015C122.947,741.322 142.568,785.929 146.444,793.681C157.137,815.066 190.494,847.04 209.111,856.348C218.153,860.869 259.695,865.413 283.463,837.391C302.977,814.383 297.861,799.182 280.444,769.681Z" style="stroke:black;stroke-width:1px;"/>
                        </g>
                        <g transform="matrix(1.03343,0.0441454,-0.0439667,1.02925,107.199,-188.777)">
                            <path d="M287.173,766.134C273.848,743.564 173.095,678.623 137.59,723.015C122.947,741.322 140.839,785.476 144.715,793.228C155.408,814.613 192.765,850.587 211.382,859.895C220.424,864.416 259.695,865.413 283.463,837.391C302.977,814.383 304.59,795.635 287.173,766.134Z" style="stroke:black;stroke-width:0.97px;"/>
                        </g>
                        <path d="M549.778,660.348C537.927,656.398 496.432,619.49 415.434,662.957C392.413,675.311 339.099,737.627 333.064,762.946C318.935,822.226 347.781,856.627 347.778,883.348C347.768,953.554 334.741,972.213 335.111,981.681C338.208,1060.88 446.107,1080.15 477.111,1057.14C516.523,1027.9 544.308,955.456 587.778,926.476C636.335,894.105 787.039,874.421 807.778,793.143C817.571,754.759 803.075,705.393 792.444,687.015C748.201,610.528 687.36,629.92 675.406,633.905C637.756,646.455 592.686,674.651 549.778,660.348Z" style="stroke:black;stroke-width:1px;"/>
                    </g>
                </g>
            </g>
        </g>
    </g>
</svg>
