<?xml version="1.0" encoding="UTF-8" standalone="no"?>
<!DOCTYPE svg PUBLIC "-//W3C//DTD SVG 1.1//EN" "http://www.w3.org/Graphics/SVG/1.1/DTD/svg11.dtd">
<svg width="100%" height="100%" viewBox="0 0 2048 1366" version="1.1" xmlns="http://www.w3.org/2000/svg" xmlns:xlink="http://www.w3.org/1999/xlink" xml:space="preserve" xmlns:serif="http://www.serif.com/" style="fill-rule:evenodd;clip-rule:evenodd;stroke-linejoin:round;stroke-miterlimit:2;">
    <g transform="matrix(1,0,0,1,0,-341.333)">
        <g id="NBLNB" transform="matrix(10.4759,0,0,6.98392,-5997.47,-6655.72)">
            <g transform="matrix(1,0,0,0.333333,9.09495e-13,733.086)">
                <rect x="572.503" y="1001.88" width="195.497" height="195.497" style="fill:white;"/>
            </g>
            <g transform="matrix(1,0,0,0.333333,0,667.92)">
                <rect x="572.503" y="1001.88" width="195.497" height="195.497" style="fill:rgb(123,30,132);"/>
            </g>
            <g transform="matrix(1,0,0,0.333333,0,798.252)">
                <rect x="572.503" y="1001.88" width="195.497" height="195.497" style="fill:rgb(123,30,132);"/>
            </g>
            <g id="flower" transform="matrix(0.0954574,0,0,0.143186,572.503,953.006)">
                <path d="M999.893,889.469C1001.08,858.465 1006.71,829.62 1013.83,806.65C1017.62,815.704 1021.25,825.756 1024.5,836.577C1027.75,825.756 1031.38,815.704 1035.17,806.65C1042.37,829.882 1048.05,859.123 1049.15,890.538C1061.3,861.541 1076.96,836.2 1091.92,817.018C1092.71,840.143 1090.73,868.15 1084.33,897.159C1102.69,873.845 1123.07,854.582 1141.43,840.54C1139.28,850.114 1136.42,860.413 1132.81,871.119C1141.72,864.181 1150.51,858.087 1158.83,852.896C1151.05,876.635 1138.28,904.613 1120.24,931.522C1147.78,914.311 1176.24,902.427 1200.28,895.406C1187.13,915.029 1168.68,937.098 1145.89,957.231C1175,948.927 1203.41,945.278 1226.93,944.762C1219.54,951.221 1211.16,957.85 1201.93,964.366C1213.22,964.023 1223.9,964.282 1233.69,965.002C1212.31,980.367 1183.67,996.27 1151.19,1007.49C1185.65,1010.01 1217.57,1018.12 1242.29,1027.56C1220.13,1035.19 1192.35,1041.57 1162.3,1043.87C1190.2,1054.69 1214.78,1068.7 1233.69,1082.29C1223.9,1083.01 1213.22,1083.27 1201.93,1082.92C1211.16,1089.44 1219.54,1096.07 1226.93,1102.53C1203.12,1102 1174.31,1098.27 1144.83,1089.75C1168.1,1110.13 1186.93,1132.58 1200.28,1152.51C1176.45,1145.55 1148.28,1133.82 1120.96,1116.85C1138.62,1143.42 1151.15,1170.97 1158.83,1194.39C1150.51,1189.2 1141.72,1183.11 1132.81,1176.17C1136.42,1186.88 1139.28,1197.17 1141.43,1206.75C1123.01,1192.66 1102.55,1173.31 1084.13,1149.88C1090.69,1179.2 1092.71,1207.54 1091.92,1230.9C1076.95,1211.71 1061.28,1186.35 1049.12,1157.33C1047.98,1188.52 1042.33,1217.55 1035.17,1240.64C1031.38,1231.58 1027.75,1221.53 1024.5,1210.71C1021.25,1221.53 1017.62,1231.58 1013.83,1240.64C1006.76,1217.81 1001.15,1189.18 999.916,1158.4C987.83,1186.97 972.357,1211.94 957.571,1230.9C956.767,1207.31 958.838,1178.63 965.552,1149C946.965,1172.83 926.223,1192.48 907.566,1206.75C909.723,1197.17 912.582,1186.88 916.193,1176.17C907.276,1183.11 898.495,1189.2 890.167,1194.39C897.8,1171.12 910.219,1143.78 927.699,1117.36C900.642,1134.05 872.8,1145.62 849.214,1152.51C862.609,1132.51 881.518,1109.97 904.906,1089.54C875.165,1098.21 846.075,1102 822.07,1102.53C829.458,1096.07 837.842,1089.44 847.073,1082.92C835.779,1083.27 825.095,1083.01 815.307,1082.29C836.388,1067.14 864.507,1051.47 896.413,1040.29C862.68,1037.61 831.467,1029.63 807.204,1020.36C829.598,1012.65 857.731,1006.21 888.146,1003.97C859.648,993.08 834.546,978.823 815.307,965.002C825.095,964.282 835.779,964.023 847.073,964.366C837.842,957.85 829.458,951.221 822.07,944.762C845.786,945.282 874.465,948.987 903.834,957.439C880.939,937.253 862.404,915.098 849.214,895.406C873.007,902.356 901.13,914.069 928.411,930.999C910.557,904.255 897.904,876.483 890.167,852.896C898.495,858.087 907.276,864.181 916.193,871.119C912.582,860.413 909.723,850.114 907.566,840.54C926.157,854.756 946.818,874.322 965.352,898.029C958.796,868.709 956.776,840.373 957.571,817.018C972.347,835.964 987.81,860.92 999.893,889.469Z" style="fill:rgb(174,110,191);"/>
                <g transform="matrix(1.82474,0,0,1.82474,-840.463,-849.237)">
                    <circle cx="1021.77" cy="1026.58" r="32.333" style="fill:white;"/>
                </g>
                <g transform="matrix(1.42268,0,0,1.42268,-429.649,-436.49)">
                    <circle cx="1021.77" cy="1026.58" r="32.333" style="fill:rgb(255,186,51);"/>
                </g>
                <g transform="matrix(1,0,0,1,2.2322,-2.57632)">
                    <circle cx="1021.77" cy="1026.58" r="32.333" style="fill:rgb(255,250,128);"/>
                </g>
            </g>
        </g>
    </g>
</svg>
