# Blender 3.5.0
# www.blender.org
mtllib Sand_Shovel.mtl
o Sand_Shovel
v 0.017584 -0.017949 0.015843
v -0.017584 -0.017949 0.015843
v -0.023309 -0.056832 0.040302
v 0.023309 -0.056832 0.040302
v -0.055243 -0.020623 0.024169
v -0.074459 -0.022443 0.048491
v 0.024678 -0.053464 0.221667
v 0.060050 -0.037031 0.223103
v 0.074459 -0.022443 0.048491
v 0.013883 0.011244 -0.028447
v -0.013883 0.011244 -0.028447
v -0.015038 0.013031 -0.227673
v 0.015038 0.013031 -0.227673
v 0.073043 -0.011454 0.046194
v 0.054468 -0.010217 0.025895
v 0.055243 -0.020623 0.024169
v -0.057426 -0.025758 0.224089
v -0.060050 -0.037031 0.223103
v -0.073043 -0.011454 0.046194
v 0.013593 -0.009482 0.017507
v -0.013593 -0.009482 0.017507
v -0.054468 -0.010217 0.025895
v 0.012282 0.021545 -0.028929
v -0.012285 0.021545 -0.028929
v 0.014395 0.023649 -0.225903
v -0.014395 0.023649 -0.225903
v -0.024678 -0.060059 0.221090
v -0.024468 -0.062739 0.038271
v 0.024468 -0.062739 0.038268
v 0.024678 -0.060059 0.221090
v -0.065919 -0.041800 0.222685
v -0.079781 -0.026273 0.045194
v 0.058742 -0.024082 0.020161
v 0.079781 -0.026273 0.045194
v 0.018903 -0.023397 0.012323
v -0.018903 0.007285 -0.030176
v 0.018903 0.007285 -0.030176
v -0.018903 -0.023397 0.012323
v -0.018903 0.009807 -0.231980
v 0.018903 0.009807 -0.231980
v 0.065916 -0.041800 0.222685
v 0.079869 -0.011270 0.044158
v 0.065916 -0.025758 0.224089
v -0.058742 -0.009822 0.021407
v -0.058742 -0.024082 0.020161
v -0.079869 -0.011270 0.044158
v 0.018903 -0.009137 0.013572
v 0.058742 -0.009822 0.021407
v -0.018903 -0.009137 0.013572
v 0.018903 0.021545 -0.028929
v -0.018903 0.021545 -0.028929
v 0.018903 0.024070 -0.230731
v -0.018903 0.024070 -0.230731
v -0.024678 -0.053464 0.221667
v 0.057426 -0.025758 0.224089
v -0.065919 -0.025758 0.224089
vn -0.0077 0.9436 0.3309
vn 0.0077 0.9436 0.3309
vn 0.0484 0.9834 0.1751
vn -0.0484 0.9834 0.1751
vn -0.0657 0.9976 0.0228
vn 0.0500 0.9926 0.1111
vn -0.2150 0.9643 0.1547
vn -0.3639 0.9217 0.1344
vn -0.0500 0.9926 0.1111
vn -0.0000 0.9235 0.3835
vn 0.0011 0.9807 0.1954
vn -0.0000 0.9807 0.1954
vn -0.9314 -0.0713 0.3569
vn -0.7328 -0.1641 0.6604
vn -0.7477 -0.1183 0.6534
vn -0.9740 -0.0831 0.2109
vn 0.9717 -0.2148 -0.0983
vn 0.9711 -0.2176 -0.0983
vn 0.9740 -0.0831 0.2109
vn 0.9314 -0.0713 0.3569
vn -0.2243 -0.1759 0.9585
vn -0.2208 -0.1902 0.9566
vn -0.1978 -0.2781 0.9400
vn -0.2016 -0.2644 0.9431
vn 0.2211 -0.2658 0.9383
vn 0.2009 -0.1750 0.9638
vn 0.2045 -0.1906 0.9601
vn 0.2261 -0.2894 0.9301
vn -0.9835 -0.1680 -0.0672
vn -0.9028 -0.3898 -0.1815
vn -0.9125 -0.3706 -0.1729
vn -0.9869 -0.1536 -0.0503
vn 0.9129 -0.3536 -0.2039
vn 0.9878 -0.1533 -0.0277
vn 0.9848 -0.1674 -0.0460
vn 0.8974 -0.3781 -0.2273
vn -0.9981 -0.0568 -0.0228
vn -0.9979 -0.0601 -0.0233
vn 0.9982 -0.0578 -0.0176
vn 0.9980 -0.0610 -0.0185
vn -0.0000 -0.1644 0.9864
vn -0.2053 -0.9662 -0.1561
vn -0.0628 -0.9820 -0.1779
vn 0.0628 -0.9820 -0.1779
vn 0.2053 -0.9662 -0.1561
vn -0.3509 -0.9267 -0.1342
vn -0.0841 -0.9888 -0.1234
vn -0.0000 -0.9962 -0.0872
vn 0.0841 -0.9888 -0.1234
vn 0.0180 -0.9352 -0.3536
vn -0.0000 -0.9165 -0.4000
vn -0.0180 -0.9352 -0.3536
vn -0.0000 -0.9805 -0.1965
vn 0.9970 -0.0068 0.0773
vn 0.9616 -0.0247 -0.2735
vn 0.9390 -0.0126 -0.3436
vn 0.9970 -0.0065 0.0773
vn -0.7334 0.0592 -0.6772
vn -0.7427 0.0284 -0.6691
vn -0.9616 -0.0247 -0.2735
vn -0.9390 -0.0126 -0.3436
vn 0.1937 0.0855 -0.9773
vn -0.1937 0.0855 -0.9773
vn 1.0000 -0.0000 -0.0000
vn -1.0000 -0.0000 -0.0000
vn -0.0000 0.0872 -0.9962
vn -0.0000 -0.0872 0.9962
vn -0.0001 -0.0872 0.9962
vn 0.0001 -0.0872 0.9962
vn -0.0052 0.9967 0.0815
vn -0.0053 0.9973 0.0739
vn -0.0057 0.9972 0.0746
vn -0.0076 0.9968 0.0800
vn 0.0057 0.9972 0.0746
vn 0.0002 0.9968 0.0802
vn 0.0001 0.9968 0.0802
vn 0.0053 0.9973 0.0739
vn -0.0001 0.9962 0.0875
vn 0.0076 0.9968 0.0800
vn 0.0052 0.9967 0.0815
vn 0.0001 0.9962 0.0875
vn 0.3140 0.7924 0.5230
vn 0.0009 0.9159 0.4013
vn 0.0119 0.9168 0.3991
vn 0.3327 0.7884 0.5174
vn -0.0009 0.9239 0.3826
vn -0.0117 0.9231 0.3843
vn -0.3566 0.7575 0.5469
vn -0.3185 0.7710 0.5515
vn 0.0592 0.9880 0.1426
vn 0.0566 0.9886 0.1393
vn -0.0623 0.9875 0.1445
vn -0.0561 0.9884 0.1412
vn 0.0657 0.9976 0.0228
vn 0.7477 -0.1183 0.6534
vn 0.7328 -0.1641 0.6604
vn 0.7427 0.0284 -0.6691
vn 0.7334 0.0592 -0.6772
vn 0.2150 0.9643 0.1547
vn 0.3639 0.9217 0.1344
vn -0.9711 -0.2176 -0.0983
vn -0.9717 -0.2148 -0.0983
vn 0.3509 -0.9267 -0.1342
vn -0.9970 -0.0068 0.0773
vn -0.9970 -0.0065 0.0773
vn -0.0001 0.9968 0.0802
vn -0.0002 0.9968 0.0802
vt 0.084400 0.919000
vt 0.080300 0.885200
vt 0.121500 0.935200
vt 0.100300 0.874900
vt 0.094900 0.874900
vt 0.084400 0.924300
vt 0.102100 0.878100
vt 0.084500 0.927200
vt 0.094100 0.868000
vt 0.081300 0.935200
vt 0.101100 0.868000
vt 0.081300 0.928100
vt 0.089200 0.873900
vt 0.096200 0.877700
vt 0.086300 0.871700
vt 0.111000 0.942700
vt 0.092600 0.878100
vt 0.080100 0.942900
vt 0.067400 0.874200
vt 0.053900 0.927900
vt 0.053700 0.922600
vt 0.072700 0.876700
vt 0.080800 0.946600
vt 0.080100 0.920400
vt 0.085000 0.879400
vt 0.108900 0.871700
vt 0.054200 0.945800
vt 0.091100 0.919600
vt 0.114400 0.938800
vt 0.091100 0.923800
vt 0.091700 0.930800
vt 0.121200 0.923900
vt 0.121600 0.927600
vt 0.103300 0.878100
vt 0.121200 0.919400
vt 0.084400 0.935600
vt 0.107900 0.878100
vt 0.085400 0.877800
vt 0.053700 0.947400
vt 0.080600 0.867500
vt 0.089600 0.877700
vt 0.081700 0.879700
vt 0.083700 0.870300
vt 0.089600 0.879300
vt 0.080100 0.879500
vt 0.106000 0.873900
vt 0.084400 0.944200
vt 0.053700 0.887200
vt 0.055000 0.878400
vt 0.084500 0.942400
vt 0.054600 0.876700
vt 0.053700 0.940700
vt 0.111500 0.944300
vt 0.092900 0.879700
vt 0.080600 0.889600
vt 0.081500 0.885900
vt 0.121600 0.936500
vt 0.084900 0.876500
vt 0.102600 0.879400
vt 0.084400 0.928500
vt 0.084900 0.880600
vt 0.096300 0.879300
vt 0.083700 0.886800
vt 0.114100 0.940300
vt 0.091900 0.876700
vt 0.091900 0.932300
vt 0.091900 0.880400
vt 0.084500 0.937200
vt 0.107800 0.879700
vt 0.121700 0.876300
vt 0.121600 0.929300
vt 0.103400 0.879700
vt 0.121700 0.880700
vt 0.081300 0.909200
vt 0.059900 0.873200
vt 0.053700 0.909200
vt 0.069900 0.879100
vt 0.063000 0.879300
vt 0.053700 0.901800
vt 0.067400 0.873200
vt 0.081300 0.901800
vt 0.081600 0.915500
vt 0.053700 0.876000
vt 0.086300 0.889700
vt 0.054700 0.917600
vt 0.076300 0.882300
vt 0.113300 0.890500
vt 0.057600 0.885700
vt 0.109600 0.872700
vt 0.117100 0.884400
vt 0.053700 0.883100
vt 0.113300 0.884300
vt 0.054700 0.893400
vt 0.121400 0.910500
vt 0.115600 0.872800
vt 0.084400 0.893400
vt 0.063600 0.886400
vt 0.114900 0.916200
vt 0.114800 0.906200
vt 0.114900 0.910500
vt 0.091300 0.897300
vt 0.121400 0.916200
vt 0.109600 0.869800
vt 0.121800 0.902300
vt 0.069000 0.886200
vt 0.084400 0.916200
vt 0.084500 0.903000
vt 0.115300 0.866800
vt 0.084400 0.910500
vt 0.121700 0.894200
vt 0.109600 0.866800
vt 0.086400 0.884000
vt 0.073600 0.876000
vt 0.081600 0.895500
vt 0.113600 0.886600
vt 0.080900 0.866400
vt 0.086300 0.886500
vt 0.073600 0.878400
vt 0.053700 0.868500
vt 0.117100 0.888400
vt 0.115600 0.871900
vt 0.084300 0.887400
vt 0.117100 0.890600
vt 0.115600 0.869700
vt 0.074300 0.885100
vt 0.080900 0.890600
vt 0.113700 0.888300
vt 0.115600 0.874900
vt 0.084500 0.895600
vt 0.085500 0.875700
vt 0.109600 0.874800
vt 0.084300 0.869600
vt 0.117100 0.886500
vt 0.109600 0.872000
vt 0.121700 0.904500
vt 0.085500 0.881400
vt 0.091400 0.899500
vt 0.091900 0.875700
vt 0.114800 0.908300
vt 0.091900 0.881400
vt 0.121700 0.896400
vt 0.109600 0.869000
vt 0.122500 0.875700
vt 0.084400 0.905200
vt 0.115300 0.869000
vt 0.122500 0.881400
vt 0.059900 0.874200
vt 0.053900 0.935400
vt 0.072300 0.878400
vt 0.080800 0.948300
vt 0.053700 0.869800
vt 0.053700 0.888500
vt 0.053700 0.878400
vt 0.086400 0.887300
s 1
usemtl Picnic_Assets
f 1/4/1 2/5/2 3/9/3 4/11/4
f 3/9/3 2/5/2 5/13/5 6/15/6
f 4/12/4 7/20/7 8/21/8 9/24/9
f 1/1/1 10/28/10 11/30/10 2/6/2
f 12/32/11 11/30/10 10/28/10 13/35/12
f 14/38/13 15/41/14 16/44/15 9/25/16
f 17/47/17 18/50/18 6/16/19 19/53/20
f 16/45/21 15/42/22 20/56/23 1/2/24
f 21/59/25 22/62/26 5/14/27 2/7/28
f 10/29/29 1/3/30 20/57/31 23/64/32
f 2/8/33 11/31/34 24/66/35 21/60/36
f 23/64/32 25/68/37 13/36/38 10/29/29
f 11/31/34 12/33/39 26/71/40 24/66/35
f 25/69/41 26/72/41 12/34/41 13/37/41
f 27/74/42 28/76/43 29/79/44 30/81/45
f 28/76/43 27/74/42 31/82/46 32/85/47
f 33/88/48 34/91/49 29/78/44 35/97/50
f 36/98/51 37/100/51 35/94/50 38/102/52
f 36/98/51 39/106/53 40/109/53 37/100/51
f 41/112/54 34/92/55 42/115/56 43/117/57
f 44/120/58 45/123/59 32/87/60 46/127/61
f 35/95/62 47/128/62 48/131/62 33/89/62
f 49/134/63 38/103/63 45/124/63 44/121/63
f 35/96/64 37/101/64 50/137/64 47/129/64
f 36/99/65 38/104/65 49/135/65 51/139/65
f 40/110/64 52/141/64 50/137/64 37/101/64
f 39/107/65 36/99/65 51/139/65 53/144/65
f 52/142/66 40/111/66 39/108/66 53/145/66
f 30/80/67 7/19/67 54/147/67 27/75/67
f 27/75/67 54/147/67 18/51/68 31/83/68
f 8/22/69 7/19/67 30/80/67 41/113/69
f 8/22/69 41/113/69 43/118/69 55/149/69
f 15/43/70 14/40/71 42/116/72 48/132/73
f 46/126/74 56/152/75 17/48/76 19/55/77
f 18/51/68 17/49/68 56/153/68 31/83/68
f 48/132/73 47/130/78 20/58/78 15/43/70
f 44/122/79 22/63/80 21/61/81 49/136/81
f 47/130/82 50/138/83 23/65/84 20/58/85
f 24/67/86 51/140/87 49/136/88 21/61/89
f 25/70/90 23/65/84 50/138/83 52/143/91
f 24/67/86 26/73/92 53/146/93 51/140/87
f 52/143/91 53/146/93 26/73/92 25/70/90
f 16/46/94 1/4/1 4/11/4 9/26/9
f 19/54/20 6/17/19 5/14/95 22/62/96
f 29/78/44 28/77/43 38/105/52 35/97/50
f 32/86/47 45/125/48 38/105/52 28/77/43
f 42/115/56 34/92/55 33/90/97 48/133/98
f 46/126/74 19/55/77 22/63/80 44/122/79
f 4/12/4 3/10/3 54/148/99 7/20/7
f 54/148/99 3/10/3 6/18/6 18/52/100
f 8/23/101 55/150/102 14/39/13 9/27/16
f 34/93/49 41/114/103 30/81/45 29/79/44
f 46/127/61 32/87/60 31/84/104 56/154/105
f 42/116/72 14/40/71 55/151/106 43/119/107
