# Blender 3.5.0
# www.blender.org
mtllib Book_Closed.mtl
o Book_Closed
v 0.108047 -0.022528 0.124009
v -0.100671 -0.022528 0.124009
v -0.100671 -0.022528 -0.165660
v 0.108047 -0.022528 -0.165660
v -0.100671 0.022528 -0.165660
v -0.100671 0.022528 0.124009
v 0.108047 0.022528 0.124009
v 0.108047 0.022528 -0.165660
v 0.101326 -0.008253 0.120408
v 0.101326 0.008253 0.120408
v -0.105027 0.008253 0.118664
v -0.105027 -0.008253 0.118664
v 0.101326 -0.008253 -0.160859
v 0.101326 0.008253 -0.160859
v -0.105027 0.008253 -0.159121
v -0.105027 -0.008253 -0.159121
v -0.108047 -0.009532 0.124009
v -0.108047 0.009532 0.124009
v -0.108047 0.009532 -0.165660
v -0.108047 -0.009532 -0.165660
v 0.108047 -0.019506 -0.165660
v -0.097652 -0.019506 -0.165660
v -0.105027 0.008253 -0.165660
v -0.105027 -0.008253 -0.165660
v 0.108047 0.019506 -0.165660
v -0.097652 0.019506 -0.165660
v 0.108047 0.019506 0.124009
v -0.097652 0.019506 0.124009
v -0.105027 0.008253 0.124009
v -0.105027 -0.008253 0.124009
v 0.108047 -0.019506 0.124009
v -0.097652 -0.019506 0.124009
v -0.097652 -0.019506 -0.159121
v 0.103845 -0.019506 -0.160859
v 0.103845 0.019506 -0.160859
v -0.097652 0.019506 -0.159121
v 0.103845 0.019506 0.120408
v -0.097652 0.019506 0.118664
v 0.103845 -0.019506 0.120408
v -0.097652 -0.019506 0.118664
v -0.067464 -0.001811 0.141078
v -0.069711 -0.001811 0.115431
v -0.090451 -0.001811 0.117245
v -0.086218 -0.001811 0.165660
v -0.044731 -0.001811 0.162029
v -0.048968 -0.001811 0.116815
v -0.067464 -0.002613 0.141078
v -0.086218 -0.002613 0.165660
v -0.090451 -0.002613 0.117245
v -0.069711 -0.002613 0.115431
v -0.044731 -0.002613 0.162029
v -0.048968 -0.002613 0.116815
vn -0.0000 -1.0000 -0.0000
vn -0.0000 1.0000 -0.0000
vn -0.0085 -0.0011 1.0000
vn -0.0084 0.0009 1.0000
vn -0.0085 0.0015 1.0000
vn -0.0084 -0.0019 1.0000
vn 0.9939 0.1099 -0.0000
vn 0.9939 -0.1099 -0.0000
vn -0.0084 0.0018 -1.0000
vn -0.0085 0.0012 -1.0000
vn -0.0084 -0.0011 -1.0000
vn -0.0085 -0.0014 -1.0000
vn -0.9669 -0.2553 -0.0000
vn -0.9669 0.2553 -0.0000
vn -0.0000 -0.0000 -1.0000
vn 1.0000 -0.0000 -0.0000
vn -0.0000 -0.0000 1.0000
vn -0.0086 0.0055 0.9999
vn -0.0084 0.0021 1.0000
vn -0.0084 -0.0054 1.0000
vn -0.0086 -0.0019 1.0000
vn 0.9758 -0.2184 -0.0000
vn 0.9758 0.2184 -0.0000
vn -0.0084 0.0054 -1.0000
vn -0.0086 0.0019 -1.0000
vn -0.0084 -0.0021 -1.0000
vn -0.0086 -0.0057 -0.9999
vn -0.8697 0.4936 -0.0000
vn -0.8697 -0.4936 -0.0000
vn 0.8364 -0.5481 -0.0000
vn 0.8364 0.5481 -0.0000
vn 0.7950 -0.0000 0.6066
vn -0.9962 -0.0000 0.0871
vn -0.6777 -0.0000 0.7353
vn 0.9956 -0.0000 -0.0933
vt 0.898400 0.289600
vt 0.950500 0.319700
vt 0.898400 0.349800
vt 0.898400 0.332100
vt 0.908000 0.319700
vt 0.839400 0.332100
vt 0.949000 0.309400
vt 0.839400 0.289600
vt 0.906500 0.309400
vt 0.839400 0.349800
vt 0.898400 0.285100
vt 0.839400 0.341200
vt 0.949000 0.318600
vt 0.839400 0.285100
vt 0.898400 0.341200
vt 0.908000 0.328900
vt 0.839400 0.242500
vt 0.961900 0.347300
vt 0.950500 0.328900
vt 0.898400 0.242500
vt 0.906500 0.318600
vt 0.902900 0.347300
vt 0.532600 0.928900
vt 0.561800 0.961900
vt 0.532600 0.937700
vt 0.561800 0.953200
vt 0.423400 0.937700
vt 0.926000 0.312300
vt 0.423400 0.928900
vt 0.929300 0.312300
vt 0.412800 0.961900
vt 0.425300 0.904400
vt 0.412800 0.953200
vt 0.425300 0.913100
vt 0.534600 0.913100
vt 0.916900 0.311200
vt 0.534600 0.904400
vt 0.920300 0.311200
vt 0.898400 0.334700
vt 0.906500 0.322300
vt 0.898400 0.338600
vt 0.906500 0.326200
vt 0.839400 0.338600
vt 0.950500 0.315900
vt 0.839400 0.334700
vt 0.950500 0.312000
vt 0.906500 0.310000
vt 0.839400 0.349100
vt 0.961900 0.289600
vt 0.961900 0.331500
vt 0.948400 0.310000
vt 0.922500 0.312600
vt 0.949900 0.315700
vt 0.916900 0.312600
vt 0.949900 0.312300
vt 0.920300 0.312600
vt 0.906500 0.318000
vt 0.902900 0.347900
vt 0.902900 0.242500
vt 0.902900 0.284400
vt 0.948400 0.318000
vt 0.914600 0.312600
vt 0.961900 0.347900
vt 0.950500 0.328300
vt 0.961900 0.242500
vt 0.961900 0.284400
vt 0.908600 0.328300
vt 0.923700 0.311200
vt 0.907100 0.326000
vt 0.926000 0.311200
vt 0.907100 0.322600
vt 0.929300 0.311200
vt 0.950500 0.320300
vt 0.898400 0.349100
vt 0.902900 0.289600
vt 0.902900 0.331500
vt 0.908600 0.320300
vt 0.931600 0.311200
vt 0.960500 0.331500
vt 0.530700 0.898400
vt 0.922500 0.311200
vt 0.960900 0.290400
vt 0.412800 0.967900
vt 0.424000 0.898400
vt 0.903900 0.243400
vt 0.412800 0.947200
vt 0.424000 0.919100
vt 0.904200 0.284400
vt 0.530700 0.919100
vt 0.914600 0.311200
vt 0.961100 0.243400
vt 0.534000 0.943600
vt 0.561800 0.947200
vt 0.960800 0.284400
vt 0.427300 0.943600
vt 0.923700 0.312300
vt 0.903600 0.290400
vt 0.534000 0.923000
vt 0.561800 0.967900
vt 0.904000 0.331500
vt 0.427300 0.923000
vt 0.931600 0.312300
vt 0.704400 0.064600
vt 0.707200 0.132800
vt 0.706800 0.132200
vt 0.662500 0.064100
vt 0.662900 0.030200
vt 0.660600 0.167500
vt 0.742000 0.031000
vt 0.740600 0.167100
vt 0.739600 0.169300
vt 0.739800 0.103500
vt 0.741300 0.098900
vt 0.667300 0.097600
vt 0.704500 0.132200
vt 0.739700 0.168000
vt 0.660600 0.166200
vt 0.661300 0.132300
vt 0.740000 0.101300
vt 0.667300 0.098900
s 1
usemtl Picnic_Assets
f 1/1/1 2/4/1 3/6/1 4/8/1
f 5/11/2 6/14/2 7/17/2 8/20/2
f 9/23/3 10/25/4 11/27/5 12/29/6
f 9/24/7 13/31/7 14/33/8 10/26/8
f 15/35/9 14/34/10 13/32/11 16/37/12
f 17/39/13 18/41/14 19/43/14 20/45/13
s 0
f 21/47/15 4/9/15 3/7/15 22/51/15
f 19/44/15 23/53/15 24/55/15 20/46/15
f 8/21/15 25/57/15 26/61/15 5/13/15
f 8/22/16 7/18/16 27/63/16 25/58/16
f 6/16/17 28/67/17 27/64/17 7/19/17
f 29/69/17 18/42/17 17/40/17 30/71/17
f 2/5/17 1/2/17 31/73/17 32/77/17
f 31/74/16 1/3/16 4/10/16 21/48/16
f 22/50/2 33/79/2 34/82/2 21/49/2
f 16/38/16 24/56/16 23/54/16 15/36/16
f 35/85/1 36/88/1 26/60/1 25/59/1
f 25/59/1 27/65/1 37/91/1 35/85/1
f 28/66/1 38/94/1 37/91/1 27/65/1
f 11/28/16 29/70/16 30/72/16 12/30/16
f 32/76/2 31/75/2 39/97/2 40/100/2
f 39/97/2 31/75/2 21/49/2 34/82/2
s 1
f 38/95/18 11/27/5 10/25/4 37/92/19
f 12/29/6 40/101/20 39/98/21 9/23/3
f 35/86/22 37/93/22 10/26/8 14/33/8
f 34/83/23 13/31/7 9/24/7 39/99/23
f 15/35/9 36/89/24 35/87/25 14/34/10
f 16/37/12 13/32/11 34/84/26 33/80/27
f 5/12/28 19/43/14 18/41/14 6/15/28
f 3/6/29 2/4/29 17/39/13 20/45/13
s 0
f 26/61/15 23/53/15 19/44/15 5/13/15
f 3/7/15 20/46/15 24/55/15 22/51/15
f 32/77/17 30/71/17 17/40/17 2/5/17
f 6/16/17 18/42/17 29/69/17 28/67/17
f 26/62/30 36/90/30 15/36/30 23/54/30
f 16/38/31 33/81/31 22/52/31 24/56/31
f 32/78/31 40/102/31 12/30/31 30/72/31
f 29/70/30 11/28/30 38/96/30 28/68/30
s 1
f 41/103/2 42/106/2 43/107/2 44/109/2
f 41/103/2 45/113/2 46/114/2 42/106/2
f 47/115/1 48/116/1 49/117/1 50/118/1
f 51/119/1 47/115/1 50/118/1 52/120/1
f 47/115/32 41/104/32 44/110/32 48/116/32
f 48/116/33 44/111/33 43/108/33 49/117/33
f 47/115/34 51/119/34 45/112/34 41/105/34
f 45/113/35 51/119/35 52/120/35 46/114/35
