# Blender 3.5.0
# www.blender.org
mtllib Sand_Castle_Small.mtl
o Sand_Castle_Small
v 0.122959 0.286512 -0.070987
v 0.141979 0.286512 -0.000000
v 0.141979 0.000000 0.000000
v 0.122959 -0.000000 -0.070987
v 0.070987 -0.000000 -0.122959
v 0.070987 0.286512 -0.122959
v 0.000000 -0.000000 -0.141979
v 0.000000 0.286512 -0.141979
v -0.070987 -0.000000 -0.122959
v -0.070987 0.286512 -0.122959
v -0.122959 0.286512 -0.070987
v -0.122959 -0.000000 -0.070987
v -0.141979 0.286512 -0.000000
v -0.141979 0.000000 0.000000
v -0.122959 0.000000 0.070987
v -0.122959 0.286512 0.070987
v -0.070987 0.286512 0.122959
v -0.070987 0.000000 0.122959
v 0.000000 0.000000 0.141979
v 0.000000 0.286512 0.141979
v 0.070987 0.000000 0.122959
v 0.070987 0.286512 0.122959
v 0.122959 0.000000 0.070987
v 0.122959 0.286512 0.070987
v 0.122959 0.338657 -0.070987
v 0.087058 0.338657 -0.050261
v 0.100522 0.338657 -0.000000
v 0.141979 0.338657 -0.000000
v 0.087058 0.286512 -0.050261
v 0.050261 0.286512 -0.087058
v 0.050261 0.338657 -0.087058
v 0.070987 0.338657 -0.122959
v 0.000000 0.338657 -0.141979
v 0.000000 0.338657 -0.100522
v -0.050261 0.286512 -0.087058
v 0.000000 0.286512 -0.100522
v -0.087058 0.338657 -0.050261
v -0.050261 0.338657 -0.087058
v -0.070987 0.338657 -0.122959
v -0.122959 0.338657 -0.070987
v -0.100522 0.286512 -0.000000
v -0.087058 0.286512 -0.050261
v -0.122959 0.338657 0.070987
v -0.087058 0.338657 0.050261
v -0.100522 0.338657 -0.000000
v -0.141979 0.338657 -0.000000
v -0.050261 0.286512 0.087058
v -0.087058 0.286512 0.050261
v -0.050261 0.338657 0.087058
v -0.070987 0.338657 0.122959
v 0.000000 0.338657 0.141979
v 0.000000 0.338657 0.100522
v 0.050261 0.286512 0.087058
v 0.000000 0.286512 0.100522
v 0.087058 0.338657 0.050261
v 0.050261 0.338657 0.087058
v 0.070987 0.338657 0.122959
v 0.122959 0.338657 0.070987
v 0.100522 0.286512 -0.000000
v 0.087058 0.286512 0.050261
v 0.000000 0.286512 -0.000000
vn 0.8660 -0.0000 -0.5000
vn 1.0000 -0.0000 -0.0000
vn 0.5000 -0.0000 -0.8660
vn -0.0000 -0.0000 -1.0000
vn -0.5000 -0.0000 -0.8660
vn -0.8660 -0.0000 -0.5000
vn -1.0000 -0.0000 -0.0000
vn -0.8660 -0.0000 0.5000
vn -0.5000 -0.0000 0.8660
vn -0.0000 -0.0000 1.0000
vn 0.5000 -0.0000 0.8660
vn 0.8660 -0.0000 0.5000
vn -0.0000 1.0000 -0.0000
vn 0.9659 -0.0000 -0.2588
vn -0.9659 -0.0000 0.2588
vn 0.2588 -0.0000 -0.9659
vn -0.2588 -0.0000 0.9659
vn -0.7071 -0.0000 -0.7071
vn 0.7071 -0.0000 0.7071
vt 0.472200 0.886800
vt 0.456500 0.895400
vt 0.474400 0.917400
vt 0.475500 0.881100
vt 0.463200 0.895400
vt 0.476600 0.897900
vt 0.463200 0.921200
vt 0.456500 0.921200
vt 0.450800 0.921200
vt 0.502600 0.895800
vt 0.450800 0.895400
vt 0.466400 0.890100
vt 0.502600 0.870000
vt 0.470600 0.910900
vt 0.496000 0.895800
vt 0.459800 0.890000
vt 0.496000 0.870000
vt 0.476600 0.869400
vt 0.490300 0.895800
vt 0.488500 0.895800
vt 0.490300 0.870000
vt 0.454100 0.886700
vt 0.488500 0.870000
vt 0.509800 0.923000
vt 0.450800 0.880900
vt 0.481900 0.870000
vt 0.464200 0.894800
vt 0.481900 0.895800
vt 0.476200 0.870000
vt 0.450800 0.874300
vt 0.488500 0.902300
vt 0.490700 0.865700
vt 0.476200 0.895800
vt 0.488500 0.928100
vt 0.481900 0.928100
vt 0.454200 0.868600
vt 0.481900 0.902300
vt 0.451100 0.894800
vt 0.476200 0.902300
vt 0.460000 0.865300
vt 0.502600 0.902300
vt 0.504400 0.923000
vt 0.476200 0.928100
vt 0.502600 0.928100
vt 0.496000 0.928100
vt 0.466600 0.865400
vt 0.496000 0.902300
vt 0.490700 0.901700
vt 0.490300 0.928100
vt 0.511000 0.895800
vt 0.490300 0.902300
vt 0.472300 0.868700
vt 0.511000 0.870000
vt 0.504400 0.929400
vt 0.504400 0.895800
vt 0.468900 0.921200
vt 0.468900 0.895400
vt 0.475600 0.874500
vt 0.504400 0.870000
vt 0.514500 0.916500
vt 0.474200 0.897300
vt 0.456500 0.890700
vt 0.474400 0.912700
vt 0.470600 0.896200
vt 0.470600 0.912700
vt 0.471800 0.922900
vt 0.470800 0.891500
vt 0.467100 0.922900
vt 0.481300 0.901700
vt 0.474400 0.890700
vt 0.463200 0.890700
vt 0.481300 0.897900
vt 0.469600 0.884200
vt 0.470600 0.917400
vt 0.471800 0.927600
vt 0.465500 0.886500
vt 0.460600 0.927600
vt 0.474400 0.910900
vt 0.474300 0.904100
vt 0.460600 0.922900
vt 0.474400 0.906200
vt 0.470600 0.905100
vt 0.502600 0.865300
vt 0.470600 0.906200
vt 0.470700 0.898500
vt 0.496000 0.865300
vt 0.481300 0.869400
vt 0.474300 0.899400
vt 0.481300 0.865700
vt 0.465300 0.922900
vt 0.456700 0.884100
vt 0.509300 0.902300
vt 0.513600 0.923000
vt 0.460800 0.886400
vt 0.476600 0.865700
vt 0.465300 0.927600
vt 0.455800 0.928500
vt 0.468900 0.891000
vt 0.513900 0.897600
vt 0.455800 0.923800
vt 0.509300 0.897600
vt 0.513600 0.918300
vt 0.459500 0.922900
vt 0.488500 0.865300
vt 0.509800 0.918300
vt 0.459300 0.929600
vt 0.481900 0.865300
vt 0.468900 0.894800
vt 0.454500 0.875300
vt 0.510800 0.910100
vt 0.490700 0.869400
vt 0.454400 0.880000
vt 0.464200 0.891000
vt 0.513900 0.902300
vt 0.451000 0.922900
vt 0.481900 0.897600
vt 0.455800 0.894800
vt 0.454600 0.924000
vt 0.455800 0.891000
vt 0.515500 0.905400
vt 0.454400 0.928700
vt 0.510800 0.905400
vt 0.495400 0.869400
vt 0.450800 0.929600
vt 0.488500 0.897600
vt 0.495400 0.865700
vt 0.460900 0.868900
vt 0.504400 0.916500
vt 0.508100 0.923000
vt 0.456800 0.871200
vt 0.451100 0.891000
vt 0.515500 0.910100
vt 0.512800 0.866300
vt 0.504400 0.911800
vt 0.508100 0.918300
vt 0.516400 0.865300
vt 0.502600 0.897600
vt 0.504400 0.918300
vt 0.516300 0.871900
vt 0.496000 0.897600
vt 0.495400 0.901700
vt 0.512700 0.870900
vt 0.495400 0.897900
vt 0.509100 0.911800
vt 0.469600 0.871300
vt 0.504400 0.910100
vt 0.508100 0.929400
vt 0.465600 0.869000
vt 0.490700 0.897900
vt 0.509100 0.916500
vt 0.508100 0.898600
vt 0.510800 0.911800
vt 0.509100 0.905400
vt 0.508000 0.903300
vt 0.504400 0.905400
vt 0.508100 0.924700
vt 0.504400 0.904200
vt 0.511000 0.865300
vt 0.504400 0.924700
vt 0.504500 0.897600
vt 0.504400 0.865300
vt 0.514500 0.911800
vt 0.471900 0.880100
vt 0.467100 0.927600
vt 0.476600 0.901700
vt 0.472000 0.875400
vt 0.510800 0.916500
vt 0.509100 0.910100
vt 0.463200 0.877700
s 1
usemtl Picnic_Assets
f 1/2/1 2/5/2 3/7/2 4/8/1
f 1/2/1 4/8/1 5/9/3 6/11/3
f 5/10/3 7/15/4 8/17/4 6/13/3
f 7/15/4 9/19/5 10/21/5 8/17/4
f 11/26/6 10/23/5 9/20/5 12/28/6
f 13/29/7 11/26/6 12/28/6 14/33/7
f 15/35/8 16/37/8 13/31/7 14/34/7
f 17/39/9 16/37/8 15/35/8 18/43/9
f 19/45/10 20/47/10 17/41/9 18/44/9
f 19/45/10 21/49/11 22/51/11 20/47/10
f 23/55/12 24/59/12 22/53/11 21/50/11
f 24/57/12 23/56/12 3/7/2 2/5/2
f 25/61/13 26/64/13 27/67/13 28/70/13
f 29/73/13 1/1/13 6/12/13 30/76/13
f 31/79/13 32/82/13 33/85/13 34/88/13
f 10/22/13 35/91/13 36/94/13 8/16/13
f 37/97/13 38/100/13 39/103/13 40/106/13
f 13/30/13 41/109/13 42/112/13 11/25/13
f 43/115/13 44/118/13 45/121/13 46/124/13
f 17/40/13 47/127/13 48/130/13 16/36/13
f 49/133/13 50/136/13 51/139/13 52/142/13
f 22/52/13 53/145/13 54/148/13 20/46/13
f 55/151/13 56/154/13 57/157/13 58/160/13
f 59/163/13 60/166/13 24/58/13 2/4/13
f 59/163/13 29/73/13 61/169/13
f 29/73/13 30/76/13 61/169/13
f 30/76/13 36/94/13 61/169/13
f 36/94/13 35/91/13 61/169/13
f 35/91/13 42/112/13 61/169/13
f 42/112/13 41/109/13 61/169/13
f 41/109/13 48/130/13 61/169/13
f 48/130/13 47/127/13 61/169/13
f 47/127/13 54/148/13 61/169/13
f 54/148/13 53/145/13 61/169/13
f 53/145/13 60/166/13 61/169/13
f 60/166/13 59/163/13 61/169/13
s 0
f 28/71/14 2/5/14 1/2/14 25/62/14
f 29/74/5 26/65/5 25/63/5 1/3/5
f 26/66/15 29/75/15 59/164/15 27/68/15
f 27/69/10 59/165/10 2/6/10 28/72/10
f 33/86/16 32/83/16 6/13/16 8/17/16
f 36/95/7 34/89/7 33/87/7 8/18/7
f 34/90/17 36/96/17 30/77/17 31/80/17
f 32/84/12 31/81/12 30/78/12 6/14/12
f 11/26/18 40/107/18 39/104/18 10/23/18
f 40/108/9 11/27/9 42/113/9 37/98/9
f 42/114/19 35/92/19 38/101/19 37/99/19
f 35/93/1 10/24/1 39/105/1 38/102/1
f 46/125/15 13/31/15 16/37/15 43/116/15
f 44/119/11 43/117/11 16/38/11 48/131/11
f 45/122/14 44/120/14 48/132/14 41/110/14
f 13/32/4 46/126/4 45/123/4 41/111/4
f 17/41/17 20/47/17 51/140/17 50/137/17
f 54/149/2 52/143/2 51/141/2 20/48/2
f 49/134/16 52/144/16 54/150/16 47/128/16
f 17/42/6 50/138/6 49/135/6 47/129/6
f 22/53/19 24/59/19 58/161/19 57/158/19
f 58/162/3 24/60/3 60/167/3 55/152/3
f 56/155/18 55/153/18 60/168/18 53/146/18
f 57/159/8 56/156/8 53/147/8 22/54/8
