# Blender 3.5.0
# www.blender.org
mtllib Bucket.mtl
o Bucket
v 0.118904 -0.009857 -0.068649
v 0.138603 0.289277 -0.080021
v 0.160048 0.289277 -0.000000
v 0.137298 -0.009857 0.000000
v 0.068649 -0.009857 -0.118904
v 0.080021 0.289277 -0.138603
v 0.000000 0.289277 -0.160048
v 0.000000 -0.009857 -0.137298
v -0.068649 -0.009857 -0.118904
v -0.080021 0.289277 -0.138603
v -0.118904 -0.009857 -0.068649
v -0.138603 0.289277 -0.080021
v -0.160048 0.289277 -0.000000
v -0.137298 -0.009857 0.000000
v -0.118904 -0.009857 0.068649
v -0.138603 0.289277 0.080021
v -0.068649 -0.009857 0.118904
v -0.080021 0.289277 0.138603
v 0.000000 -0.009857 0.137298
v 0.000000 0.289277 0.160048
v 0.068649 -0.009857 0.118904
v 0.080021 0.289277 0.138603
v 0.118904 -0.009857 0.068649
v 0.138603 0.289277 0.080021
v 0.000000 -0.014497 0.000000
v 0.150513 0.341407 -0.086900
v 0.173799 0.341407 -0.000000
v 0.168234 0.294110 -0.000000
v 0.145695 0.294110 -0.084120
v 0.084120 0.294110 -0.145695
v 0.086900 0.341407 -0.150513
v 0.000000 0.294110 -0.168234
v 0.000000 0.341407 -0.173799
v -0.084120 0.294110 -0.145695
v -0.086900 0.341407 -0.150513
v -0.145695 0.294110 -0.084120
v -0.150513 0.341407 -0.086900
v -0.168234 0.294110 -0.000000
v -0.173799 0.341407 -0.000000
v -0.150513 0.341407 0.086900
v -0.145695 0.294110 0.084120
v -0.084120 0.294110 0.145695
v -0.086900 0.341407 0.150513
v 0.000000 0.294110 0.168234
v 0.000000 0.341407 0.173799
v 0.084120 0.294110 0.145695
v 0.086900 0.341407 0.150513
v 0.150513 0.341407 0.086900
v 0.145695 0.294110 0.084120
v 0.148389 0.297896 -0.000000
v 0.128509 0.297896 -0.074193
v 0.109703 -0.000000 -0.063336
v 0.126672 0.000000 0.000000
v 0.074193 0.297896 -0.128509
v 0.063336 -0.000000 -0.109703
v 0.000000 0.297896 -0.148389
v 0.000000 -0.000000 -0.126672
v -0.063336 -0.000000 -0.109703
v -0.074193 0.297896 -0.128509
v -0.128509 0.297896 -0.074193
v -0.109703 -0.000000 -0.063336
v -0.148389 0.297896 -0.000000
v -0.126672 0.000000 0.000000
v -0.109703 0.000000 0.063336
v -0.128509 0.297896 0.074193
v -0.074193 0.297896 0.128509
v -0.063336 0.000000 0.109703
v 0.000000 0.297896 0.148389
v 0.000000 0.000000 0.126672
v 0.063336 0.000000 0.109703
v 0.074193 0.297896 0.128509
v 0.128509 0.297896 0.074193
v 0.109703 0.000000 0.063336
v 0.000000 0.000000 0.000000
v 0.155888 0.301711 -0.000000
v 0.159352 0.342627 -0.000000
v 0.138006 0.342627 -0.079679
v 0.135001 0.301711 -0.077944
v 0.079679 0.342627 -0.138006
v 0.077944 0.301711 -0.135001
v 0.000000 0.342627 -0.159352
v 0.000000 0.301711 -0.155888
v -0.077944 0.301711 -0.135001
v -0.079679 0.342627 -0.138006
v -0.138006 0.342627 -0.079679
v -0.135001 0.301711 -0.077944
v -0.155888 0.301711 -0.000000
v -0.159352 0.342627 -0.000000
v -0.138006 0.342627 0.079679
v -0.135001 0.301711 0.077944
v -0.079679 0.342627 0.138006
v -0.077947 0.301711 0.135001
v 0.000000 0.342627 0.159352
v 0.000000 0.301711 0.155888
v 0.077944 0.301711 0.135001
v 0.079679 0.342627 0.138006
v 0.138006 0.342627 0.079679
v 0.135001 0.301711 0.077947
v 0.017186 0.322847 -0.167623
v -0.105876 0.241857 -0.170595
v -0.104079 0.236307 -0.174615
v 0.020123 0.318049 -0.171514
v -0.107359 0.236719 -0.181119
v 0.018698 0.319684 -0.177813
v -0.111183 0.242524 -0.181119
v 0.014874 0.325489 -0.177813
v -0.110261 0.245704 -0.174615
v 0.013941 0.327446 -0.171514
v -0.149440 0.206456 -0.129545
v -0.149404 0.213211 -0.127342
v -0.155683 0.204914 -0.133102
v -0.159507 0.210722 -0.133102
v -0.155622 0.215847 -0.129545
v -0.160475 0.199191 0.000872
v -0.160092 0.206172 0.000872
v -0.167272 0.197290 0.000872
v -0.171096 0.203094 0.000872
v -0.166657 0.208589 0.000872
v -0.149440 0.206456 0.131286
v -0.149404 0.213211 0.129085
v -0.155683 0.204914 0.134846
v -0.159507 0.210722 0.134846
v -0.155622 0.215847 0.131286
v -0.105876 0.241857 0.172342
v -0.104079 0.236307 0.176359
v -0.107359 0.236720 0.182869
v -0.111183 0.242524 0.182869
v -0.110261 0.245704 0.176359
v 0.017186 0.322847 0.169367
v 0.020123 0.318049 0.173261
v 0.018698 0.319684 0.179560
v 0.014874 0.325489 0.179560
v 0.013941 0.327446 0.173261
v -0.150227 0.215078 0.071847
v -0.149217 0.199724 0.072625
v -0.149217 0.199724 -0.070881
v -0.150227 0.215078 -0.070097
v -0.161906 0.191374 0.074187
v -0.161906 0.191374 -0.072441
v -0.175604 0.198375 0.074966
v -0.175604 0.198375 -0.073225
v -0.176617 0.213726 0.074187
v -0.176617 0.213726 -0.072441
v -0.163928 0.222079 0.072625
v -0.163928 0.222079 -0.070881
vn 0.8635 -0.0758 -0.4986
vn 0.7141 -0.5658 -0.4122
vn 0.8246 -0.5658 -0.0000
vn 0.9971 -0.0758 -0.0000
vn 0.4986 -0.0758 -0.8635
vn 0.4122 -0.5658 -0.7141
vn -0.0000 -0.5658 -0.8246
vn -0.0000 -0.0758 -0.9971
vn -0.4986 -0.0758 -0.8635
vn -0.4122 -0.5658 -0.7141
vn -0.8635 -0.0758 -0.4986
vn -0.7141 -0.5658 -0.4122
vn -0.8246 -0.5658 -0.0000
vn -0.9971 -0.0758 -0.0000
vn -0.8635 -0.0758 0.4986
vn -0.7141 -0.5658 0.4122
vn -0.4986 -0.0758 0.8635
vn -0.4122 -0.5658 0.7141
vn -0.0000 -0.0758 0.9971
vn -0.0000 -0.5658 0.8246
vn 0.4986 -0.0758 0.8635
vn 0.4122 -0.5658 0.7141
vn 0.8635 -0.0758 0.4986
vn 0.7141 -0.5658 0.4122
vn 0.0293 -0.9994 -0.0169
vn 0.0338 -0.9994 -0.0000
vn -0.0000 -1.0000 -0.0000
vn 0.0169 -0.9994 -0.0293
vn -0.0000 -0.9994 -0.0338
vn -0.0169 -0.9994 -0.0293
vn -0.0293 -0.9994 -0.0169
vn -0.0338 -0.9994 -0.0000
vn -0.0293 -0.9994 0.0169
vn -0.0169 -0.9994 0.0293
vn -0.0000 -0.9994 0.0338
vn 0.0169 -0.9994 0.0293
vn 0.0293 -0.9994 0.0169
vn 0.8601 -0.1168 -0.4966
vn 0.9932 -0.1168 -0.0000
vn 0.8574 -0.5147 -0.0000
vn 0.7425 -0.5147 -0.4287
vn 0.4287 -0.5147 -0.7425
vn 0.4966 -0.1168 -0.8601
vn -0.0000 -0.5147 -0.8574
vn -0.0000 -0.1168 -0.9932
vn -0.4287 -0.5147 -0.7425
vn -0.4966 -0.1168 -0.8601
vn -0.7425 -0.5147 -0.4287
vn -0.8601 -0.1168 -0.4966
vn -0.8574 -0.5147 -0.0000
vn -0.9932 -0.1168 -0.0000
vn -0.8601 -0.1168 0.4966
vn -0.7425 -0.5147 0.4287
vn -0.4287 -0.5147 0.7425
vn -0.4966 -0.1168 0.8601
vn -0.0000 -0.5147 0.8574
vn -0.0000 -0.1168 0.9932
vn 0.4287 -0.5147 0.7425
vn 0.4966 -0.1168 0.8601
vn 0.8601 -0.1168 0.4966
vn 0.7425 -0.5147 0.4287
vn -0.8043 0.5942 -0.0000
vn -0.6965 0.5942 0.4021
vn -0.8637 0.0727 0.4987
vn -0.9974 0.0727 -0.0000
vn -0.4021 0.5942 0.6965
vn -0.4987 0.0727 0.8637
vn -0.0000 0.5942 0.8043
vn -0.0000 0.0727 0.9974
vn 0.4987 0.0727 0.8637
vn 0.4021 0.5942 0.6965
vn 0.6963 0.5946 0.4019
vn 0.8637 0.0727 0.4987
vn 0.8043 0.5942 -0.0000
vn 0.9974 0.0727 -0.0000
vn 0.8637 0.0727 -0.4987
vn 0.6965 0.5943 -0.4021
vn 0.4021 0.5943 -0.6965
vn 0.4987 0.0727 -0.8637
vn -0.0000 0.5946 -0.8040
vn -0.0000 0.0727 -0.9974
vn -0.4987 0.0727 -0.8637
vn -0.4021 0.5943 -0.6965
vn -0.6965 0.5943 -0.4021
vn -0.8637 0.0727 -0.4987
vn -0.0000 1.0000 -0.0000
vn -0.8517 0.5240 -0.0000
vn -0.9964 0.0844 -0.0000
vn -0.8629 0.0845 0.4982
vn -0.7376 0.5240 0.4259
vn -0.4982 0.0845 0.8629
vn -0.4259 0.5240 0.7376
vn -0.0000 0.0844 0.9964
vn -0.0000 0.5240 0.8517
vn 0.4259 0.5240 0.7376
vn 0.4982 0.0845 0.8629
vn 0.8629 0.0845 0.4982
vn 0.7376 0.5240 0.4259
vn 0.8517 0.5240 -0.0000
vn 0.9964 0.0844 -0.0000
vn 0.8629 0.0845 -0.4982
vn 0.7376 0.5240 -0.4259
vn 0.4982 0.0844 -0.8629
vn 0.4259 0.5240 -0.7376
vn -0.0000 0.0844 -0.9964
vn -0.0000 0.5240 -0.8517
vn -0.4259 0.5240 -0.7376
vn -0.4982 0.0845 -0.8629
vn -0.8629 0.0844 -0.4982
vn -0.7376 0.5240 -0.4259
vn 0.0729 0.9965 -0.0421
vn 0.0842 0.9965 -0.0000
vn 0.0421 0.9965 -0.0729
vn -0.0000 0.9965 -0.0842
vn -0.0421 0.9965 -0.0729
vn -0.0729 0.9965 -0.0421
vn -0.0842 0.9965 -0.0000
vn -0.0729 0.9965 0.0421
vn -0.0421 0.9965 0.0729
vn -0.0000 0.9965 0.0842
vn 0.0421 0.9965 0.0729
vn 0.0729 0.9965 0.0421
vn 0.2985 -0.4847 0.8222
vn 0.5497 -0.3661 0.7509
vn 0.5554 -0.3623 0.7485
vn 0.2983 -0.4845 0.8224
vn 0.5262 -0.7867 -0.3228
vn 0.4466 -0.8501 -0.2791
vn 0.4430 -0.8524 -0.2777
vn 0.5262 -0.7866 -0.3231
vn 0.0183 0.0120 -0.9998
vn -0.2749 -0.1810 -0.9443
vn -0.2750 -0.1811 -0.9442
vn -0.6040 0.7465 -0.2792
vn -0.5146 0.7942 -0.3231
vn -0.5147 0.7943 -0.3229
vn -0.6076 0.7442 -0.2777
vn -0.1134 0.6534 0.7485
vn -0.1190 0.6494 0.7511
vn -0.3265 0.4659 0.8224
vn -0.3267 0.4662 0.8222
vn 0.9179 -0.1275 0.3757
vn 0.9220 -0.1249 0.3666
vn 0.3086 -0.9417 -0.1341
vn 0.3111 -0.9401 -0.1395
vn -0.7366 -0.4852 -0.4712
vn -0.7366 -0.4852 -0.4711
vn -0.7403 0.6577 -0.1392
vn -0.7431 0.6557 -0.1338
vn 0.2458 0.8938 0.3751
vn 0.2505 0.8962 0.3661
vn 0.9985 -0.0540 -0.0005
vn 0.9985 -0.0540 -0.0006
vn 0.2693 -0.9631 0.0004
vn 0.2693 -0.9631 0.0003
vn -0.8351 -0.5500 -0.0000
vn -0.7780 0.6283 -0.0003
vn -0.7780 0.6283 -0.0004
vn 0.3454 0.9385 0.0005
vn 0.3454 0.9385 0.0006
vn 0.9181 -0.1277 -0.3751
vn 0.9222 -0.1244 -0.3661
vn 0.3083 -0.9418 0.1338
vn 0.3112 -0.9401 0.1392
vn -0.7366 -0.4852 0.4711
vn -0.7367 -0.4852 0.4711
vn -0.7403 0.6576 0.1395
vn -0.7428 0.6559 0.1341
vn 0.2460 0.8935 -0.3757
vn 0.2499 0.8962 -0.3666
vn 0.5494 -0.3662 -0.7510
vn 0.5553 -0.3625 -0.7485
vn 0.4467 -0.8500 0.2793
vn 0.4432 -0.8524 0.2776
vn -0.2748 -0.1810 0.9443
vn -0.2750 -0.1811 0.9442
vn -0.6077 0.7441 0.2776
vn -0.6041 0.7464 0.2790
vn -0.1131 0.6534 -0.7485
vn -0.1189 0.6497 -0.7509
vn 0.2988 -0.4842 -0.8224
vn 0.2989 -0.4844 -0.8222
vn 0.5259 -0.7868 0.3230
vn 0.5259 -0.7869 0.3228
vn 0.0183 0.0121 0.9998
vn -0.5143 0.7944 0.3231
vn -0.5144 0.7945 0.3229
vn -0.3271 0.4659 -0.8222
vn -0.3270 0.4656 -0.8224
vn 0.8343 0.5493 -0.0469
vn 0.8344 0.5491 -0.0467
vn 0.8345 0.5491 -0.0467
vn 0.8348 0.5486 -0.0464
vn 0.8344 0.5492 0.0467
vn 0.8348 0.5487 0.0464
vn 0.8345 0.5491 0.0467
vn 0.8343 0.5493 0.0468
vn 0.8345 0.5490 0.0470
vn 0.8353 0.5497 -0.0000
vn 0.8826 -0.4701 -0.0000
vn 0.8826 -0.4702 -0.0000
vn 0.0259 -0.9997 -0.0000
vn -0.8353 -0.5498 -0.0000
vn -0.9079 0.4192 -0.0000
vn -0.9079 0.4191 -0.0000
vn -0.0827 0.9966 -0.0000
vn 0.0855 0.0563 -0.9948
vn 0.0855 0.0562 -0.9948
vn 0.0854 0.0561 0.9948
vn 0.0854 0.0562 0.9948
vn 0.0853 0.0562 0.9948
vt 0.137900 0.901100
vt 0.119300 0.852900
vt 0.178100 0.894900
vt 0.901000 0.318900
vt 0.179400 0.905700
vt 0.900900 0.329500
vt 0.139000 0.910300
vt 0.119200 0.862600
vt 0.136200 0.891600
vt 0.114600 0.844500
vt 0.176200 0.883800
vt 0.895700 0.309700
vt 0.173700 0.873200
vt 0.886600 0.304300
vt 0.134100 0.882500
vt 0.106200 0.839700
vt 0.132000 0.873400
vt 0.096600 0.839600
vt 0.171200 0.862600
vt 0.876000 0.304300
vt 0.129200 0.864100
vt 0.088200 0.844400
vt 0.168000 0.851800
vt 0.866800 0.309500
vt 0.164300 0.841600
vt 0.861500 0.318600
vt 0.126100 0.855400
vt 0.083300 0.852700
vt 0.122900 0.846600
vt 0.083200 0.862300
vt 0.160700 0.831300
vt 0.861400 0.329200
vt 0.119100 0.837700
vt 0.140600 0.947900
vt 0.088000 0.870700
vt 0.156300 0.821000
vt 0.181300 0.949400
vt 0.866600 0.338400
vt 0.140600 0.938600
vt 0.096300 0.875600
vt 0.181300 0.938600
vt 0.875700 0.343800
vt 0.140600 0.929200
vt 0.106000 0.875700
vt 0.181300 0.927700
vt 0.886300 0.343900
vt 0.140100 0.919600
vt 0.114400 0.870900
vt 0.180600 0.916500
vt 0.895500 0.338600
vt 0.101300 0.857600
vt 0.963900 0.272400
vt 0.866300 0.261600
vt 0.964300 0.283900
vt 0.860500 0.271500
vt 0.958200 0.283900
vt 0.901900 0.329800
vt 0.957800 0.272800
vt 0.902000 0.318600
vt 0.956800 0.263200
vt 0.896500 0.309000
vt 0.962900 0.262400
vt 0.876300 0.255900
vt 0.955200 0.252200
vt 0.886900 0.303300
vt 0.961200 0.251100
vt 0.887800 0.256000
vt 0.953100 0.242700
vt 0.875800 0.303300
vt 0.959000 0.241300
vt 0.897700 0.261800
vt 0.950200 0.232000
vt 0.944500 0.354900
vt 0.866100 0.308800
vt 0.956100 0.230200
vt 0.950100 0.357300
vt 0.903400 0.271800
vt 0.948000 0.344700
vt 0.860500 0.318300
vt 0.953700 0.346700
vt 0.903300 0.283300
vt 0.957300 0.336200
vt 0.897500 0.293200
vt 0.951500 0.334600
vt 0.860400 0.329500
vt 0.954200 0.323700
vt 0.865900 0.339200
vt 0.960100 0.325000
vt 0.887500 0.298900
vt 0.955900 0.314200
vt 0.875500 0.344800
vt 0.961900 0.315200
vt 0.876000 0.298800
vt 0.957300 0.303200
vt 0.886600 0.344900
vt 0.963400 0.303800
vt 0.866100 0.293000
vt 0.964000 0.293800
vt 0.860400 0.283000
vt 0.957900 0.293600
vt 0.896300 0.339400
vt 0.085200 0.896300
vt 0.945300 0.280200
vt 0.087500 0.906200
vt 0.940300 0.288700
vt 0.047600 0.913600
vt 0.127600 0.961600
vt 0.045700 0.905200
vt 0.132100 0.953900
vt 0.089200 0.916400
vt 0.931800 0.293500
vt 0.049100 0.922400
vt 0.119800 0.966000
vt 0.090300 0.926500
vt 0.922000 0.293500
vt 0.050000 0.930900
vt 0.110900 0.965900
vt 0.051000 0.939500
vt 0.103200 0.961400
vt 0.091400 0.936500
vt 0.913500 0.288500
vt 0.092000 0.946900
vt 0.908700 0.280000
vt 0.051500 0.948400
vt 0.098800 0.953600
vt 0.092000 0.957000
vt 0.908700 0.270100
vt 0.051500 0.957000
vt 0.098900 0.944700
vt 0.051500 0.965600
vt 0.032400 0.863700
vt 0.103400 0.937100
vt 0.092000 0.967100
vt 0.069700 0.847700
vt 0.913700 0.261700
vt 0.073600 0.857400
vt 0.922200 0.256800
vt 0.035800 0.872000
vt 0.111200 0.932700
vt 0.076900 0.866900
vt 0.932100 0.256900
vt 0.038600 0.880100
vt 0.120100 0.932700
vt 0.041400 0.888200
vt 0.127700 0.937200
vt 0.080200 0.876500
vt 0.940500 0.261900
vt 0.083000 0.886500
vt 0.945400 0.270400
vt 0.043800 0.896800
vt 0.132100 0.945000
vt 0.115500 0.949300
vt 0.851400 0.259100
vt 0.946200 0.280500
vt 0.846200 0.258400
vt 0.862200 0.272000
vt 0.847400 0.248300
vt 0.867600 0.262900
vt 0.852600 0.249200
vt 0.941000 0.289400
vt 0.849400 0.238000
vt 0.855100 0.359900
vt 0.876700 0.257700
vt 0.854500 0.239100
vt 0.860100 0.358300
vt 0.932000 0.294500
vt 0.852500 0.350100
vt 0.887300 0.257800
vt 0.857500 0.348700
vt 0.921700 0.294400
vt 0.855000 0.339300
vt 0.912800 0.289200
vt 0.849900 0.340500
vt 0.896400 0.263100
vt 0.847800 0.330100
vt 0.901600 0.272300
vt 0.853000 0.329200
vt 0.907700 0.280200
vt 0.851700 0.319300
vt 0.907800 0.269900
vt 0.846500 0.320000
vt 0.901500 0.282800
vt 0.845100 0.309900
vt 0.896200 0.291900
vt 0.850400 0.309500
vt 0.913000 0.261000
vt 0.844400 0.299400
vt 0.887000 0.297100
vt 0.849600 0.299200
vt 0.922000 0.255900
vt 0.844400 0.289200
vt 0.876500 0.297000
vt 0.849600 0.289200
vt 0.932300 0.256000
vt 0.849500 0.279200
vt 0.941200 0.261200
vt 0.844300 0.279100
vt 0.867400 0.291700
vt 0.844900 0.268500
vt 0.862200 0.282500
vt 0.850200 0.269000
vt 0.946300 0.270200
vt 0.918600 0.500300
vt 0.938700 0.504800
vt 0.871200 0.501700
vt 0.842900 0.530800
vt 0.955700 0.519600
vt 0.870600 0.499900
vt 0.841600 0.532600
vt 0.841900 0.506900
vt 0.918500 0.498500
vt 0.842900 0.466900
vt 0.937200 0.503500
vt 0.839800 0.508000
vt 0.882800 0.508300
vt 0.840900 0.467300
vt 0.931400 0.508000
vt 0.937700 0.501500
vt 0.882800 0.506100
vt 0.965100 0.529700
vt 0.931400 0.505700
vt 0.963200 0.481100
vt 0.939600 0.501500
vt 0.870700 0.503600
vt 0.962900 0.528900
vt 0.957000 0.521000
vt 0.961100 0.481000
vt 0.918600 0.502100
vt 0.940200 0.503500
vt 0.856100 0.542200
vt 0.856400 0.521500
vt 0.856800 0.540100
vt 0.941700 0.533700
vt 0.864200 0.508400
vt 0.855300 0.523500
vt 0.860000 0.471900
vt 0.864200 0.506200
vt 0.950800 0.548600
vt 0.860000 0.473700
vt 0.949400 0.546600
vt 0.861100 0.475400
vt 0.942400 0.535700
vt 0.898200 0.544600
vt 0.898400 0.525100
vt 0.898200 0.542300
vt 0.900400 0.537100
vt 0.898400 0.527300
vt 0.903200 0.469400
vt 0.903200 0.471300
vt 0.903200 0.473000
vt 0.900400 0.539200
vt 0.940200 0.542200
vt 0.940500 0.521500
vt 0.939500 0.540100
vt 0.859100 0.533700
vt 0.946300 0.471900
vt 0.941600 0.523500
vt 0.931400 0.512100
vt 0.946300 0.473700
vt 0.931400 0.509800
vt 0.854100 0.512200
vt 0.945200 0.475400
vt 0.855700 0.510700
vt 0.858400 0.535700
vt 0.953400 0.530800
vt 0.845100 0.519600
vt 0.876300 0.518200
vt 0.954700 0.532600
vt 0.875800 0.520000
vt 0.955000 0.506900
vt 0.957100 0.508000
vt 0.912800 0.512600
vt 0.848300 0.489100
vt 0.912700 0.510400
vt 0.949300 0.503600
vt 0.850300 0.489100
vt 0.843800 0.521000
vt 0.951400 0.503200
vt 0.875800 0.516400
vt 0.923800 0.517900
vt 0.941300 0.510400
vt 0.923800 0.519700
vt 0.954000 0.466900
vt 0.939100 0.510400
vt 0.956000 0.467300
vt 0.864200 0.514100
vt 0.938500 0.512500
vt 0.864100 0.511900
vt 0.948800 0.463000
vt 0.940300 0.513800
vt 0.950900 0.463200
vt 0.923700 0.516100
vt 0.942000 0.512500
vt 0.336000 0.508600
vt 0.336400 0.518100
vt 0.247800 0.518100
vt 0.248300 0.508600
vt 0.337400 0.525900
vt 0.344800 0.522300
vt 0.246900 0.525900
vt 0.239400 0.522300
vt 0.337900 0.534400
vt 0.337900 0.482900
vt 0.352700 0.517000
vt 0.246400 0.534400
vt 0.246400 0.482900
vt 0.231600 0.517000
vt 0.337400 0.492300
vt 0.352200 0.507600
vt 0.246900 0.492300
vt 0.232000 0.507600
vt 0.336400 0.500200
vt 0.343900 0.503300
vt 0.247800 0.500200
vt 0.240400 0.503300
s 1
usemtl Picnic_Assets
f 1/1/1 2/3/2 3/5/3 4/7/4
f 5/9/5 6/11/6 2/3/2 1/1/1
f 7/13/7 6/11/6 5/9/5 8/15/8
f 8/15/8 9/17/9 10/19/10 7/13/7
f 9/17/9 11/21/11 12/23/12 10/19/10
f 13/25/13 12/23/12 11/21/11 14/27/14
f 13/25/13 14/27/14 15/29/15 16/31/16
f 17/33/17 18/36/18 16/31/16 15/29/15
f 19/39/19 20/41/20 18/37/18 17/34/17
f 19/39/19 21/43/21 22/45/22 20/41/20
f 23/47/23 24/49/24 22/45/22 21/43/21
f 3/5/3 24/49/24 23/47/23 4/7/4
f 1/2/25 4/8/26 25/51/27
f 5/10/28 1/2/25 25/51/27
f 8/16/29 5/10/28 25/51/27
f 9/18/30 8/16/29 25/51/27
f 11/22/31 9/18/30 25/51/27
f 14/28/32 11/22/31 25/51/27
f 15/30/33 14/28/32 25/51/27
f 17/35/34 15/30/33 25/51/27
f 19/40/35 17/35/34 25/51/27
f 21/44/36 19/40/35 25/51/27
f 23/48/37 21/44/36 25/51/27
f 4/8/26 23/48/37 25/51/27
f 26/52/38 27/54/39 28/56/40 29/58/41
f 30/60/42 31/62/43 26/52/38 29/58/41
f 31/62/43 30/60/42 32/64/44 33/66/45
f 34/68/46 35/70/47 33/66/45 32/64/44
f 35/70/47 34/68/46 36/72/48 37/75/49
f 38/78/50 39/80/51 37/76/49 36/73/48
f 40/82/52 39/80/51 38/78/50 41/84/53
f 42/86/54 43/88/55 40/82/52 41/84/53
f 43/88/55 42/86/54 44/90/56 45/92/57
f 46/94/58 47/96/59 45/92/57 44/90/56
f 48/98/60 47/96/59 46/94/58 49/100/61
f 27/54/39 48/98/60 49/100/61 28/56/40
f 28/57/40 3/6/3 2/4/2 29/59/41
f 2/4/2 6/12/6 30/61/42 29/59/41
f 30/61/42 6/12/6 7/14/7 32/65/44
f 10/20/10 34/69/46 32/65/44 7/14/7
f 12/24/12 36/74/48 34/69/46 10/20/10
f 12/24/12 13/26/13 38/79/50 36/74/48
f 16/32/16 41/85/53 38/79/50 13/26/13
f 18/38/18 42/87/54 41/85/53 16/32/16
f 44/91/56 42/87/54 18/38/18 20/42/20
f 20/42/20 22/46/22 46/95/58 44/91/56
f 24/50/24 49/101/61 46/95/58 22/46/22
f 28/57/40 49/101/61 24/50/24 3/6/3
f 50/102/62 51/104/63 52/106/64 53/108/65
f 51/104/63 54/110/66 55/112/67 52/106/64
f 54/110/66 56/114/68 57/116/69 55/112/67
f 58/118/70 57/116/69 56/114/68 59/120/71
f 59/120/71 60/122/72 61/124/73 58/118/70
f 61/124/73 60/122/72 62/126/74 63/128/75
f 64/130/76 63/128/75 62/126/74 65/133/77
f 66/136/78 67/138/79 64/131/76 65/134/77
f 67/138/79 66/136/78 68/140/80 69/142/81
f 70/144/82 69/142/81 68/140/80 71/146/83
f 71/146/83 72/148/84 73/150/85 70/144/82
f 53/108/65 73/150/85 72/148/84 50/102/62
f 74/152/86 53/109/86 52/107/86
f 74/152/86 52/107/86 55/113/86
f 74/152/86 55/113/86 57/117/86
f 74/152/86 57/117/86 58/119/86
f 74/152/86 58/119/86 61/125/86
f 74/152/86 61/125/86 63/129/86
f 74/152/86 63/129/86 64/132/86
f 74/152/86 64/132/86 67/139/86
f 74/152/86 67/139/86 69/143/86
f 74/152/86 69/143/86 70/145/86
f 74/152/86 70/145/86 73/151/86
f 74/152/86 73/151/86 53/109/86
f 75/153/87 76/155/88 77/157/89 78/159/90
f 78/159/90 77/157/89 79/161/91 80/164/92
f 79/162/91 81/167/93 82/169/94 80/165/92
f 83/171/95 82/169/94 81/167/93 84/173/96
f 84/173/96 85/175/97 86/177/98 83/171/95
f 87/179/99 86/177/98 85/175/97 88/181/100
f 87/179/99 88/181/100 89/183/101 90/185/102
f 91/187/103 92/189/104 90/185/102 89/183/101
f 93/191/105 94/193/106 92/189/104 91/187/103
f 95/195/107 94/193/106 93/191/105 96/197/108
f 97/199/109 98/201/110 95/195/107 96/197/108
f 97/199/109 76/155/88 75/153/87 98/201/110
f 75/154/87 78/160/90 51/105/63 50/103/62
f 51/105/63 78/160/90 80/166/92 54/111/66
f 56/115/68 54/111/66 80/166/92 82/170/94
f 82/170/94 83/172/95 59/121/71 56/115/68
f 83/172/95 86/178/98 60/123/72 59/121/71
f 60/123/72 86/178/98 87/180/99 62/127/74
f 87/180/99 90/186/102 65/135/77 62/127/74
f 65/135/77 90/186/102 92/190/104 66/137/78
f 66/137/78 92/190/104 94/194/106 68/141/80
f 94/194/106 95/196/107 71/147/83 68/141/80
f 98/202/110 72/149/84 71/147/83 95/196/107
f 50/103/62 72/149/84 98/202/110 75/154/87
f 26/53/111 77/158/111 76/156/112 27/55/112
f 31/63/113 79/163/113 77/158/111 26/53/111
f 79/163/113 31/63/113 33/67/114 81/168/114
f 81/168/114 33/67/114 35/71/115 84/174/115
f 84/174/115 35/71/115 37/77/116 85/176/116
f 88/182/117 85/176/116 37/77/116 39/81/117
f 88/182/117 39/81/117 40/83/118 89/184/118
f 89/184/118 40/83/118 43/89/119 91/188/119
f 45/93/120 93/192/120 91/188/119 43/89/119
f 96/198/121 93/192/120 45/93/120 47/97/121
f 48/99/122 97/200/122 96/198/121 47/97/121
f 48/99/122 27/55/112 76/156/112 97/200/122
f 99/203/123 100/205/124 101/208/125 102/211/126
f 102/212/127 101/210/128 103/214/129 104/216/130
f 104/217/131 103/215/132 105/219/133 106/221/131
f 107/225/134 108/227/135 106/222/136 105/220/137
f 107/224/138 100/205/139 99/203/140 108/228/141
f 109/230/142 101/209/125 100/206/124 110/232/143
f 109/231/144 111/235/145 103/214/129 101/210/128
f 103/215/132 111/234/146 112/237/147 105/219/133
f 107/225/134 105/220/137 112/238/148 113/240/149
f 107/226/138 113/242/150 110/233/151 100/207/139
f 114/243/152 109/230/142 110/232/143 115/245/153
f 114/244/154 116/247/155 111/235/145 109/231/144
f 112/239/147 111/236/146 116/248/156 117/249/156
f 112/239/148 117/249/157 118/250/158 113/241/149
f 113/242/150 118/251/159 115/246/160 110/233/151
f 119/252/161 114/243/152 115/245/153 120/254/162
f 116/247/155 114/244/154 119/253/163 121/257/164
f 121/256/165 122/259/166 117/249/156 116/248/156
f 118/250/158 117/249/157 122/259/167 123/262/168
f 123/264/169 120/255/170 115/246/160 118/251/159
f 119/252/161 120/254/162 124/265/171 125/268/172
f 125/270/173 126/271/174 121/257/164 119/253/163
f 126/272/175 127/274/176 122/260/166 121/258/165
f 122/261/167 127/273/177 128/276/178 123/263/168
f 123/264/169 128/277/179 124/266/180 120/255/170
f 124/267/171 129/280/181 130/282/182 125/269/172
f 130/283/183 131/285/184 126/271/174 125/270/173
f 126/272/175 131/286/185 132/288/185 127/274/176
f 128/278/178 127/275/177 132/289/186 133/291/187
f 129/280/188 124/267/180 128/279/179 133/292/189
f 106/223/190 108/229/190 99/204/191 104/218/192
f 102/213/193 104/218/192 99/204/191
f 131/287/194 130/284/195 129/281/196
f 132/290/197 131/287/194 129/281/196
f 133/293/198 132/290/197 129/281/196
f 134/294/199 135/295/200 136/296/201 137/297/199
f 135/295/200 138/298/202 139/300/202 136/296/201
f 138/298/202 140/302/203 141/305/203 139/300/202
f 142/308/204 143/310/205 141/306/203 140/303/203
f 144/312/206 145/314/206 143/310/205 142/308/204
f 137/297/199 145/314/206 144/312/206 134/294/199
f 141/307/207 143/311/207 145/315/207 137/297/207
f 141/307/207 137/297/207 136/296/208 139/301/208
f 138/299/209 135/295/209 134/294/210 140/304/210
f 134/294/210 144/313/211 142/309/211 140/304/210
