# Blender 3.5.0
# www.blender.org
mtllib Doughnut.mtl
o Doughnut
v 0.044722 0.022818 -0.061554
v 0.050278 -0.000000 -0.069205
v 0.000000 -0.000000 -0.085539
v 0.000000 0.022818 -0.076086
v 0.031314 0.032265 -0.043099
v 0.000000 0.032265 -0.053274
v 0.000000 0.022818 -0.030457
v 0.017902 0.022818 -0.024640
v 0.000000 -0.000000 -0.021007
v 0.012347 -0.000000 -0.016995
v 0.000000 -0.022818 -0.030457
v 0.017902 -0.022818 -0.024640
v 0.000000 -0.032265 -0.053274
v 0.031314 -0.032265 -0.043099
v 0.000000 -0.022818 -0.076086
v 0.044722 -0.022818 -0.061554
v 0.072362 0.022818 -0.023511
v 0.081352 -0.000000 -0.026434
v 0.050665 0.032265 -0.016460
v 0.028965 0.022818 -0.009415
v 0.019980 -0.000000 -0.006492
v 0.028965 -0.022818 -0.009415
v 0.050665 -0.032265 -0.016460
v 0.072362 -0.022818 -0.023511
v 0.072362 0.022818 0.023511
v 0.081352 0.000000 0.026434
v 0.050665 0.032265 0.016460
v 0.028965 0.022818 0.009415
v 0.019980 0.000000 0.006492
v 0.028965 -0.022818 0.009415
v 0.050665 -0.032265 0.016460
v 0.072362 -0.022818 0.023511
v 0.050278 0.000000 0.069205
v 0.044722 0.022818 0.061554
v 0.031314 0.032265 0.043099
v 0.017902 0.022818 0.024640
v 0.012347 0.000000 0.016995
v 0.017902 -0.022818 0.024640
v 0.031314 -0.032265 0.043099
v 0.044722 -0.022818 0.061554
v 0.000000 0.000000 0.085539
v 0.000000 0.022818 0.076086
v 0.000000 0.032265 0.053274
v 0.000000 0.022818 0.030457
v 0.000000 0.000000 0.021007
v 0.000000 -0.022818 0.030457
v 0.000000 -0.032265 0.053274
v 0.000000 -0.022818 0.076086
v -0.044722 0.022818 0.061554
v -0.050278 0.000000 0.069205
v -0.031314 0.032265 0.043099
v -0.017902 0.022818 0.024640
v -0.012347 0.000000 0.016995
v -0.017902 -0.022818 0.024640
v -0.031314 -0.032265 0.043099
v -0.044722 -0.022818 0.061554
v -0.072362 0.022818 0.023511
v -0.081352 0.000000 0.026434
v -0.050665 0.032265 0.016460
v -0.028965 0.022818 0.009415
v -0.019980 0.000000 0.006492
v -0.028965 -0.022818 0.009415
v -0.050665 -0.032265 0.016460
v -0.072362 -0.022818 0.023511
v -0.072362 0.022818 -0.023511
v -0.081352 -0.000000 -0.026434
v -0.050665 0.032265 -0.016460
v -0.028965 0.022818 -0.009415
v -0.019980 -0.000000 -0.006492
v -0.028965 -0.022818 -0.009415
v -0.050665 -0.032265 -0.016460
v -0.072362 -0.022818 -0.023511
v -0.044722 0.022818 -0.061554
v -0.050278 -0.000000 -0.069205
v -0.031314 0.032265 -0.043099
v -0.017902 0.022818 -0.024640
v -0.012347 -0.000000 -0.016995
v -0.017902 -0.022818 -0.024640
v -0.031314 -0.032265 -0.043099
v -0.044722 -0.022818 -0.061554
vn 0.4357 0.6712 -0.5997
vn 0.5878 -0.0000 -0.8090
vn -0.0000 -0.0000 -1.0000
vn -0.0000 0.6712 -0.7413
vn 0.0448 0.9971 -0.0616
vn -0.0000 0.9971 -0.0761
vn -0.0000 0.7471 0.6647
vn -0.3907 0.7471 0.5378
vn -0.0000 -0.0000 1.0000
vn -0.5877 -0.0000 0.8090
vn -0.0000 -0.7471 0.6647
vn -0.3907 -0.7471 0.5378
vn -0.0000 -0.9971 -0.0761
vn 0.0448 -0.9971 -0.0616
vn -0.0000 -0.6712 -0.7413
vn 0.4357 -0.6712 -0.5997
vn 0.7050 0.6712 -0.2291
vn 0.9511 -0.0000 -0.3090
vn 0.0724 0.9971 -0.0235
vn -0.6322 0.7471 0.2055
vn -0.9511 -0.0000 0.3090
vn -0.6322 -0.7471 0.2055
vn 0.0724 -0.9971 -0.0235
vn 0.7050 -0.6712 -0.2291
vn 0.7050 0.6712 0.2291
vn 0.9511 -0.0000 0.3090
vn 0.0724 0.9971 0.0235
vn -0.6322 0.7471 -0.2055
vn -0.9511 -0.0000 -0.3090
vn -0.6322 -0.7471 -0.2055
vn 0.0724 -0.9971 0.0235
vn 0.7050 -0.6712 0.2291
vn 0.5878 -0.0000 0.8090
vn 0.4357 0.6712 0.5997
vn 0.0448 0.9971 0.0616
vn -0.3907 0.7471 -0.5378
vn -0.5877 -0.0000 -0.8090
vn -0.3907 -0.7471 -0.5378
vn 0.0448 -0.9971 0.0616
vn 0.4357 -0.6712 0.5997
vn -0.0000 0.6712 0.7413
vn -0.0000 0.9971 0.0761
vn -0.0000 0.7471 -0.6647
vn -0.0000 -0.7471 -0.6647
vn -0.0000 -0.9971 0.0761
vn -0.0000 -0.6712 0.7413
vn -0.4357 0.6712 0.5997
vn -0.5878 -0.0000 0.8090
vn -0.0448 0.9971 0.0616
vn 0.3907 0.7471 -0.5378
vn 0.5877 -0.0000 -0.8090
vn 0.3907 -0.7471 -0.5378
vn -0.0448 -0.9971 0.0616
vn -0.4357 -0.6712 0.5997
vn -0.7050 0.6712 0.2291
vn -0.0724 0.9971 0.0235
vn 0.6322 0.7471 -0.2055
vn 0.6322 -0.7471 -0.2055
vn -0.0724 -0.9971 0.0235
vn -0.7050 -0.6712 0.2291
vn -0.7050 0.6712 -0.2291
vn -0.0724 0.9971 -0.0235
vn 0.6322 0.7471 0.2055
vn 0.6322 -0.7471 0.2055
vn -0.0724 -0.9971 -0.0235
vn -0.7050 -0.6712 -0.2291
vn -0.4357 0.6712 -0.5997
vn -0.5878 -0.0000 -0.8090
vn -0.0448 0.9971 -0.0616
vn 0.3907 0.7471 0.5378
vn 0.5877 -0.0000 0.8090
vn 0.3907 -0.7471 0.5378
vn -0.0448 -0.9971 -0.0616
vn -0.4357 -0.6712 -0.5997
vt 0.046000 0.733600
vt 0.038900 0.733900
vt 0.970600 0.737800
vt 0.038900 0.720200
vt 0.970600 0.724400
vt 0.045200 0.720200
vt 0.054000 0.732300
vt 0.052400 0.719500
vt 0.062900 0.719000
vt 0.065600 0.730300
vt 0.078600 0.716000
vt 0.931800 0.719900
vt 0.080900 0.725000
vt 0.929700 0.728900
vt 0.947100 0.723000
vt 0.944900 0.734200
vt 0.957100 0.724100
vt 0.955900 0.736700
vt 0.964400 0.724300
vt 0.963700 0.737500
vt 0.047900 0.750000
vt 0.038800 0.750800
vt 0.970600 0.754400
vt 0.057500 0.747000
vt 0.070000 0.741700
vt 0.084400 0.733500
vt 0.926200 0.737300
vt 0.940300 0.745400
vt 0.952400 0.750700
vt 0.961900 0.753500
vt 0.054000 0.773000
vt 0.053700 0.620500
vt 0.038800 0.778100
vt 0.970500 0.781200
vt 0.038800 0.615700
vt 0.970500 0.622000
vt 0.066000 0.763700
vt 0.065700 0.629700
vt 0.076800 0.751800
vt 0.076300 0.641400
vt 0.089300 0.740800
vt 0.921300 0.744400
vt 0.089300 0.652800
vt 0.921800 0.658800
vt 0.933500 0.755300
vt 0.933800 0.648000
vt 0.944000 0.767000
vt 0.943700 0.636600
vt 0.955800 0.776300
vt 0.955900 0.626900
vt 0.039000 0.642900
vt 0.970700 0.648600
vt 0.047900 0.643700
vt 0.057500 0.646600
vt 0.069400 0.652100
vt 0.084100 0.660300
vt 0.926700 0.665700
vt 0.940500 0.657600
vt 0.952200 0.652100
vt 0.962100 0.649500
vt 0.039100 0.659500
vt 0.970800 0.664900
vt 0.046000 0.659800
vt 0.053800 0.660700
vt 0.064800 0.663400
vt 0.080500 0.668700
vt 0.930100 0.673900
vt 0.945200 0.668600
vt 0.956200 0.665900
vt 0.964100 0.665100
vt 0.045000 0.673000
vt 0.038800 0.672800
vt 0.970500 0.678000
vt 0.052300 0.673200
vt 0.062400 0.675000
vt 0.078200 0.677900
vt 0.932200 0.682700
vt 0.947500 0.680000
vt 0.957400 0.678400
vt 0.964400 0.678100
vt 0.044500 0.684900
vt 0.038700 0.684900
vt 0.970500 0.689800
vt 0.051400 0.685000
vt 0.061300 0.686100
vt 0.077100 0.687400
vt 0.933300 0.692000
vt 0.948500 0.690800
vt 0.958100 0.689800
vt 0.964800 0.689900
vt 0.044600 0.696300
vt 0.038900 0.696400
vt 0.970600 0.701100
vt 0.051300 0.696500
vt 0.061000 0.697100
vt 0.076600 0.697000
vt 0.933500 0.701400
vt 0.948700 0.701300
vt 0.958300 0.701200
vt 0.965000 0.701100
vt 0.044900 0.708000
vt 0.039000 0.708000
vt 0.970800 0.712500
vt 0.051700 0.707800
vt 0.061600 0.707900
vt 0.077200 0.706500
vt 0.933100 0.710700
vt 0.948500 0.712100
vt 0.958300 0.712600
vt 0.965000 0.712500
s 1
usemtl Picnic_Assets
f 1/1/1 2/2/2 3/4/3 4/6/4
f 5/7/5 1/1/1 4/6/4 6/8/6
f 5/7/5 6/8/6 7/9/7 8/10/8
f 9/11/9 10/13/10 8/10/8 7/9/7
f 10/14/10 9/12/9 11/15/11 12/16/12
f 12/16/12 11/15/11 13/17/13 14/18/14
f 13/17/13 15/19/15 16/20/16 14/18/14
f 16/20/16 15/19/15 3/5/3 2/3/2
f 17/21/17 18/22/18 2/2/2 1/1/1
f 19/24/19 17/21/17 1/1/1 5/7/5
f 8/10/8 20/25/20 19/24/19 5/7/5
f 8/10/8 10/13/10 21/26/21 20/25/20
f 12/16/12 22/28/22 21/27/21 10/14/10
f 23/29/23 22/28/22 12/16/12 14/18/14
f 16/20/16 24/30/24 23/29/23 14/18/14
f 24/30/24 16/20/16 2/3/2 18/23/18
f 17/21/17 25/31/25 26/33/26 18/22/18
f 17/21/17 19/24/19 27/37/27 25/31/25
f 20/25/20 28/39/28 27/37/27 19/24/19
f 20/25/20 21/26/21 29/41/29 28/39/28
f 29/42/29 21/27/21 22/28/22 30/45/30
f 31/47/31 30/45/30 22/28/22 23/29/23
f 24/30/24 32/49/32 31/47/31 23/29/23
f 32/49/32 24/30/24 18/23/18 26/34/26
f 33/51/33 26/35/26 25/32/25 34/53/34
f 27/38/27 35/54/35 34/53/34 25/32/25
f 28/40/28 36/55/36 35/54/35 27/38/27
f 37/56/37 36/55/36 28/40/28 29/43/29
f 37/57/37 29/44/29 30/46/30 38/58/38
f 38/58/38 30/46/30 31/48/31 39/59/39
f 39/59/39 31/48/31 32/50/32 40/60/40
f 32/50/32 26/36/26 33/52/33 40/60/40
f 41/61/9 33/51/33 34/53/34 42/63/41
f 35/54/35 43/64/42 42/63/41 34/53/34
f 35/54/35 36/55/36 44/65/43 43/64/42
f 45/66/3 44/65/43 36/55/36 37/56/37
f 45/67/3 37/57/37 38/58/38 46/68/44
f 46/68/44 38/58/38 39/59/39 47/69/45
f 40/60/40 48/70/46 47/69/45 39/59/39
f 40/60/40 33/52/33 41/62/9 48/70/46
f 49/71/47 50/72/48 41/61/9 42/63/41
f 51/74/49 49/71/47 42/63/41 43/64/42
f 51/74/49 43/64/42 44/65/43 52/75/50
f 44/65/43 45/66/3 53/76/51 52/75/50
f 53/77/51 45/67/3 46/68/44 54/78/52
f 46/68/44 47/69/45 55/79/53 54/78/52
f 56/80/54 55/79/53 47/69/45 48/70/46
f 48/70/46 41/62/9 50/73/48 56/80/54
f 57/81/55 58/82/21 50/72/48 49/71/47
f 49/71/47 51/74/49 59/84/56 57/81/55
f 59/84/56 51/74/49 52/75/50 60/85/57
f 53/76/51 61/86/18 60/85/57 52/75/50
f 62/88/58 61/87/18 53/77/51 54/78/52
f 54/78/52 55/79/53 63/89/59 62/88/58
f 56/80/54 64/90/60 63/89/59 55/79/53
f 58/83/21 64/90/60 56/80/54 50/73/48
f 65/91/61 66/92/29 58/82/21 57/81/55
f 59/84/56 67/94/62 65/91/61 57/81/55
f 67/94/62 59/84/56 60/85/57 68/95/63
f 60/85/57 61/86/18 69/96/26 68/95/63
f 70/98/64 69/97/26 61/87/18 62/88/58
f 62/88/58 63/89/59 71/99/65 70/98/64
f 71/99/65 63/89/59 64/90/60 72/100/66
f 64/90/60 58/83/21 66/93/29 72/100/66
f 66/92/29 65/91/61 73/101/67 74/102/68
f 67/94/62 75/104/69 73/101/67 65/91/61
f 75/104/69 67/94/62 68/95/63 76/105/70
f 76/105/70 68/95/63 69/96/26 77/106/71
f 78/108/72 77/107/71 69/97/26 70/98/64
f 78/108/72 70/98/64 71/99/65 79/109/73
f 71/99/65 72/100/66 80/110/74 79/109/73
f 66/93/29 74/103/68 80/110/74 72/100/66
f 3/4/3 74/102/68 73/101/67 4/6/4
f 6/8/6 4/6/4 73/101/67 75/104/69
f 6/8/6 75/104/69 76/105/70 7/9/7
f 77/106/71 9/11/9 7/9/7 76/105/70
f 78/108/72 11/15/11 9/12/9 77/107/71
f 78/108/72 79/109/73 13/17/13 11/15/11
f 15/19/15 13/17/13 79/109/73 80/110/74
f 3/5/3 15/19/15 80/110/74 74/103/68
